<?xml version="1.0" encoding="UTF-8" standalone="no"?>
<svg
   xmlns:dc="http://purl.org/dc/elements/1.1/"
   xmlns:cc="http://creativecommons.org/ns#"
   xmlns:rdf="http://www.w3.org/1999/02/22-rdf-syntax-ns#"
   xmlns:svg="http://www.w3.org/2000/svg"
   xmlns="http://www.w3.org/2000/svg"
   xmlns:sodipodi="http://sodipodi.sourceforge.net/DTD/sodipodi-0.dtd"
   xmlns:inkscape="http://www.inkscape.org/namespaces/inkscape"
   inkscape:version="1.0 (4035a4fb49, 2020-05-01)"
   sodipodi:docname="logo.svg"
   version="1.1"
   id="svg2"
   xml:space="preserve"
   width="792.94269"
   height="279.90558"
   viewBox="0 0 792.94269 279.90558"><sodipodi:namedview
     inkscape:current-layer="g14"
     inkscape:window-maximized="0"
     inkscape:window-y="0"
     inkscape:window-x="0"
     inkscape:cy="314.66289"
     inkscape:cx="432.98883"
     inkscape:zoom="1.151727"
     fit-margin-bottom="0"
     fit-margin-right="0"
     fit-margin-left="0"
     fit-margin-top="0"
     showgrid="false"
     id="namedview75"
     inkscape:window-height="1018"
     inkscape:window-width="1774"
     inkscape:pageshadow="2"
     inkscape:pageopacity="0"
     guidetolerance="10"
     gridtolerance="10"
     objecttolerance="10"
     borderopacity="1"
     bordercolor="#666666"
     pagecolor="#ffffff" /><metadata
     id="metadata8"><rdf:RDF><cc:Work
         rdf:about=""><dc:format>image/svg+xml</dc:format><dc:type
           rdf:resource="http://purl.org/dc/dcmitype/StillImage" /><dc:title></dc:title></cc:Work></rdf:RDF></metadata><defs
     id="defs6"><clipPath
       clipPathUnits="userSpaceOnUse"
       id="clipPath20"><path
         d="M 0,792 H 612 V 0 H 0 Z"
         id="path18" /></clipPath></defs><g
     id="g10"
     transform="matrix(1.3333333,0,0,-1.3333333,-9.5446702,730.38505)"><g
       transform="matrix(1.3405487,0,0,1.3316729,-94.971575,37.096113)"
       id="g14"><g
         id="g16"
         clip-path="url(#clipPath20)"><g
           id="g22"
           transform="translate(179.6323,296.8047)"><path
             d="M 0,0 C 1.825,3.302 5.244,-8.819 2.804,-16.95 0.304,-25.283 -4.362,-30.283 -6.821,-29.575 -9.506,-28.801 -6.696,-12.117 0,0 m 59.554,77.675 c -9.125,7.5 -37.162,4.081 -59.75,-1.5 -64.75,-16 -103.062,-45.25 -103.25,-68.25 -0.169,-20.821 20.71,-23.254 24.669,-23.529 0.366,-0.025 0.632,-0.327 0.639,-0.693 0.102,-5.327 2.442,-12.747 6.441,-12.796 4.157,-0.052 13.354,3.962 13.251,2.768 -0.437,-5.063 -1.25,-19.25 -1.25,-24.563 0,-5.312 2.813,-19.937 14.375,-20.062 11.563,-0.125 16.134,14.019 16.513,15.226 0.236,0.747 0.846,4.245 -0.388,4.274 -1.328,0.031 -2.524,-5.247 -4.677,-5.337 -9.906,-0.413 -5.854,34.071 -5.385,36.087 0.468,2.015 11.125,2.484 12.297,1.656 1.171,-0.828 0.5,-2.594 0.187,-3 -0.312,-0.406 -2.505,-0.739 -2.255,-1.739 0.232,-0.929 4.232,-1.028 6.771,0.796 0.216,-10.172 3.877,-16.715 9.875,-18.776 5.842,-2.007 19.286,-1.474 25.812,22.438 8.844,32.406 -6.979,33.77 -14.312,33.437 -7.333,-0.333 17.687,15.5 25.854,8.771 6.689,-5.511 -6.104,-32.458 -9.034,-40.583 -1.49,-4.131 -5.633,-23.683 4.367,-24.779 10,-1.096 15.75,13.404 16.75,18.779 1,5.375 -1.375,5 -2.125,5 -0.75,0 0.252,-5.206 -3.875,-5.25 -5.937,-0.063 5.168,27.235 7.063,35.375 1.271,5.458 -1.063,16 -10.563,19.5 -9.5,3.5 -33.75,6 -43.375,-6.75 -9.625,-12.75 5.713,-17.368 5.713,-17.368 0,0 0.009,0.005 0.012,0.007 -4.177,-3.136 -7.962,-7.576 -9.987,-13.557 -0.011,0.041 -0.019,0.086 -0.029,0.126 -1.917,7.292 -17.105,1 -16.959,1.917 3.084,19.375 13.404,31.514 14.205,32.424 0.576,0.654 2.285,0.608 2.788,0.988 3.038,2.291 -6.118,11.296 -14.701,10.171 -6.888,-0.903 -18.045,-38.472 -20.151,-45.777 -0.227,-0.787 -0.847,-1.447 -1.658,-1.57 -14.191,-2.153 -37.758,-2.432 -37.568,15.198 0.21,19.566 37.96,34.816 96.377,45.316 37.528,6.745 50.679,0.073 51.028,-5.705 0.372,-6.157 -6.032,-5.754 -4.802,-6.667 3.482,-2.586 10.274,3.872 12.232,8.622 1.446,3.507 8,21.875 -1.125,29.375"
             style="fill:#333333;fill-opacity:1;fill-rule:nonzero;stroke:none"
             id="path24" /></g><g
           id="g26"
           transform="translate(315.4365,343.7715)"><path
             d="m 0,0 c -8.167,-7 -13,-34.167 -14.333,-43 -1.334,-8.834 -2.042,-19.249 -7.834,-19.334 -5.708,-0.083 -4.712,12.65 -3.833,18.792 1.017,7.1 3.75,13.25 6.875,14.875 3.125,1.625 -7.464,7.362 -11.437,4.875 -6.83,-4.276 -13.818,-31.76 -7.417,-43.107 -0.509,-1.32 -1.452,-2.297 -3.104,-2.351 -5.084,-0.167 -5.25,21.583 3.083,43.333 0.322,0.84 2.417,1 2.667,2.417 0.25,1.416 -2.007,3.244 -4.5,4 -2.75,0.833 -7.48,0.052 -10.167,-5.417 -3.06,-6.227 -16.862,-39.687 -18.417,-39.667 -1.502,0.021 -8.75,45.917 6,51.417 2.963,1.104 -6.5,9.5 -10.583,8.333 -4.083,-1.166 -13.083,-13.083 -18.167,-32.333 -5.083,-19.25 -14.916,-62.25 3.334,-62.083 9.916,0.091 13.833,14.75 12,14.833 -1.834,0.083 -1.851,-3.772 -2.855,-3.75 -1.406,0.031 -5.229,4.708 -5.229,18.667 0,15.647 5.813,33.937 6.979,33.771 1.167,-0.167 -2.562,-30.813 0.813,-36.25 2.611,-4.207 7.542,-3.938 10.458,-2.771 2.917,1.166 -0.815,1.752 -0.341,2.648 1.32,2.498 6.303,16.937 7.747,20.703 0.082,0.216 0.404,0.147 0.389,-0.083 -0.313,-4.967 -4.003,-26.81 9.705,-26.685 7.855,0.071 10.033,5.736 10.434,10.85 1.693,-2.747 4.238,-4.45 7.858,-4.475 7.376,-0.051 10.715,6.077 11.708,5.958 0.521,-0.062 -4.208,-43.916 9.334,-43.916 14.506,0 14.666,15.166 13.5,15.416 C 3.5,-94.084 2.821,-98.06 1.333,-98.25 -0.937,-98.542 -8.083,-98 -4,-57.167 -0.491,-22.077 8.667,-7.167 12,-6.5 15.333,-5.834 4.12,3.531 0,0"
             style="fill:#333333;fill-opacity:1;fill-rule:nonzero;stroke:none"
             id="path28" /></g><g
           id="g30"
           transform="translate(354.5615,283.667)"><path
             d="M 0,0 C -2,0.646 5.937,19.625 9.5,17.25 13.063,14.875 2.33,-0.753 0,0 M 17.875,7.562 C 17.625,6.812 14.141,-1.913 8,-5.312 5.667,-6.604 0.708,-6.708 0.781,-4.219 c 0.073,2.499 15.342,7.448 16.503,22.095 0.352,4.436 -3.366,7.824 -7.066,9.903 19.439,16.329 19.431,28.159 19.44,32.403 0.023,12.089 -15.158,41.131 -69.116,39.589 -56.186,-1.605 -52.573,-24.438 -48.334,-41.5 3.334,-13.417 13.75,-12.25 13.792,-11.125 0.077,2.085 -4.14,-0.422 -5.292,4.625 -2.083,9.126 19.417,23.25 50.667,25.083 C 4.987,78.826 19.968,70.005 20.542,60.897 21.5,45.688 1.75,31.812 -18.125,26.437 c 0,0 8.167,30.834 14,31.001 5.833,0.166 -5.503,8.62 -10.667,8 -5.208,-0.625 -15.345,-22.75 -21.166,-51.744 -6.798,-33.854 -0.542,-45.923 6.833,-45.923 11.668,0 15.378,15.618 12.678,15.574 -2.022,-0.032 0.072,-3.782 -3.511,-3.907 -6.341,-0.221 -2.625,27.47 -2.362,29.395 0.008,0.064 0.054,0.105 0.12,0.107 0.666,0.028 4.487,0.851 10.837,4.091 -1.253,-6.251 -4.791,-27.71 9.613,-27.594 14.25,0.116 22.875,18.75 22.875,18.75 0,0 -3,4.126 -3.25,3.375"
             style="fill:#333333;fill-opacity:1;fill-rule:nonzero;stroke:none"
             id="path32" /></g><g
           id="g34"
           transform="translate(394.1865,293.6875)"><path
             d="m 0,0 c -1.583,-8.5 -7.208,-10.625 -8.125,-10.521 -0.917,0.105 -0.56,7.43 1.333,14.48 1.667,6.208 3.542,11.125 4.042,11.125 C -1.583,15.084 1.583,8.5 0,0 M 4.187,25.136 C 1.312,26.479 -6,28.417 -11.167,20.11 -12.054,18.685 -15.388,17.733 -17.355,14.304 -21.118,7.75 -27.833,-19.5 -8.833,-21 3.379,-21.964 8.391,-5.484 10.25,2.084 12.03,9.332 11.135,21.889 4.187,25.136"
             style="fill:#333333;fill-opacity:1;fill-rule:nonzero;stroke:none"
             id="path36" /></g><g
           id="g38"
           transform="translate(427.0615,298.042)"><path
             d="m 0,0 c -3.522,-2.771 -10.57,-11.207 -10.584,-10.844 -0.025,0.708 3.344,25.924 4.334,28.698 0.356,0.999 3.25,1.365 4.904,0.93 C 2.454,17.786 1.45,1.141 0,0 m -4.644,-13.229 c -1.534,0.667 2.852,5 2.852,5 -0.333,-0.625 -1.75,-5.479 -2.852,-5 M 47,49.563 c 1.115,-0.414 0.511,-7.871 -9.285,-18.027 -0.048,-0.051 -0.137,-0.001 -0.109,0.063 1.128,2.491 8.357,18.347 9.394,17.964 m -8.762,-69.294 c -1.363,0.106 -1.488,-3.574 -3.113,-3.581 -8.5,-0.042 -3.417,43.416 -0.667,45.791 2.75,2.375 28.667,28 12.667,35.5 -4.186,1.962 -9.454,4 -16.776,-11.311 C 26.792,39.229 23.969,31.172 19.625,15.756 19.271,14.501 16.5,12.594 15.5,12.563 14.74,12.539 16.792,23.729 8.292,26.312 0.836,28.578 -3,23.812 -4.75,23.75 c -0.757,-0.027 9.5,31.313 17.292,29.438 2.107,-0.507 3.083,-2.292 4,-1.459 1.365,1.242 -4.584,8.835 -10.042,8.834 -6.378,-0.002 -19.458,-15.834 -26.625,-52.334 -7.167,-36.5 -7.009,-61.786 4.5,-61.792 11.687,-0.005 14.875,15.063 12.312,15.063 -1.999,0 -1.231,-4.215 -2.641,-4.209 -4.921,0.021 -5.456,26.631 -4.546,26.647 0.428,0.007 0.75,-5.625 8.616,-5.589 6.563,0.03 13.592,5.297 16.634,27.588 0,0 2.625,3.251 3.125,2.501 0.5,-0.751 -9.129,-43.251 7.375,-43.251 12.188,0 13.985,15.003 12.988,15.082"
             style="fill:#333333;fill-opacity:1;fill-rule:nonzero;stroke:none"
             id="path40" /></g><g
           id="g42"
           transform="translate(479.749,315.4482)"><path
             d="M 0,0 C 3.031,-1.719 -6.5,-13.906 -6.5,-13.906 H -6.656 C -7.281,-13.594 -3.031,1.719 0,0 M 31.062,10.531 C 21.375,10.844 16.675,0.24 20.437,0.031 c 2.25,-0.125 0.75,3.313 3.5,3.063 2.75,-0.25 4.375,-9.438 -2.25,-19.563 -7.121,-10.883 -14.5,-12.25 -17.999,-12.375 -3.472,-0.124 -9.588,2.889 -10.236,10.074 -0.01,0.108 0.031,0.214 0.112,0.284 C -5.275,-17.49 2.395,-10.638 4,-2.688 5.312,3.813 0.219,9.906 -6.125,9.313 -12.042,8.759 -20.875,-2.094 -19.187,-19.11 c 1.942,-19.59 21.25,-18.484 21.25,-18.484 26.874,0.5 37.875,32.125 38,38.25 0.125,6.125 -3.878,9.71 -9.001,9.875"
             style="fill:#333333;fill-opacity:1;fill-rule:nonzero;stroke:none"
             id="path44" /></g><g
           id="g46"
           transform="translate(281.5835,555.9165)" /><g
           id="g50"
           transform="translate(271.5,547.6665)" /><g
           id="g54"
           transform="translate(325.375,553.375)" /><g
           id="g58"
           transform="translate(266.5,539.375)" /><g
           id="g62"
           transform="translate(278.25,535.75)" /><g
           id="g66"
           transform="translate(319,545.75)" /><g
           id="g70"
           transform="translate(314.625,539.1104)" /><g
           id="g74"
           transform="translate(309.125,528.9414)" /><g
           id="g78"
           transform="translate(298.25,528.9414)" /><g
           id="g82"
           transform="translate(306.9629,518.375)" /><g
           id="g86"
           transform="translate(293.6743,509.3335)" /><g
           id="g90"
           transform="translate(307.667,504.7012)" /><g
           id="g94"
           transform="translate(293.6743,497.6665)" /><g
           id="g98"
           transform="translate(311.167,479.3335)" /><g
           id="g102"
           transform="translate(294.4185,487.625)" /><g
           id="g106"
           transform="translate(269.25,481.25)" /><g
           id="g110"
           transform="translate(241.1665,458.5835)" /><g
           id="g114"
           transform="translate(294.4341,449.125)" /><g
           id="g118"
           transform="translate(284.25,423.375)" /><g
           id="g122"
           transform="translate(277.25,410)" /><g
           id="g126"
           transform="translate(309.75,452.25)" /><g
           id="g130"
           transform="translate(305.5283,439.5)" /><g
           id="g134"
           transform="translate(298.875,429.625)" /><g
           id="g138"
           transform="translate(293.375,423.3193)" /><g
           id="g142"
           transform="translate(287.0854,416.5)" /><g
           id="g146"
           transform="translate(279.375,408.5)" /></g></g></g></svg>
