<?xml version="1.0" encoding="UTF-8" standalone="no"?>
<svg
   xmlns:dc="http://purl.org/dc/elements/1.1/"
   xmlns:cc="http://creativecommons.org/ns#"
   xmlns:rdf="http://www.w3.org/1999/02/22-rdf-syntax-ns#"
   xmlns:svg="http://www.w3.org/2000/svg"
   xmlns="http://www.w3.org/2000/svg"
   xmlns:sodipodi="http://sodipodi.sourceforge.net/DTD/sodipodi-0.dtd"
   xmlns:inkscape="http://www.inkscape.org/namespaces/inkscape"
   sodipodi:docname="zerno.svg"
   inkscape:version="1.0 (4035a4fb49, 2020-05-01)"
   id="svg8"
   version="1.1"
   viewBox="0 0 60.70789 78.254517"
   height="78.254517mm"
   width="60.70789mm">
  <defs
     id="defs2">
    <pattern
       id="EMFhbasepattern"
       patternUnits="userSpaceOnUse"
       width="6"
       height="6"
       x="0"
       y="0" />
    <clipPath
       clipPathUnits="userSpaceOnUse"
       id="clipPath20">
      <path
         d="M 0,792 H 612 V 0 H 0 Z"
         id="path18" />
    </clipPath>
  </defs>
  <sodipodi:namedview
     inkscape:window-maximized="0"
     inkscape:window-y="0"
     inkscape:window-x="52"
     inkscape:window-height="1041"
     inkscape:window-width="1719"
     fit-margin-bottom="0"
     fit-margin-right="0"
     fit-margin-left="0"
     fit-margin-top="0"
     showgrid="false"
     inkscape:document-rotation="0"
     inkscape:current-layer="layer1"
     inkscape:document-units="mm"
     inkscape:cy="106.18829"
     inkscape:cx="72.240484"
     inkscape:zoom="1.979899"
     inkscape:pageshadow="2"
     inkscape:pageopacity="0.0"
     borderopacity="1.0"
     bordercolor="#666666"
     pagecolor="#ffffff"
     id="base" />
  <metadata
     id="metadata5">
    <rdf:RDF>
      <cc:Work
         rdf:about="">
        <dc:format>image/svg+xml</dc:format>
        <dc:type
           rdf:resource="http://purl.org/dc/dcmitype/StillImage" />
        <dc:title></dc:title>
      </cc:Work>
    </rdf:RDF>
  </metadata>
  <g
     transform="translate(-77.075639,-31.378201)"
     id="layer1"
     inkscape:groupmode="layer"
     inkscape:label="Слой 1">
    <g
       id="g16"
       clip-path="url(#clipPath20)"
       transform="matrix(0.47291577,0,0,-0.46978459,-35.449015,296.12682)">
      <g
         id="g22"
         transform="translate(179.6323,296.8047)" />
      <g
         id="g26"
         transform="translate(315.4365,343.7715)" />
      <g
         id="g30"
         transform="translate(354.5615,283.667)" />
      <g
         id="g34"
         transform="translate(394.1865,293.6875)" />
      <g
         id="g38"
         transform="translate(427.0615,298.042)" />
      <g
         id="g42"
         transform="translate(479.749,315.4482)" />
      <g
         id="g46"
         transform="translate(281.5835,555.9165)">
        <path
           d="m 0,0 c 0,0 3.5,-0.833 6.167,0 2.666,0.833 7,2.5 10,3.083 3,0.584 7.25,0.75 9.5,0.5 C 27.917,3.333 35,3.333 36.083,2.917 37.167,2.5 44.75,2.242 45.5,1.663 46.25,1.083 49,-0.824 49.75,-0.37 50.5,0.083 51.333,0.923 50.5,1.628 49.667,2.333 48,4.583 45.583,5.333 43.167,6.083 33.5,7.167 31.5,7.417 29.5,7.667 19.25,7.75 17.417,7.417 15.583,7.083 13.583,5.333 10.917,5.167 8.25,5 7,3.947 5.75,3.599 4.5,3.25 -0.833,1.75 0,0"
           style="fill:#f56f15;fill-opacity:1;fill-rule:nonzero;stroke:none"
           id="path48" />
      </g>
      <g
         id="g50"
         transform="translate(271.5,547.6665)">
        <path
           d="m 0,0 c -0.198,1.036 8.667,5.667 12.667,6.5 4,0.833 11.833,1.121 14.333,1.311 2.5,0.189 15.667,0.644 16.833,0 1.167,-0.644 0,-1.978 0,-1.978 0,0 -8.458,-0.75 -9.333,-0.75 C 33.625,5.083 27.25,4.561 25,4.072 22.75,3.583 17.5,3.958 15,2.708 12.5,1.458 9,1.458 7.25,0.583 5.5,-0.292 0.375,-1.958 0,0"
           style="fill:#f56f15;fill-opacity:1;fill-rule:nonzero;stroke:none"
           id="path52" />
      </g>
      <g
         id="g54"
         transform="translate(325.375,553.375)">
        <path
           d="m 0,0 c 0,0 8.25,-0.625 8.625,-1 0.375,-0.375 2.625,-1.375 3.25,-1.75 0.625,-0.375 3,-2 3.875,-2.875 0.875,-0.875 1.875,-2 1.25,-2.625 -0.625,-0.625 -5.125,1.255 -6.25,1.628 C 9.625,-6.25 8.236,-5.25 7.056,-4.875 5.875,-4.5 5.5,-3.625 4,-3.125 2.5,-2.625 -0.375,-1.875 0,0"
           style="fill:#f56f15;fill-opacity:1;fill-rule:nonzero;stroke:none"
           id="path56" />
      </g>
      <g
         id="g58"
         transform="translate(266.5,539.375)">
        <path
           d="m 0,0 c 0,0 1.25,0.75 1.75,1.25 0.5,0.5 2.5,2.375 4.125,2.875 1.625,0.5 2.875,1.5 4.125,2 1.25,0.5 7.625,1.625 10,2.375 2.375,0.75 11,1.249 13.25,1.312 2.25,0.063 15.5,1.813 15.5,0.688 C 48.75,9.375 47,6.625 45.875,6.75 44.75,6.875 40,7.63 36.75,7.378 33.5,7.125 25.75,5.623 24.375,5.624 23,5.625 17,4 16.25,3.75 15.5,3.5 12.25,1.875 8,-2.875 3.75,-7.625 -5.125,-9.5 -5.25,-7.75 c -0.125,1.75 2.125,4.125 5.375,5.125 3.25,1 5.5,1.5 5.5,2.25 C 5.625,0.375 0.5,-1 0,0"
           style="fill:#f56f15;fill-opacity:1;fill-rule:nonzero;stroke:none"
           id="path60" />
      </g>
      <g
         id="g62"
         transform="translate(278.25,535.75)">
        <path
           d="M 0,0 C -1,0.25 0.75,3.857 4.25,4.866 7.75,5.875 8.625,6.5 12,7 15.375,7.5 29,8.25 29.875,7.75 30.75,7.25 28.5,3.915 27.75,3.958 27,4 18.75,4 16.75,3.375 14.75,2.75 11.745,3.375 9.998,2.25 8.25,1.125 5.125,1.25 4.125,0.75 3.125,0.25 1.017,-0.254 0,0"
           style="fill:#f56f15;fill-opacity:1;fill-rule:nonzero;stroke:none"
           id="path64" />
      </g>
      <g
         id="g66"
         transform="translate(319,545.75)">
        <path
           d="M 0,0 C 0,0 2.25,2.874 2.5,3.437 2.75,4 7.375,1.812 8.5,1.718 9.625,1.625 21.375,-2.75 22.375,-3.625 c 1,-0.875 8.125,-7 9.125,-7.5 1,-0.5 5,-4.875 5.125,-5.625 0.125,-0.75 -10,5.875 -16.25,9.375 C 14.125,-3.875 1,-1.75 0,0"
           style="fill:#f56f15;fill-opacity:1;fill-rule:nonzero;stroke:none"
           id="path68" />
      </g>
      <g
         id="g70"
         transform="translate(314.625,539.1104)">
        <path
           d="M 0,0 C 0,0 0.875,3.515 2.125,3.765 3.375,4.015 5,3.015 5.75,2.89 c 0.75,-0.125 11.125,-2.5 15.75,-5 4.625,-2.5 19.875,-12.625 20.625,-18.625 0.75,-6 -6.5,4.125 -12.625,7.75 -6.125,3.625 -12.25,6.625 -13.75,7.375 -1.5,0.75 -6.375,3.625 -9.125,4.5 C 3.875,-0.235 2.125,-0.765 0,0"
           style="fill:#f56f15;fill-opacity:1;fill-rule:nonzero;stroke:none"
           id="path72" />
      </g>
      <g
         id="g74"
         transform="translate(309.125,528.9414)">
        <path
           d="m 0,0 c -0.803,0.094 1,5.934 2.5,5.434 1.5,-0.5 18.75,-7.625 27.125,-14.5 8.375,-6.875 21.75,-18 21.875,-19.25 0.125,-1.25 0.875,-5.5 0,-5.625 -0.875,-0.125 -10.875,7.375 -19.25,15.25 -8.375,7.875 -19.75,14.875 -19.75,14.875 0,0 -5.625,3.007 -12.5,3.816"
           style="fill:#f56f15;fill-opacity:1;fill-rule:nonzero;stroke:none"
           id="path76" />
      </g>
      <g
         id="g78"
         transform="translate(298.25,528.9414)">
        <path
           d="m 0,0 4,6.741 c 0,0 -18.683,-0.807 -24.279,-2.807 -5.596,-2 -15.481,-4 -16.726,-4.875 -1.245,-0.875 -2.87,-2.25 -3.12,-2.875 -0.25,-0.625 1.75,-1.75 9,0.75 7.25,2.5 19.875,6.211 20.625,5.105 0.75,-1.105 -17,-4.605 -19.375,-5.855 -2.375,-1.25 -12.25,-5.845 -14.25,-8.61 -2,-2.765 5.625,1.36 5.625,0.61 0,-0.75 -12.625,-10.625 -10.25,-12.25 2.375,-1.625 10.625,8.625 19.125,11 8.5,2.375 13,4.133 25.5,4.316 0,0 2.625,0.309 2.5,3.809 0,0 -16.047,0 -20.899,-1.75 C -27.375,-8.441 -20.75,-3.559 0,0"
           style="fill:#f56f15;fill-opacity:1;fill-rule:nonzero;stroke:none"
           id="path80" />
      </g>
      <g
         id="g82"
         transform="translate(306.9629,518.375)">
        <path
           d="m 0,0 c 0,0 -1.162,3.25 0,4.625 1.162,1.375 12.912,-3 22.912,-15.375 10,-12.375 31.625,-18.5 32.625,-20.25 1,-1.75 5.875,-8 -4.875,-4.875 -10.75,3.125 -21.875,9.125 -27,18.375 0,0 3,-11.5 8,-15.375 5,-3.875 12.125,-8.625 15.625,-9.5 3.5,-0.875 7.5,0.875 8,1 0.5,0.125 3.375,0 4,-5.5 0.625,-5.5 -4,-5.5 -6.375,-5 -2.375,0.5 -13.875,4.625 -20,11.5 C 26.787,-33.5 16.787,-15 14.787,-12.875 12.787,-10.75 12.088,-6.25 0,0"
           style="fill:#f56f15;fill-opacity:1;fill-rule:nonzero;stroke:none"
           id="path84" />
      </g>
      <g
         id="g86"
         transform="translate(293.6743,509.3335)">
        <path
           d="M 0,0 C 0,0 1.326,3.904 1.159,5.369 0.992,6.833 -12.341,6.667 -19.508,3.833 -26.674,1 -41.603,-7.667 -44.472,-10.833 c -2.869,-3.167 -2.369,-6.667 -1.369,-6.334 1,0.334 10.833,9.167 14.5,10.334 C -27.674,-5.667 -6.492,2.5 0,0"
           style="fill:#f56f15;fill-opacity:1;fill-rule:nonzero;stroke:none"
           id="path88" />
      </g>
      <g
         id="g90"
         transform="translate(307.667,504.7012)">
        <path
           d="m 0,0 -1.667,7.465 c 0,0 8.167,-1.764 11.5,-7.465 3.333,-5.701 16.254,-28.701 18.877,-30.701 2.623,-2 10.29,-10.834 17.956,-12.5 7.667,-1.667 9.5,-1.834 8.834,-3.667 -0.667,-1.833 -4.167,-6.833 -12.167,-2.667 -8,4.167 -23.333,23 -24,25.167 -0.667,2.167 -4.5,8.289 -6.5,11.811 C 10.833,-9.035 6,-3.132 0,0"
           style="fill:#f56f15;fill-opacity:1;fill-rule:nonzero;stroke:none"
           id="path92" />
      </g>
      <g
         id="g94"
         transform="translate(293.6743,497.6665)">
        <path
           d="M 0,0 C 0,0 1.674,6.088 0,6.211 -1.674,6.333 -15.174,7.167 -21.508,5.5 c -6.333,-1.667 -21.07,-8 -25.118,-18 0,0 11.118,9.5 16.452,11 5.333,1.5 15,4.667 20.5,3.5 C -4.174,0.833 0,0 0,0"
           style="fill:#f56f15;fill-opacity:1;fill-rule:nonzero;stroke:none"
           id="path96" />
      </g>
      <g
         id="g98"
         transform="translate(311.167,479.3335)">
        <path
           d="m 0,0 c 0,0 -1.979,15.5 -2.24,16.333 -0.26,0.834 1.573,1.5 8.24,-6.666 6.666,-8.167 15.959,-28.5 17.479,-30.834 1.521,-2.333 4.854,-8 11.021,-11 5.744,-2.794 9.666,-1.333 12.333,0 2.667,1.334 4.5,0.834 4.5,0 0,-0.833 -0.167,-6 -4.333,-7.833 -4.167,-1.833 -17.5,-1.167 -22.452,4.5 -7.282,8.333 -16.828,38.307 -21.09,40 0,0 2.875,-8.5 5.542,-14.667 2.666,-6.166 5,-20.833 7.5,-24 2.5,-3.166 9.5,-8.166 11.166,-8.666 1.667,-0.5 15.941,-2.667 17.971,-2.334 2.029,0.334 1.282,-3.166 -1.178,-4.166 -2.459,-1 -13.333,-2 -18.313,0 -4.98,2 -11.313,5.666 -13.146,9 C 11.166,-37 8.833,-30.5 7.833,-23 6.833,-15.5 2.166,-2 0,0"
           style="fill:#f56f15;fill-opacity:1;fill-rule:nonzero;stroke:none"
           id="path100" />
      </g>
      <g
         id="g102"
         transform="translate(294.4185,487.625)">
        <path
           d="m 0,0 c 0.082,0.375 -0.168,4.75 -0.543,5.5 -0.375,0.75 -8,4.5 -17,3.75 -9,-0.75 -25.125,-9 -31.125,-17.625 -6,-8.625 -9,-14 -7.375,-14.5 1.625,-0.5 2.125,-0.25 2.625,0 0.5,0.25 1.5,4.25 2.75,6 1.25,1.75 9.5,13.625 16.125,16.5 9.186,3.986 14.125,6.75 20.375,5.625 C -7.918,4.125 0,0 0,0"
           style="fill:#f56f15;fill-opacity:1;fill-rule:nonzero;stroke:none"
           id="path104" />
      </g>
      <g
         id="g106"
         transform="translate(269.25,481.25)">
        <path
           d="m 0,0 c 0,0 -0.625,3.625 0,4.625 0.625,1 9,4.25 13,3.625 4,-0.625 10.618,-3.125 12.184,-5.125 1.566,-2 1.762,-5 0.414,-5.25 -1.348,-0.25 -6.348,6.875 -10.723,7 C 10.5,5 8.125,5.75 0,0"
           style="fill:#f56f15;fill-opacity:1;fill-rule:nonzero;stroke:none"
           id="path108" />
      </g>
      <g
         id="g110"
         transform="translate(241.1665,458.5835)">
        <path
           d="m 0,0 c 0,0 4.346,5.34 5.882,7.712 1.535,2.371 5.951,6.705 8.618,7.955 2.667,1.25 5.5,1.666 7.083,3.416 1.584,1.75 5.334,8.917 4.667,9.667 C 25.583,29.5 16.083,23.716 12.521,20.535 8.958,17.354 -1.083,7.771 0,0"
           style="fill:#f56f15;fill-opacity:1;fill-rule:nonzero;stroke:none"
           id="path112" />
      </g>
      <g
         id="g114"
         transform="translate(294.4341,449.125)">
        <path
           d="M 0,0 C 0.441,-0.376 2.441,3.125 2.503,9.875 2.566,16.625 2.245,23.687 1.312,25 0.378,26.312 -5.184,33 -10.372,33.25 -15.559,33.5 -31.434,27.548 -44.247,15.336 -57.059,3.125 -55.372,-1.812 -54.497,-2.938 c 0.875,-1.124 4.188,-1.249 7.938,0.75 0,0 -2.311,-3.804 -3.209,-6.604 -0.871,-2.716 -1.083,-4.083 0.667,-7.333 1.75,-3.25 10.167,-13.5 11.333,-14.833 1.167,-1.334 7.241,-9.5 10.829,-11.584 3.588,-2.083 7.338,-2.75 8.588,-3.583 1.25,-0.833 2.167,0.333 1,1.333 -1.167,1 -9.083,6.25 -11.333,10.75 -2.25,4.5 -4.334,10.834 -6.167,12.75 -1.833,1.917 -8.698,9.581 -8.75,10.25 -0.167,2.167 8.167,13.438 8.917,15.469 0.75,2.031 0.916,1.031 0.333,1.531 -0.583,0.5 -2.833,-1.812 -3.5,-1.531 -0.667,0.281 12.083,11.743 17.167,12.743 5.083,1 8.75,-0.545 10.166,-3.378 1.417,-2.834 1.417,-18.834 1.917,-20.917 0.5,-2.083 1.75,-8.25 3,-8.917 1.25,-0.666 4.667,8 4.417,8.334 -0.25,0.333 -1.334,1.833 -1.667,6.166 -0.333,4.334 0.75,20.084 -4.5,23.167 -5.25,3.083 -13.878,0.75 -18.939,-3.25 -5.061,-4 -18.311,-15.75 -19.728,-14.5 -1.416,1.25 4.667,8 6.584,9.833 1.916,1.834 14.083,10.917 21.666,12.084 7.584,1.166 11.917,1 12.5,0.416 0.584,-0.583 3.25,-5.25 3.584,-13.25 C -1.351,4.958 -0.733,0.625 0,0"
           style="fill:#f56f15;fill-opacity:1;fill-rule:nonzero;stroke:none"
           id="path116" />
      </g>
      <g
         id="g118"
         transform="translate(284.25,423.375)">
        <path
           d="M 0,0 C 0,0 3.75,3.875 2.625,4.5 1.5,5.125 -0.875,13 -1,14.875 -1.125,16.75 -2.625,36 -3.875,37.5 c -1.25,1.5 -8.086,1.625 -12.23,-1.625 -4.145,-3.25 -10.52,-9.75 -12.02,-14.5 -1.5,-4.75 3.625,-2.861 4.375,-2.118 0.75,0.743 4.765,5.868 7.645,6.493 2.879,0.625 6.605,-0.375 7.605,-1.5 1,-1.125 1.625,-3.75 1.625,-9.375 C -6.875,9.25 -0.816,-0.896 0,0"
           style="fill:#f56f15;fill-opacity:1;fill-rule:nonzero;stroke:none"
           id="path120" />
      </g>
      <g
         id="g122"
         transform="translate(277.25,410)">
        <path
           d="M 0,0 C 0,0 3.375,5.875 3.5,6.625 3.625,7.375 0.875,11.889 0.75,13.319 0.625,14.75 -1.37,36.288 -6.517,35.875 -12.75,35.375 -14.315,29.578 -13.375,23 -12.25,15.125 -10.5,10.75 0,0"
           style="fill:#f56f15;fill-opacity:1;fill-rule:nonzero;stroke:none"
           id="path124" />
      </g>
      <g
         id="g126"
         transform="translate(309.75,452.25)">
        <path
           d="M 0,0 C 0,0 1.677,10.435 2,12.211 2.333,14.045 3.5,13.625 4.625,7 5.75,0.375 10.25,-16.75 17.5,-20.75 c 7.25,-4 13.5,-8.25 24.5,-5.5 0,0 4.5,-4.125 0,-6.625 -4.5,-2.5 -22.375,-0.25 -28.25,5.875 C 7.875,-20.875 1.75,-12.875 0,0"
           style="fill:#f56f15;fill-opacity:1;fill-rule:nonzero;stroke:none"
           id="path128" />
      </g>
      <g
         id="g130"
         transform="translate(305.5283,439.5)">
        <path
           d="m 0,0 c -0.259,0.991 1.847,4.25 2.347,4.375 0.5,0.125 4.75,-13.125 9.375,-18.125 4.625,-5 10.625,-9.875 19.75,-9.875 9.125,0 9,-2.75 9,-2.75 0,0 -13.875,-3.75 -22.875,2.75 C 8.597,-17.125 2.653,-10.125 0,0"
           style="fill:#f56f15;fill-opacity:1;fill-rule:nonzero;stroke:none"
           id="path132" />
      </g>
      <g
         id="g134"
         transform="translate(298.875,429.625)">
        <path
           d="m 0,0 c 0,0 4.25,7 4.5,6.5 0.25,-0.5 8.375,-17.75 12.875,-20 4.5,-2.25 17.903,-8.75 19.452,-8.75 1.548,0 1.148,-2.625 -3.277,-2.875 -4.425,-0.25 -16.175,1.75 -20.925,6.875 C 7.875,-13.125 -0.479,-0.781 0,0"
           style="fill:#f56f15;fill-opacity:1;fill-rule:nonzero;stroke:none"
           id="path136" />
      </g>
      <g
         id="g138"
         transform="translate(293.375,423.3193)">
        <path
           d="m 0,0 c 0,0 3.625,5.562 4.375,4.621 0.75,-0.94 5.25,-11.19 10.375,-15.19 5.125,-4 18.25,-10.625 18.75,-11 0.5,-0.375 -1.5,-2.875 -5.625,-2.25 -4.125,0.625 -16,5.75 -18,8.125 C 7.875,-13.319 0.375,-2.556 0,0"
           style="fill:#f56f15;fill-opacity:1;fill-rule:nonzero;stroke:none"
           id="path140" />
      </g>
      <g
         id="g142"
         transform="translate(287.0854,416.5)">
        <path
           d="M 0,0 C 0,0 2.915,3.5 3.665,3 4.415,2.5 15.54,-9.625 14.29,-11.5 13.04,-13.375 5.46,-11.875 0,0"
           style="fill:#f56f15;fill-opacity:1;fill-rule:nonzero;stroke:none"
           id="path144" />
      </g>
      <g
         id="g146"
         transform="translate(279.375,408.5)">
        <path
           d="m 0,0 c 0,0 2.343,4.125 2.984,3.438 0.641,-0.688 6.266,-6.355 9.141,-7.459 2.875,-1.104 10,-2.479 12.5,-2.354 2.5,0.125 5.375,-2.2 5.75,-2.725 0.375,-0.525 2.075,-2.15 0.413,-2.4 C 29.125,-11.75 7.25,-10 0,0"
           style="fill:#f56f15;fill-opacity:1;fill-rule:nonzero;stroke:none"
           id="path148" />
      </g>
    </g>
    <path
       transform="matrix(0.26458333,0,0,0.26458333,77.075639,31.378201)"
       id="path1121"
       d="M 197.24686,53.761875 C 177.60044,41.97613 177.58111,41.967444 158.69404,36.444059 c -9.37288,-2.74103 -13.2175,-4.127351 -13.2175,-4.766068 0,-0.130982 0.99279,-1.586757 2.2062,-3.235055 l 2.2062,-2.996907 4.23352,1.486826 c 2.32844,0.817755 5.20252,1.712798 6.38684,1.988986 2.44477,0.570127 16.56432,5.781712 20.9571,7.735355 1.75132,0.778883 5.36626,3.369882 9.09137,6.516221 3.40121,2.872762 7.20679,5.990913 8.45686,6.929223 4.39317,3.29756 11.47248,10.629508 10.26218,10.628416 -0.22726,-2.05e-4 -5.64073,-3.136337 -12.02995,-6.969181 z"
       style="fill:#f56f15;fill-opacity:1;stroke-width:3.56019" />
  </g>
</svg>
