<?xml version="1.0" standalone="no"?>
<!DOCTYPE svg PUBLIC "-//W3C//DTD SVG 1.1//EN" "http://www.w3.org/Graphics/SVG/1.1/DTD/svg11.dtd" >
<svg xmlns="http://www.w3.org/2000/svg" xmlns:xlink="http://www.w3.org/1999/xlink" version="1.1">
<metadata>
Created by FontForge 20170910 at Sun Mar 18 17:30:32 2018
 By Jimmy Wärting
</metadata>
<defs>
<font id="Axiom16Full" horiz-adv-x="1024" >
  <font-face 
    font-family="Axiom16Full"
    font-weight="400"
    font-stretch="normal"
    units-per-em="1024"
    panose-1="0 0 0 0 0 0 0 0 0 0"
    ascent="960"
    descent="-64"
    bbox="-58 -114 1376 989"
    underline-thickness="0"
    underline-position="0"
    unicode-range="U+0001-FFFD"
  />
<missing-glyph horiz-adv-x="0" 
d="M0 0v0v0v0z" />
    <glyph glyph-name=".notdef" horiz-adv-x="0" 
d="M0 0v0v0v0z" />
    <glyph glyph-name="space" unicode=" " horiz-adv-x="512" 
d="M0 0v0v0v0z" />
    <glyph glyph-name="uni0001" horiz-adv-x="0" 
d="M0 0v0v0v0z" />
    <glyph glyph-name="uni26A1" unicode="&#x26a1;" horiz-adv-x="640" 
d="M640 512h-256l192 448l-576 -576h256l-192 -448z" />
    <glyph glyph-name="uniE003" unicode="&#xe003;" 
d="M706 398v98h-146v146h-96v-146h-146v-98h146v-147h96v147h146v0zM848 213l103 -103v-53h-878v53l103 103v283q0 59 19 113q20 53 54.5 96.5t81.5 73.5q48 31 103 44v34q0 33 22.5 55.5t55.5 22.5t55.5 -22.5t22.5 -55.5v-34q55 -13 103 -44q47 -30 81.5 -73.5t54.5 -96.5
q19 -54 19 -113v-283zM416 9h192q0 -39 -28.5 -68.5t-67.5 -29.5t-67.5 29.5t-28.5 68.5z" />
    <glyph glyph-name="uniE023" unicode="&#xe023;" 
d="M487 596q0 50 37 86t87 36q51 0 87 -36t36 -86t-36 -86.5t-87 -36.5q-50 0 -87 36.5t-37 86.5zM297 910q-30 -30 -54 -66q-24 -35 -41 -75t-26 -84q-8 -43 -8 -89t8 -89q9 -44 26 -84t41 -75q24 -36 54 -66l-69 -70q-37 37 -66 80q-30 43 -50.5 92t-32.5 102
q-11 54 -11 110t11 110q12 53 32.5 101.5t50.5 92.5q29 43 66 80zM759 53q40 0 68.5 29.5t28.5 69.5h100q0 -41 -16 -76q-15 -36 -41.5 -63t-62.5 -42t-77 -15q-20 0 -41 3.5t-40 12.5q-50 26 -81.5 67t-54.5 109q-12 36 -33 57.5t-50 43.5q-33 24 -70.5 59t-70.5 96
q-26 47 -39.5 96t-13.5 96q0 73 27 136q26 63 73 109t110 73q64 26 136 26q73 0 136 -26q63 -27 109.5 -73t72.5 -109q27 -63 27 -136h-100q0 52 -18 97q-19 45 -52 78.5t-78 52.5t-97 19t-97 -19t-78.5 -52.5t-52.5 -78.5t-19 -97q0 -35 10 -73t29 -73q26 -48 56 -75
t60 -50q35 -26 67 -58t51 -89q19 -56 38 -79t45 -37q7 -3 18 -6t21 -3v0z" />
    <glyph glyph-name="uniE03E" unicode="&#xe03e;" 
d="M903 448v194h-782v-194h585v98h99v-98h98v0zM267 57q60 0 103.5 43t43.5 103t-43.5 103.5t-103.5 43.5t-103 -43.5t-43 -103.5t43 -103t103 -43zM85 734l617 251l32 -82l-403 -162h572q41 0 68.5 -29t27.5 -70v-585q0 -39 -27.5 -67.5t-68.5 -28.5h-782q-41 0 -68.5 28.5
t-27.5 67.5v585q0 31 16 56t44 36v0z" />
    <glyph glyph-name="uniE03F" unicode="&#xe03f;" 
d="M536 215v35q0 26 -23 45q-23 20 -55.5 33t-68.5 20q-36 6 -62 6t-62 -6q-36 -7 -69 -20t-55 -33q-23 -19 -23 -45v-35h418v0zM327 646q-43 0 -74 -31t-31 -73q0 -43 31 -74t74 -31q42 0 73 31t31 74q0 42 -31 73t-73 31zM606 773q19 0 32 -13.5t13 -32.5v-558
q0 -19 -13 -32.5t-32 -13.5h-558q-20 0 -34 13.5t-14 32.5v558q0 19 14 32.5t34 13.5h558v0zM745 123v650h92v-650h-92zM930 773h94v-650h-94v650z" />
    <glyph glyph-name="uniE0BA" unicode="&#xe0ba;" 
d="M726 234v64q0 27 -23 47q-24 20 -57 33.5t-70 20.5t-64 7t-64 -7q-37 -6 -70 -19.5t-57 -34.5q-23 -20 -23 -47v-64h428zM512 672q-39 0 -67.5 -28.5t-28.5 -67.5t28.5 -67.5t67.5 -28.5t67.5 28.5t28.5 67.5t-28.5 67.5t-67.5 28.5zM854 790q34 0 59 -25.5t25 -60.5
v-512q0 -34 -24.5 -60t-59.5 -26h-684q-34 0 -59 25.5t-25 60.5v512q0 34 24.5 60t59.5 26h684zM170 -64v86h684v-86h-684zM854 960v-86h-684v86h684z" />
    <glyph glyph-name="uniE0CF" unicode="&#xe0cf;" 
d="M762 362q-7 19 -11.5 41t-4.5 45q0 22 4 44t12 42h70l64 84l-84 86q-42 -31 -72.5 -74t-45.5 -96q-6 -21 -9 -42t-3 -44q0 -22 3 -43.5t9 -42.5q15 -51 45.5 -94.5t72.5 -75.5l84 86l-64 84h-70zM598 192v42q0 32 -28 57t-68 41.5t-84 24.5q-44 9 -76 9t-76 -9
q-44 -8 -84 -24.5t-68 -41.5t-28 -57v-42h512zM342 704q-52 0 -90 -37.5t-38 -90.5q0 -52 37.5 -90t90.5 -38q52 0 90 37.5t38 90.5q0 52 -37.5 90t-90.5 38zM938 832q34 0 60 -25.5t26 -60.5v-596q0 -34 -25.5 -60t-60.5 -26h-852q-34 0 -60 25.5t-26 60.5v596
q0 34 25.5 60t60.5 26h852z" />
    <glyph glyph-name="uniE0D0" unicode="&#xe0d0;" 
d="M938 448v256h-340v-256h340zM598 192v42q0 32 -28 57t-68 41.5t-84 24.5q-44 9 -76 9t-76 -9q-44 -8 -84 -24.5t-68 -41.5t-28 -57v-42h512zM342 704q-52 0 -90 -37.5t-38 -90.5q0 -52 37.5 -90t90.5 -38q52 0 90 37.5t38 90.5q0 52 -37.5 90t-90.5 38zM938 832
q34 0 60 -25.5t26 -60.5v-596q0 -34 -25.5 -60t-60.5 -26h-852q-34 0 -60 25.5t-26 60.5v596q0 34 25.5 60t60.5 26h852zM896 618l-128 -84l-128 84v44l128 -86l128 86v-44z" />
    <glyph glyph-name="uniE151" unicode="&#xe151;" 
d="M512 334l423 264l-423 248l-423 -248zM1024 588v-512q0 -41 -29.5 -72t-71.5 -31h-822q-42 0 -71.5 31t-29.5 72v512q0 27 13 52t35 37l464 272l464 -272q22 -12 35 -37t13 -52v0z" />
    <glyph glyph-name="uniE194" unicode="&#xe194;" 
d="M76 794l65 65l807 -808l-65 -65l-295 294v-190l103 -77v-77l-180 50l-178 -50v77l101 77v281l-409 -127v101l306 192zM588 602l411 -257v-101l-164 50l-401 402v187q0 33 22 55t55 22q32 0 54.5 -22t22.5 -55v-281v0z" />
    <glyph glyph-name="uniE1E0" unicode="&#xe1e0;" 
d="M657 658h192v-195h-48v-94q0 -41 -28 -69.5t-69 -28.5h-145v-147q26 -13 42.5 -38.5t16.5 -56.5q0 -44 -31 -75t-75 -31t-75 31t-31 75q0 31 16.5 56.5t42.5 38.5v147h-145q-41 0 -69 28.5t-28 69.5v99q-26 14 -42.5 38t-16.5 55q0 44 31 75t75 31t75 -31t31 -75
q0 -31 -15.5 -55t-40.5 -38v-99h145v384h-98l145 194l145 -194h-98v-384h145v94h-47v195v0z" />
    <glyph glyph-name="uniE228" unicode="&#xe228;" 
d="M909 504v341h-341v-341h341v0zM909 51v341h-341v-341h341v0zM456 504v341h-341v-341h341zM456 51v341h-341v-341h341v0zM0 960h1024v-1024h-1024v1024z" />
    <glyph glyph-name="uniE229" unicode="&#xe229;" 
d="M115 277v-114h-115v114h115zM0 -64v115h1024v-115h-1024zM115 504v-112h-115v112h115zM909 619v114h115v-114h-115zM909 960h115v-115h-115v115zM115 733v-114h-115v114h115zM909 163v114h115v-114h-115zM909 392v112h115v-112h-115zM797 960v-115h-114v115h114zM568 960
v-115h-112v115h112zM797 504v-112h-114v112h114zM568 733v-114h-112v114h112zM115 960v-115h-115v115h115zM568 504v-112h-112v112h112zM341 960v-115h-114v115h114zM568 277v-114h-112v114h112zM341 504v-112h-114v112h114z" />
    <glyph glyph-name="uniE22A" unicode="&#xe22a;" 
d="M683 845v115h114v-115h-114zM683 392v112h114v-112h-114zM683 -64v115h114v-115h-114zM456 845v115h112v-115h-112zM909 960h115v-115h-115v115zM456 619v114h112v-114h-112zM909 619v114h115v-114h-115zM909 -64v115h115v-115h-115zM909 392v112h115v-112h-115zM909 163
v114h115v-114h-115zM456 392v112h112v-112h-112zM0 845v115h115v-115h-115zM0 619v114h115v-114h-115zM0 392v112h115v-112h-115zM0 163v114h115v-114h-115zM0 -64v115h115v-115h-115zM456 -64v115h112v-115h-112zM456 163v114h112v-114h-112zM227 -64v115h114v-115h-114z
M227 392v112h114v-112h-114zM227 845v115h114v-115h-114z" />
    <glyph glyph-name="uniE22C" unicode="&#xe22c;" 
d="M909 -64v115h115v-115h-115zM683 -64v115h114v-115h-114zM456 163v114h112v-114h-112zM909 619v114h115v-114h-115zM909 960h115v-115h-115v115zM0 392v112h1024v-112h-1024zM456 -64v115h112v-115h-112zM909 163v114h115v-114h-115zM568 960v-115h-112v115h112zM568 733
v-114h-112v114h112zM797 960v-115h-114v115h114zM341 960v-115h-114v115h114zM115 960v-115h-115v115h115zM227 -64v115h114v-115h-114zM0 163v114h115v-114h-115zM115 733v-114h-115v114h115zM0 -64v115h115v-115h-115z" />
    <glyph glyph-name="uniE22D" unicode="&#xe22d;" 
d="M909 163v114h115v-114h-115zM909 -64v115h115v-115h-115zM568 960v-456h456v-112h-456v-456h-112v456h-456v112h456v456h112zM683 -64v115h114v-115h-114zM909 960h115v-115h-115v115zM909 619v114h115v-114h-115zM797 960v-115h-114v115h114zM115 960v-115h-115v115h115
zM341 960v-115h-114v115h114zM0 163v114h115v-114h-115zM115 733v-114h-115v114h115zM227 -64v115h114v-115h-114zM0 -64v115h115v-115h-115z" />
    <glyph glyph-name="uniE22E" unicode="&#xe22e;" 
d="M683 845v115h114v-115h-114zM683 392v112h114v-112h-114zM909 -64v115h115v-115h-115zM909 392v112h115v-112h-115zM909 960h115v-115h-115v115zM909 163v114h115v-114h-115zM683 -64v115h114v-115h-114zM909 619v114h115v-114h-115zM0 -64v1024h115v-1024h-115zM227 392
v112h114v-112h-114zM227 845v115h114v-115h-114zM227 -64v115h114v-115h-114zM456 392v112h112v-112h-112zM456 619v114h112v-114h-112zM456 845v115h112v-115h-112zM456 163v114h112v-114h-112zM456 -64v115h112v-115h-112z" />
    <glyph glyph-name="uniE22F" unicode="&#xe22f;" 
d="M341 504v-112h-114v112h114zM568 277v-114h-112v114h112zM909 51v794h-794v-794h794zM0 960h1024v-1024h-1024v1024zM797 504v-112h-114v112h114zM568 504v-112h-112v112h112zM568 733v-114h-112v114h112z" />
    <glyph glyph-name="uniE230" unicode="&#xe230;" 
d="M456 619v114h112v-114h-112zM456 845v115h112v-115h-112zM456 392v112h112v-112h-112zM683 845v115h114v-115h-114zM683 -64v115h114v-115h-114zM909 960h115v-1024h-115v1024zM683 392v112h114v-112h-114zM456 163v114h112v-114h-112zM0 619v114h115v-114h-115zM0 163
v114h115v-114h-115zM0 392v112h115v-112h-115zM456 -64v115h112v-115h-112zM0 -64v115h115v-115h-115zM227 392v112h114v-112h-114zM227 845v115h114v-115h-114zM0 845v115h115v-115h-115zM227 -64v115h114v-115h-114z" />
    <glyph glyph-name="uniE231" unicode="&#xe231;" 
d="M909 619v114h115v-114h-115zM0 960h1024v-115h-909v-909h-115v1024v0zM909 392v112h115v-112h-115zM909 163v114h115v-114h-115zM456 -64v115h112v-115h-112zM227 -64v115h114v-115h-114zM909 -64v115h115v-115h-115zM683 -64v115h114v-115h-114z" />
    <glyph glyph-name="uniE232" unicode="&#xe232;" 
d="M683 392v112h114v-112h-114zM909 -64v115h115v-115h-115zM456 619v114h112v-114h-112zM683 -64v115h114v-115h-114zM909 163v114h115v-114h-115zM0 960h1024v-115h-1024v115zM909 392v112h115v-112h-115zM909 619v114h115v-114h-115zM456 163v114h112v-114h-112zM0 619
v114h115v-114h-115zM0 392v112h115v-112h-115zM0 -64v115h115v-115h-115zM0 163v114h115v-114h-115zM456 -64v115h112v-115h-112zM456 392v112h112v-112h-112zM227 392v112h114v-112h-114zM227 -64v115h114v-115h-114z" />
    <glyph glyph-name="uniE233" unicode="&#xe233;" 
d="M683 392v112h114v-112h-114zM683 -64v115h114v-115h-114zM683 845v115h114v-115h-114zM909 619v114h115v-114h-115zM909 960h115v-115h-115v115zM909 392v112h115v-112h-115zM909 -64v115h115v-115h-115zM456 -64v1024h112v-1024h-112zM909 163v114h115v-114h-115z
M227 845v115h114v-115h-114zM0 163v114h115v-114h-115zM0 -64v115h115v-115h-115zM0 392v112h115v-112h-115zM227 392v112h114v-112h-114zM227 -64v115h114v-115h-114zM0 845v115h115v-115h-115zM0 619v114h115v-114h-115z" />
    <glyph glyph-name="uniE23A" unicode="&#xe23a;" 
d="M0 106h1024v-170h-1024v170zM810 470l43 -54t43 -96q0 -34 -25.5 -60t-60.5 -26q-34 0 -59 25.5t-25 60.5q0 42 42 96zM222 534h410l-206 204zM706 578q19 -19 19 -45.5t-19 -44.5l-234 -234q-9 -9 -21.5 -14.5t-24.5 -5.5t-23.5 5.5t-20.5 14.5l-236 234q-19 18 -19 44
t19 46l220 220l-102 102l62 60z" />
    <glyph glyph-name="uniE25E" unicode="&#xe25e;" 
d="M451 413h122l-61 179zM593 354h-164l-32 -91h-77l159 418h66l157 -418h-75zM837 773h93v93h-93v-93v0zM930 30v93h-93v-93h93zM745 123v92h92v466h-92v92h-466v-92h-92v-466h92v-92h466zM187 30v93h-93v-93h93zM94 866v-93h93v93h-93zM1024 681h-94v-466h94v-279h-279v94
h-466v-94h-279v279h94v466h-94v279h279v-94h466v94h279v-279z" />
    <glyph glyph-name="uniE32A" unicode="&#xe32a;" 
d="M512 960l418 -187v-279q0 -97 -31 -188q-32 -91 -88 -165.5t-133 -128.5q-76 -54 -166 -76q-90 22 -166 76q-77 54 -133 128.5t-88 165.5q-31 91 -31 188v279zM512 448v-416q65 20 120 61t97.5 95.5t70.5 121.5q28 66 37 138h-325v0zM512 448v410l-325 -144v-266h325v0z
" />
    <glyph glyph-name="uniE32B" unicode="&#xe32b;" 
d="M769 294v204h-103v-204h103zM562 398v100h-100v-100h100zM562 90v204h-100v-204h100zM358 294v204h-103v-204h103zM769 90v101h-103v-101h103zM358 90v101h-103v-101h103zM921 859l2 -822q0 -42 -31 -71.5t-72 -29.5h-616q-41 0 -72 29.5t-31 71.5v615l308 308h411
q41 0 71 -29.5t30 -71.5v0z" />
    <glyph glyph-name="uniE3E8" unicode="&#xe3e8;" 
d="M837 30v93h93q0 -37 -28 -65t-65 -28v0zM837 402v92h93v-92h-93v0zM651 773v93h94v-93h-94v0zM837 215v94h93v-94h-93v0zM466 -64v1024h92v-1024h-92v0zM837 866q37 0 65 -28t28 -65h-93v93v0zM94 773q0 37 28 65t65 28h186v-93h-186v-650h186v-93h-186q-37 0 -65 28
t-28 65v650v0zM837 587v94h93v-94h-93v0zM651 30v93h94v-93h-94v0z" />
    <glyph glyph-name="uniE3E9" unicode="&#xe3e9;" 
d="M938 474v320h-745v-320h105v-105h107v-108h108v108h105v-108h107v108h108v105h105zM833 101v108h-108v-108h108zM618 101v108h-105v-108h105zM405 101v108h-107v-108h107zM938 901q43 0 75 -32t32 -75v-745q0 -43 -32 -75.5t-75 -32.5h-745q-43 0 -75.5 32.5t-32.5 75.5
v745q0 43 32.5 75t75.5 32h745zM298 581h107v-107h-107v107zM725 581h108v-107h-108v107zM513 581h105v-107h107v-105h-107v105h-105v-105h-108v105h108v107zM833 369v-108h105v108h-105zM298 369h-105v-108h105v108z" />
    <glyph glyph-name="uniE3EB" unicode="&#xe3eb;" 
d="M709 82h70l-70 70v-70zM615 82v166l-27 28h-167v-194h194zM328 370v165l-28 28h-166v-193h194v0zM328 82v194h-194v-194h194zM134 727v-70h69zM421 440v-70h71zM4 980l1029 -1027l-61 -62l-96 97h-742q-39 0 -67 28t-28 66v742l-97 95zM719 860v-193h194v193h-194v0z
M328 850h-71l-97 95h743q38 0 66.5 -28t28.5 -67v-741l-95 97v70h-69l-97 94h166v193h-194v-166l-94 96v70h-70l-96 94h166v193h-194v-166l-93 97v69v0z" />
    <glyph glyph-name="uniE3EC" unicode="&#xe3ec;" 
d="M922 654v195h-206v-195h206zM922 365v194h-206v-194h206zM922 75v195h-206v-195h206zM615 654v195h-207v-195h207zM615 365v194h-207v-194h207zM615 75v195h-207v-195h207zM307 654v195h-206v-195h206zM307 365v194h-206v-194h206zM307 75v195h-206v-195h206zM922 944
q41 0 71 -27.5t30 -67.5v-774q0 -38 -29.5 -66.5t-71.5 -28.5h-821q-41 0 -71 27.5t-30 67.5v774q0 38 29.5 66.5t71.5 28.5h821z" />
    <glyph glyph-name="uniE52F" unicode="&#xe52f;" 
d="M810 86q61 0 105.5 43t44.5 105q0 61 -44 105.5t-106 44.5q-61 0 -104.5 -44t-43.5 -106q0 -61 43 -104.5t105 -43.5zM810 448q45 0 84 -17q39 -16 68 -45t45 -68q17 -39 17 -84t-17 -84q-16 -38 -45 -66.5t-68 -45.5q-39 -16 -84 -16t-84 16q-38 16 -66.5 44.5
t-45.5 67.5q-16 39 -16 84t16 84t44.5 68t67.5 45q39 17 84 17zM460 512l94 -98v-264h-84v212l-138 120q-13 9 -18.5 24.5t-5.5 35.5q0 16 5 31t19 29l120 120q9 13 24.5 18.5t35.5 5.5q19 0 35 -5t33 -19l82 -82q28 -28 66 -46t86 -18v-86q-67 0 -120.5 24t-95.5 66l-34 34
zM214 86q61 0 104.5 43t43.5 105q0 61 -43 105.5t-105 44.5q-61 0 -105.5 -44t-44.5 -106q0 -61 44 -104.5t106 -43.5zM214 448q45 0 84 -17q38 -16 66.5 -45t45.5 -68q16 -39 16 -84t-16 -84q-16 -38 -44.5 -66.5t-67.5 -45.5q-39 -16 -84 -16t-84 16t-68 44.5t-45 67.5
q-17 39 -17 84t17 84q16 39 45 68t68 45q39 17 84 17zM662 726q-34 0 -60 24.5t-26 59.5q0 34 25.5 60t60.5 26q34 0 59 -25.5t25 -60.5q0 -34 -24.5 -59t-59.5 -25z" />
    <glyph glyph-name="uniE530" unicode="&#xe530;" 
d="M836 469v271h-648v-271h648zM755 145q34 0 57.5 23.5t23.5 57.5q0 35 -23.5 58t-57.5 23t-57.5 -23t-23.5 -58q0 -34 23.5 -57.5t57.5 -23.5zM269 145q34 0 57.5 23.5t23.5 57.5q0 35 -23.5 58t-57.5 23t-57.5 -23t-23.5 -58q0 -34 23.5 -57.5t57.5 -23.5zM80 201v539
q0 71 34 113q34 43 92.5 65.5t137.5 29.5t168 7t168 -7t137.5 -29.5t92.5 -65.5q34 -42 34 -113v-539q0 -36 -15.5 -67.5t-39.5 -53.5v-96q0 -23 -15.5 -38t-37.5 -15h-53q-23 0 -39.5 15t-16.5 38v55h-430v-55q0 -23 -16.5 -38t-39.5 -15h-53q-22 0 -37.5 15t-15.5 38v96
q-24 22 -39.5 53.5t-15.5 67.5v0z" />
    <glyph glyph-name="uniE532" unicode="&#xe532;" 
d="M237 723v-183l275 90l275 -90v183h-550zM143 128l-86 305q-8 23 3 38t27 20l58 19v213q0 37 27.5 64.5t64.5 27.5h138v137h274v-137h138q37 0 64.5 -27.5t27.5 -64.5v-213l58 -19q16 -5 27 -20t3 -38l-86 -305h-2q-55 0 -103 26t-82 64q-33 -38 -80 -64t-102 -26t-102 26
t-80 64q-34 -38 -82 -64t-103 -26h-2v0zM879 36h90v-92h-90q-47 0 -94 11t-91 34q-43 -23 -89 -34t-93 -11t-93 11t-89 34q-44 -23 -91 -34t-94 -11h-90v92h90q48 0 95.5 15.5t89.5 44.5q41 -29 88 -44q47 -14 94 -14t94 14q47 15 88 44q42 -29 89.5 -44.5t95.5 -15.5v0z
" />
    <glyph glyph-name="uniE534" unicode="&#xe534;" 
d="M819 487v254h-614v-254h614zM512 127q41 0 72 31t31 73q0 41 -31 72t-72 31t-72 -31t-31 -72q0 -42 31 -73t72 -31zM102 204v537q0 68 32 108q33 41 88.5 63t130.5 29q74 7 159 7t159 -7q75 -7 130.5 -29t88.5 -63q32 -40 32 -108v-537q0 -74 -53 -125.5t-127 -51.5
l77 -77v-26h-614v26l77 77q-74 0 -127 51.5t-53 125.5v0z" />
    <glyph glyph-name="uniE535" unicode="&#xe535;" 
d="M836 469v271h-271v-271h271zM755 145q34 0 57.5 23.5t23.5 57.5q0 35 -23.5 58t-57.5 23t-57.5 -23t-23.5 -58q0 -34 23.5 -57.5t57.5 -23.5zM459 469v271h-271v-271h271zM269 145q34 0 57.5 23.5t23.5 57.5q0 35 -23.5 58t-57.5 23t-57.5 -23t-23.5 -58
q0 -34 23.5 -57.5t57.5 -23.5zM512 955q89 0 168 -7t137.5 -29.5t92.5 -65.5q34 -42 34 -113v-514q0 -77 -56 -132t-133 -55l81 -81v-27h-648v27l81 81q-77 0 -133 55t-56 132v514q0 71 34 113q34 43 92.5 65.5t137.5 29.5t168 7v0z" />
    <glyph glyph-name="uniE53D" unicode="&#xe53d;" 
d="M999 244l-411 127v-281l103 -77v-77l-180 50l-178 -50v77l101 77v281l-409 -127v101l409 257v281q0 33 22 55t55 22q32 0 54.5 -22t22.5 -55v-281l411 -257v-101z" />
    <glyph glyph-name="uniE542" unicode="&#xe542;" 
d="M190 403h644l-69 207h-506zM765 171q29 0 49 20t20 50q0 29 -20 49t-49 20t-49 -20t-20 -49q0 -30 20 -50t49 -20zM259 171q29 0 49 20t20 50q0 29 -20 49t-49 20t-49 -20t-20 -49q0 -30 20 -50t49 -20zM832 632l95 -277v-367q0 -20 -13 -34t-33 -14h-47q-20 0 -32.5 14
t-12.5 34v45h-554v-45q0 -20 -12.5 -34t-32.5 -14h-47q-20 0 -33 14t-13 34v367l95 277q7 21 26 34t41 13h506q22 0 41 -13t26 -34v0zM281 770q-29 0 -49 20t-20 49q0 34 34.5 79.5l34.5 45.5l34.5 -45.5t34.5 -79.5q0 -29 -20 -49t-49 -20v0zM512 770q-29 0 -49 20t-20 49
q0 34 34.5 79.5l34.5 45.5l34.5 -45.5t34.5 -79.5q0 -29 -20 -49t-49 -20zM743 770q-29 0 -49 20t-20 49q0 34 34.5 79.5l34.5 45.5l34.5 -45.5t34.5 -79.5q0 -29 -20 -49t-49 -20z" />
    <glyph glyph-name="uniE543" unicode="&#xe543;" 
d="M491 950q252 0 415 -226q72 -119 72 -233v-35q0 -191 -172 -345q-143 -111 -297 -111h-36q-236 0 -398 223q-75 124 -75 250q0 265 262 421q118 56 229 56zM111 508h18q36 -5 36 -35q0 -31 -43 -35h-11q0 -91 97 -215q137 -119 247 -119q0 53 32 53h15q25 -7 25 -53
q77 0 197 77q104 84 132 191l15 66q-58 0 -58 39q0 31 58 31q0 97 -108 226q-132 108 -236 108v-10q-4 -42 -36 -42q-36 5 -36 35v17q-114 0 -244 -115q-100 -123 -100 -219zM491 755q28 0 28 -66q8 -126 8 -157q24 0 43 -69q19 -15 143 -157v-14q-7 -34 -36 -34h-11
q-170 146 -175 146q-75 10 -75 69q0 24 35 66q8 209 22 209z" />
    <glyph glyph-name="uniE546" unicode="&#xe546;" 
d="M853 563q24 0 40 16t16 40t-16 40t-40 16t-40 -16t-16 -40t16 -40t40 -16zM512 563v282h-341v-282h341zM955 720q20 -20 30 -45.5t10 -55.5v-542q0 -58 -42 -99.5t-100 -41.5t-99.5 41.5t-41.5 99.5v286h-85v-427h-571v909q0 46 34.5 80.5t80.5 34.5h341q46 0 80.5 -34.5
t34.5 -80.5v-397h56q46 0 80 -34.5t34 -80.5v-256q0 -24 16 -40t40 -16t40 16t16 40v411q-14 -6 -27 -8.5t-29 -2.5q-58 0 -99.5 42t-41.5 100q0 46 25.5 81.5t65.5 51.5l-120 120l61 59z" />
    <glyph glyph-name="uniE548" unicode="&#xe548;" 
d="M853 333v230h-226v226h-230v-226h-226v-230h226v-226h230v226h226zM909 960q46 0 80.5 -34.5t34.5 -80.5v-794q0 -46 -34.5 -80.5t-80.5 -34.5h-794q-46 0 -80.5 34.5t-34.5 80.5v794q0 46 34.5 80.5t80.5 34.5h794v0z" />
    <glyph glyph-name="uniE549" unicode="&#xe549;" 
d="M837 681q76 0 131.5 -55t55.5 -132v-419h-94v140h-836v-140h-94v698h94v-419h372v327h371v0zM279 402q-57 0 -98.5 41t-41.5 99q0 57 41.5 98t98.5 41t98 -41t41 -98q0 -58 -41 -99t-98 -41z" />
    <glyph glyph-name="uniE54A" unicode="&#xe54a;" 
d="M512 37q64 0 120 24t98 65.5t66 98.5q24 56 24 120t-24 120t-66 97.5t-98 65.5t-120 24t-120 -24t-98 -65.5t-66 -97.5t-24 -120t24 -120q24 -57 66 -98.5t98 -65.5t120 -24v0zM255 859q-22 0 -36.5 -15.5t-14.5 -37.5q0 -21 14.5 -35.5t36.5 -14.5q21 0 37 14.5t16 35.5
q0 22 -16 37.5t-37 15.5v0zM409 859q-22 0 -36.5 -15.5t-14.5 -37.5q0 -21 14.5 -35.5t36.5 -14.5q21 0 37 14.5t16 35.5q0 22 -16 37.5t-37 15.5zM820 960q43 0 73 -29t30 -72v-822q0 -43 -30 -72t-73 -29h-616q-43 0 -73 29t-30 72v822q0 43 30 72t73 29h616zM368 200
l288 291q30 -29 45 -67t15 -78t-15 -78t-45 -68q-30 -29 -67 -44q-38 -15 -77 -15t-77 15q-37 15 -67 44z" />
    <glyph glyph-name="uniE55A" unicode="&#xe55a;" 
d="M768 278v38q0 32 -28 57t-68 41.5t-84 24.5q-44 9 -76 9t-76 -9q-44 -8 -84 -24.5t-68 -41.5t-28 -57v-38h512v0zM512 734q-48 0 -82 -34t-34 -82t34 -81t82 -33t82 33t34 81t-34 82t-82 34zM810 874q34 0 60 -25t26 -59v-598q0 -35 -26 -60.5t-60 -25.5h-170l-128 -128
l-128 128h-170q-36 0 -61 25.5t-25 60.5v598q0 34 25 59t61 25h596v0z" />
    <glyph glyph-name="uniE565" unicode="&#xe565;" 
d="M512 619q48 0 81.5 34t33.5 80q0 48 -34.5 80t-80.5 32q-48 0 -81.5 -32t-33.5 -80q0 -46 33.5 -80t81.5 -34zM512 333q48 0 81.5 34.5t33.5 80.5t-34.5 80.5t-80.5 34.5q-48 0 -81.5 -34.5t-33.5 -80.5t33.5 -80.5t81.5 -34.5zM512 51q48 0 81.5 33t33.5 79t-34.5 80
t-80.5 34q-48 0 -81.5 -34t-33.5 -80t33.5 -79t81.5 -33zM968 563q0 -80 -48.5 -141t-122.5 -81v-64h171q0 -80 -48.5 -139t-122.5 -79v-67q0 -24 -17 -40t-41 -16h-454q-24 0 -41 16t-17 40v67q-74 20 -122.5 79t-48.5 139h171v64q-74 20 -122.5 81t-48.5 141h171v64
q-74 20 -122.5 79t-48.5 139h171v59q0 24 17 40t41 16h454q24 0 41 -16t17 -40v-59h171q0 -80 -48.5 -139t-122.5 -79v-64h171v0z" />
    <glyph glyph-name="uniE567" unicode="&#xe567;" 
d="M716 551v101h-154v154h-100v-154h-154v-101h154v-153h100v153h154zM512 960q74 0 139 -28t114 -77t77 -114t28 -139q0 -101 -56 -218q-56 -116 -123 -216t-123 -166l-56 -66l-56 66t-123 166t-123 216q-56 117 -56 218q0 74 28 139t77 114t114 77t139 28z" />
    <glyph glyph-name="uniE56D" unicode="&#xe56d;" 
d="M285 107l227 397h-115v285l-226 -426h114v-256v0zM853 563q24 0 40 16t16 40t-16 40t-40 16t-40 -16t-16 -40t16 -40t40 -16zM955 720q20 -20 30 -45.5t10 -55.5v-542q0 -58 -42 -99.5t-100 -41.5t-99.5 41.5t-41.5 99.5v286h-85v-427h-571v909q0 46 34.5 80.5t80.5 34.5
h341q46 0 80.5 -34.5t34.5 -80.5v-397h56q46 0 80 -34.5t34 -80.5v-256q0 -24 16 -40t40 -16t40 16t16 40v411q-14 -6 -27 -8.5t-29 -2.5q-58 0 -99.5 42t-41.5 100q0 46 25.5 81.5t65.5 51.5l-120 120l61 59z" />
    <glyph glyph-name="uniE56F" unicode="&#xe56f;" 
d="M820 248v354q0 50 -24 81q-24 30 -66 46t-98 22q-56 5 -120 5q-58 0 -113 -5q-55 -6 -98.5 -22t-69.5 -46q-27 -31 -27 -81v-354q0 -55 39.5 -94.5t95.5 -39.5l-58 -58v-19h87l77 77h144l77 -77h77v19l-58 58q56 0 95.5 39.5t39.5 94.5v0zM810 919q51 -20 91 -50
q40 -31 67.5 -70.5t41.5 -87.5t14 -102v-673h-1024v673q0 54 14 102t41.5 87.5t67.5 70.5q40 30 91 50q68 27 147 34t151 7t151 -7t147 -34zM257 602h512v-257h-512v257zM281 244q0 21 14.5 35.5t36.5 14.5q21 0 37 -14.5t16 -35.5q0 -22 -16 -37.5t-37 -15.5
q-22 0 -36.5 15.5t-14.5 37.5zM639 244q0 21 16 35.5t37 14.5q22 0 36.5 -14.5t14.5 -35.5q0 -22 -14.5 -37.5t-36.5 -15.5q-21 0 -37 15.5t-16 37.5z" />
    <glyph glyph-name="uniE570" unicode="&#xe570;" 
d="M755 145q34 0 57.5 23.5t23.5 57.5q0 35 -23.5 58t-57.5 23t-57.5 -23t-23.5 -58q0 -34 23.5 -57.5t57.5 -23.5zM565 525h271v215h-271v-215zM459 525v215h-271v-215h271zM269 145q34 0 57.5 23.5t23.5 57.5q0 35 -23.5 58t-57.5 23t-57.5 -23t-23.5 -58
q0 -34 23.5 -57.5t57.5 -23.5zM512 955q89 0 168 -7t137.5 -29.5t92.5 -65.5q34 -42 34 -113v-514q0 -77 -56 -132t-133 -55l81 -81v-27h-109l-106 108h-205l-106 -108h-122v27l81 81q-77 0 -133 55t-56 132v514q0 71 37 113q37 43 98 65.5t139 29.5q77 7 158 7z" />
    <glyph glyph-name="uniE571" unicode="&#xe571;" 
d="M769 345v257h-514v-257h514zM512 114q32 0 54.5 22t22.5 55q0 32 -22.5 54.5t-54.5 22.5t-54.5 -22.5t-22.5 -54.5q0 -33 22.5 -55t54.5 -22v0zM870 196q0 -65 -33.5 -112t-98.5 -47h5l77 -77v-24h-104l-101 101h-194l-101 -101h-116v24l82 82q-54 12 -93 55t-39 99v432
q0 53 25 87t67 53.5t97 27.5q56 8 116 10l41 77h-245v77h514v-77h-168l-39 -77q66 -2 123 -9q56 -8 97 -27.5t65 -53.5q23 -34 23 -88v-432v0z" />
    <glyph glyph-name="uniE62C" unicode="&#xe62c;" 
d="M115 563h794l-85 256h-624zM824 277q36 0 60.5 25t24.5 61t-24.5 60.5t-60.5 24.5t-60.5 -24.5t-24.5 -60.5t24.5 -61t60.5 -25zM200 277q36 0 60.5 25t24.5 61t-24.5 60.5t-60.5 24.5t-60.5 -24.5t-24.5 -60.5t24.5 -61t60.5 -25v0zM907 845l117 -341v-453
q0 -24 -16 -41.5t-40 -17.5h-59q-24 0 -40 17.5t-16 41.5v56h-682v-56q0 -24 -16 -41.5t-40 -17.5h-59q-24 0 -40 17.5t-16 41.5v453l117 341q8 26 31.5 42.5t51.5 16.5h624q28 0 51.5 -16.5t31.5 -42.5v0z" />
    <glyph glyph-name="uniE642" unicode="&#xe642;" 
d="M769 960l154 -154l-154 -154v104h-411v103h411v101v0zM820 345v153h-205v-153h205zM462 37q21 0 35.5 15.5t14.5 37.5q0 21 -14.5 35.5t-35.5 14.5q-22 0 -37.5 -14.5t-15.5 -35.5q0 -22 15.5 -37.5t37.5 -15.5zM923 191h101v-101h-409q0 -63 -45 -108.5t-108 -45.5
q-64 0 -109 45.5t-45 108.5h-104q-41 0 -72 29.5t-31 71.5v154h361v153h-207v-100l-154 153l154 154v-103h565q41 0 72 -31t31 -73v-307v0z" />
    <glyph glyph-name="uniE7F5" unicode="&#xe7f5;" 
d="M721 185v315q0 49 -14 92t-41 75t-66 50q-39 19 -88 19t-88 -19q-39 -18 -66 -50t-41 -75t-14 -92v-315h418zM827 239l106 -106v-52h-842v52l106 106v261q0 61 16 115t46 98t74 74q44 31 100 45v37q0 33 23 56t56 23t56 -23t23 -56v-37q56 -14 100 -45t74 -75t46 -98
t16 -114v-261zM512 -76q-42 0 -74 30.5t-32 72.5h212q0 -42 -32 -72.5t-74 -30.5z" />
    <glyph glyph-name="uniE7F7" unicode="&#xe7f7;" 
d="M512 -64q-43 0 -73 29.5t-30 71.5h204q0 -45 -29.5 -73t-71.5 -28v0zM820 498v-254l103 -104v-50h-822v50l103 104v254q0 60 16 113q15 53 44.5 95.5t72.5 72.5t98 44v36q0 32 22.5 54.5t54.5 22.5t54.5 -22.5t22.5 -54.5v-36q55 -14 98 -44t72.5 -73t44.5 -96
q16 -53 16 -112v0zM921 525q-3 51 -17 99q-14 47 -37.5 89t-55.5 78q-32 35 -71 63l72 72q46 -35 84 -79t65.5 -95t43.5 -109q16 -57 19 -118h-103v0zM286 854q-40 -28 -72 -63q-33 -36 -56.5 -78t-37.5 -89q-14 -48 -17 -99h-103q3 61 19 118q16 58 43.5 109t65.5 95t84 79
z" />
    <glyph glyph-name="uniE853" unicode="&#xe853;" 
d="M512 78q48 0 92 12q45 12 84.5 34t72.5 52q33 31 59 68q-1 38 -35 67q-34 30 -82 50t-101 31q-52 10 -90 10q-39 0 -91 -10q-53 -11 -100.5 -31t-81.5 -50q-34 -29 -35 -67q26 -37 59 -68q33 -30 72.5 -52t84.5 -34q44 -12 92 -12zM512 806q-63 0 -108.5 -45.5
t-45.5 -108.5t45.5 -108.5t108.5 -45.5t108.5 45.5t45.5 108.5t-45.5 108.5t-108.5 45.5v0zM512 960q106 0 200 -40q93 -40 162.5 -109.5t109.5 -162.5q40 -94 40 -200t-40 -200q-40 -93 -109.5 -162.5t-162.5 -109.5q-94 -40 -200 -40t-200 40q-93 40 -162.5 109.5
t-109.5 162.5q-40 94 -40 200t40 200q40 93 109.5 162.5t162.5 109.5q94 40 200 40z" />
    <glyph glyph-name="uniE854" unicode="&#xe854;" 
d="M322 288q0 -5 3.5 -8t8.5 -3h564v-99h-585q-39 0 -67.5 29.5t-28.5 69.5q0 12 3 23.5t9 21.5l66 121l-176 371h-98v96h160q23 -49 45.5 -97.5t45.5 -97.5l58 -122t59 -122h342q24 43 48 85q23 43 46.5 85.5t47.5 85.5q23 43 46 87l84 -48l-187 -341q-12 -22 -34.5 -36
t-50.5 -14h-363l-43 -80zM802 130q40 0 68 -29.5t28 -68.5t-28 -67.5t-68 -28.5q-39 0 -68.5 28.5t-29.5 67.5t29.5 68.5t68.5 29.5v0zM313 130q40 0 69 -29.5t29 -68.5t-29 -67.5t-69 -28.5q-39 0 -67.5 28.5t-28.5 67.5t28.5 68.5t67.5 29.5v0zM510 569v146h-147v99h147
v146h96v-146h146v-99h-146v-146h-96v0z" />
    <glyph glyph-name="uniE882" unicode="&#xe882;" 
d="M683 163v114h114v-114h-114zM683 845v115h114v-115h-114zM115 733v-682h682v-115h-682q-48 0 -81.5 34.5t-33.5 80.5v682h115v0zM909 163v114h115q0 -46 -34.5 -80t-80.5 -34zM909 619v114h115v-114h-115zM909 392v112h115v-112h-115zM341 163q-48 0 -81 34t-33 80h114
v-114zM568 960v-115h-112v115h112zM909 960q46 0 80.5 -34.5t34.5 -80.5h-115v115zM568 277v-114h-112v114h112zM341 960v-115h-114q0 46 33 80.5t81 34.5zM341 504v-112h-114v112h114zM341 733v-114h-114v114h114z" />
    <glyph glyph-name="uniE883" unicode="&#xe883;" 
d="M227 -64v115h114v-115h-114zM456 -64v115h112v-115h-112zM909 277v568h-568v-568h568zM909 960q46 0 80.5 -34.5t34.5 -80.5v-568q0 -46 -34.5 -80t-80.5 -34h-568q-48 0 -81 34t-33 80v568q0 46 33 80.5t81 34.5h568zM683 -64v115h114v-115h-114zM0 619v114h115v-114
h-115zM115 -64q-48 0 -81.5 34.5t-33.5 80.5h115v-115zM0 163v114h115v-114h-115zM0 392v112h115v-112h-115z" />
    <glyph glyph-name="uniE8A3" unicode="&#xe8a3;" 
d="M781 179v44q0 34 -30 60q-29 26 -71 43.5t-88 26.5t-80 9t-80 -9t-88 -26.5t-71 -43.5q-30 -26 -30 -60v-44h538v0zM512 717q-55 0 -94.5 -40t-39.5 -95t39.5 -94.5t94.5 -39.5t94.5 39.5t39.5 94.5t-39.5 95t-94.5 40v0zM825 851q36 0 63 -27t27 -63v-626q0 -36 -27 -63
t-63 -27h-626q-37 0 -63.5 27t-26.5 63v626q0 36 26.5 63t63.5 27h44v90h91v-90h356v90h91v-90h44v0z" />
    <glyph glyph-name="uniE8C2" unicode="&#xe8c2;" 
d="M308 859v-154h101v101h53v-101h100v101h53v-101h101v154h-408v0zM820 705h50v-307l-154 -308v-154h-408v154l-154 308v307h50v154q0 42 31 71.5t73 29.5h408q42 0 73 -29.5t31 -71.5v-154v0z" />
    <glyph glyph-name="uniE8C3" unicode="&#xe8c3;" 
d="M675 309q30 0 50 -20.5t20 -49.5q0 -30 -20 -50t-50 -20q-29 0 -49 20t-20 50q0 29 20 49.5t49 20.5v0zM767 542q29 0 49.5 -20.5t20.5 -49.5t-20.5 -49.5t-49.5 -20.5q-30 0 -50 20.5t-20 49.5t20 49.5t50 20.5v0zM512 30q87 0 163 33q76 32 133 89t89 133q33 76 33 163
t-33 163q-32 76 -89 133t-133 89q-76 33 -163 33t-163 -33q-76 -32 -133 -89t-89 -133q-33 -76 -33 -163t33 -163q32 -76 89 -133t133 -89q76 -33 163 -33zM512 960q105 0 199 -40q93 -41 162.5 -110.5t110.5 -162.5q40 -94 40 -199t-40 -199q-41 -93 -110.5 -162.5
t-162.5 -110.5q-94 -40 -199 -40t-199 40q-93 41 -162.5 110.5t-110.5 162.5q-40 94 -40 199t40 199q41 93 110.5 162.5t162.5 110.5q94 40 199 40zM349 309q29 0 49 -20.5t20 -49.5q0 -30 -20 -50t-49 -20q-30 0 -50 20t-20 50q0 29 20 49.5t50 20.5v0zM651 703
q0 -30 -20 -50t-49 -20h-140q-29 0 -49 20t-20 50q0 29 20 49.5t49 20.5h140q29 0 49 -20.5t20 -49.5v0zM327 472q0 -29 -20 -49.5t-50 -20.5q-29 0 -49.5 20.5t-20.5 49.5t20.5 49.5t49.5 20.5q30 0 50 -20.5t20 -49.5v0z" />
    <glyph glyph-name="uniE900" unicode="&#xe900;" 
d="M960 -64h-896q-26 0 -45 19t-19 45v896q0 26 19 45t45 19h768l192 -192v-768q0 -26 -19 -45t-45 -19zM256 96q0 -13 9.5 -22.5t22.5 -9.5h448q13 0 22.5 9.5t9.5 22.5v256q0 13 -9.5 22.5t-22.5 9.5h-448q-13 0 -22.5 -9.5t-9.5 -22.5v-256zM704 800q0 13 -9.5 22.5
t-22.5 9.5t-22.5 -9.5t-9.5 -22.5v-96q0 -13 9.5 -22.5t22.5 -9.5t22.5 9.5t9.5 22.5v96zM896 736l-96 96h-32v-224q0 -13 -9.5 -22.5t-22.5 -9.5h-448q-13 0 -22.5 9.5t-9.5 22.5v224h-96q-13 0 -22.5 -9.5t-9.5 -22.5v-704q0 -13 9.5 -22.5t22.5 -9.5h32v352
q0 13 9.5 22.5t22.5 9.5h576q13 0 22.5 -9.5t9.5 -22.5v-352h32q13 0 22.5 9.5t9.5 22.5v640z" />
    <glyph glyph-name="uniE901" unicode="&#xe901;" 
d="M291 604l45 299h-234l-97 -256q-3 -7 -4 -14t-1 -14q0 -47 43 -80.5t103 -33.5q56 0 97.5 28.5t47.5 70.5v0zM512 505q61 0 103.5 33.5t42.5 80.5v3v4l-29 277h-234l-29 -277v-3.5v-3.5q0 -47 42.5 -80.5t103.5 -33.5v0zM796 445v-225h-568v225q-19 -7 -39.5 -10.5
t-42.5 -3.5q-8 0 -16 1l-16 2v-361q0 -33 23 -56.5t56 -23.5h638q32 0 55.5 23.5t23.5 56.5v361l-16 -2t-16 -1q-22 0 -42.5 3.5t-39.5 10.5v0zM1019 647l-97 256h-234l45 -298q6 -42 47.5 -71t97.5 -29q60 0 103 33.5t43 80.5q0 7 -1 14t-4 14v0z" />
    <glyph glyph-name="uniE902" unicode="&#xe902;" 
d="M1024 352l-192 192v288h-128v-160l-192 192l-512 -512v-32h128v-320h320v192h128v-192h320v320h128v32z" />
    <glyph glyph-name="uniE903" unicode="&#xe903;" 
d="M0 -64h512v1024h-512v-1024zM320 832h128v-128h-128v128zM320 576h128v-128h-128v128zM320 320h128v-128h-128v128zM64 832h128v-128h-128v128zM64 576h128v-128h-128v128zM64 320h128v-128h-128v128zM576 640h448v-64h-448v64zM576 -64h128v256h192v-256h128v576h-448
v-576z" />
    <glyph glyph-name="uniE904" unicode="&#xe904;" 
d="M496 448q-53 0 -90.5 37.5t-37.5 90.5h-192v-320q0 -66 25 -125q25 -58 68.5 -101.5t101.5 -68.5q59 -25 125 -25t125 25q58 25 101.5 68.5t68.5 101.5q25 59 25 125v320h-192q0 -53 -37.5 -90.5t-90.5 -37.5zM368 704q0 53 37.5 90.5t90.5 37.5t90.5 -37.5t37.5 -90.5
v-64h192q0 66 -25 125q-25 58 -68.5 101.5t-101.5 68.5q-59 25 -125 25t-125 -25q-58 -25 -101.5 -68.5t-68.5 -101.5q-25 -59 -25 -125h192v64zM464 736v-192q0 -13 9.5 -22.5t22.5 -9.5t22.5 9.5t9.5 22.5v192q0 13 -9.5 22.5t-22.5 9.5t-22.5 -9.5t-9.5 -22.5z" />
    <glyph glyph-name="uniE905" unicode="&#xe905;" 
d="M864 960q66 0 113 -47t47 -113q0 -27 -8.5 -51.5t-23.5 -44.5l-64 -64l-224 224l64 64q20 15 44.5 23.5t51.5 8.5zM64 224l-64 -288l288 64l592 592l-224 224zM716 596l-448 -448l-56 56l448 448z" />
    <glyph glyph-name="uniE906" unicode="&#xe906;" 
d="M282 353l-96 -246l241 100l-145 146v0zM982 876l-31 31q-25 25 -61 25t-61 -25l-62 -61l153 -153l62 61q25 25 25 61t-25 61v0zM287 365l22 22l153 -153l428 428l-153 153l30 31l-480 -481v0zM815 15h-737l1 736l515 1l81 85h-640q-18 0 -31 -12.5t-13 -30.5v-822
q0 -18 13 -30.5t31 -12.5h822q17 0 30 12.5t13 30.5v608l-87 -85l2 -480v0z" />
    <glyph glyph-name="uniE907" unicode="&#xe907;" 
d="M896 960h-768q-27 0 -45.5 -18.5t-18.5 -45.5v-896q0 -27 18.5 -45.5t45.5 -18.5h768q27 0 45.5 18.5t18.5 45.5v896q0 27 -18.5 45.5t-45.5 18.5zM320 64h-128v128h128v-128zM320 256h-128v128h128v-128zM320 448h-128v128h128v-128zM576 64h-128v128h128v-128zM576 256
h-128v128h128v-128zM576 448h-128v128h128v-128zM832 64h-128v128h128v-128zM832 256h-128v128h128v-128zM832 448h-128v128h128v-128zM832 704h-640v128h640v-128z" />
    <glyph glyph-name="uniE908" unicode="&#xe908;" 
d="M0 -64v1024h1024v-1024h-1024zM942 878h-860v-246h83q4 35 20.5 58t38.5 23t39 -23t21 -58h44q5 35 21.5 58t38.5 23t39 -23t21 -58h290q4 35 21 58t39 23t38.5 -23t21.5 -58h84v246v0zM942 591h-84q-4 -35 -21 -58.5t-39 -23.5q-23 0 -39.5 23.5t-20.5 58.5h-289
q-5 -35 -21.5 -58.5t-39.5 -23.5q-22 0 -39 23.5t-21 58.5h-43q-4 -35 -21 -59t-40 -24q-22 0 -39 24t-21 59h-82v-286h327q5 34 21.5 57.5t38.5 23.5t39 -23.5t21 -57.5h41q4 35 21 59t40 24q22 0 39 -24t21 -59h46q4 35 21 58.5t39 23.5t39 -23.5t21 -58.5h85v286v0z
M942 264h-85q-4 -35 -21 -58.5t-39 -23.5t-39 23.5t-21 58.5h-46q-5 -35 -21.5 -58t-38.5 -23t-39 23t-21 58h-41q-5 -36 -21.5 -59.5t-39.5 -23.5q-22 0 -39 23.5t-21 59.5h-327v-246h860v246v0z" />
    <glyph glyph-name="uniE909" unicode="&#xe909;" 
d="M386 417q-5 -6 -10 -18t-11 -16q-6 -3 -13 -6t-15 -4q-8 -2 -16 -2.5t-16 -0.5v-49h79v-193h63v320h-50q-2 -9 -4.5 -17t-6.5 -14v0zM736 704h64q13 0 22.5 9.5t9.5 22.5v192q0 13 -9.5 22.5t-22.5 9.5h-64q-13 0 -22.5 -9.5t-9.5 -22.5v-192q0 -13 9.5 -22.5t22.5 -9.5z
M224 704h64q13 0 22.5 9.5t9.5 22.5v192q0 13 -9.5 22.5t-22.5 9.5h-64q-13 0 -22.5 -9.5t-9.5 -22.5v-192q0 -13 9.5 -22.5t22.5 -9.5zM960 832h-64v-160q0 -13 -9.5 -22.5t-22.5 -9.5h-192q-13 0 -22.5 9.5t-9.5 22.5v160h-256v-160q0 -13 -9.5 -22.5t-22.5 -9.5h-192
q-13 0 -22.5 9.5t-9.5 22.5v160h-64q-26 0 -45 -19t-19 -45v-768q0 -26 19 -45t45 -19h896q26 0 45 19t19 45v768q0 26 -19 45t-45 19zM960 32q0 -13 -9.5 -22.5t-22.5 -9.5h-832q-13 0 -22.5 9.5t-9.5 22.5v512q0 13 9.5 22.5t22.5 9.5h832q13 0 22.5 -9.5t9.5 -22.5v-512z
M512 385h158q-22 -28 -40 -57t-32 -62t-17.5 -67.5t-6.5 -70.5h68q0 16 -2.5 33.5t1.5 35.5q3 19 8 37t11 36q7 18 15 35t17 33q10 16 21 29.5t23 24.5v56h-225v-63h1z" />
    <glyph glyph-name="uniE90A" unicode="&#xe90a;" 
d="M987 923q-38 37 -91 37t-91 -37l-172 -173l-121 122l-136 -136l107 -106l-472 -473q-6 -6 -9 -13.5t-2 -15.5v0v-160q0 -13 9.5 -22.5t22.5 -9.5h160h1.5h2.5q7 0 13.5 2.5t11.5 8.5l473 472l106 -107l136 136l-122 121l173 172q37 38 37 91t-37 91v0zM173 0h-109v109
l470 470l109 -109l-470 -470v0z" />
    <glyph glyph-name="uniE90B" unicode="&#xe90b;" 
d="M951 -64h-878q-30 0 -51.5 21.5t-21.5 51.5v768q0 30 21.5 51.5t51.5 21.5h73v-36q0 -46 32.5 -78t77.5 -32t77.5 32t32.5 78v36h292v-36q0 -46 32.5 -78t77.5 -32t77.5 32t32.5 78v36h73q30 0 51.5 -21.5t21.5 -51.5v-768q0 -30 -21.5 -51.5t-51.5 -21.5v0zM951 594
h-878v-585h878v585zM405 308q5 9 8 18t3 18q0 21 -11.5 32t-34.5 11q-20 0 -39 -8t-37 -24v60q20 13 42.5 19.5t48.5 6.5q23 0 41.5 -6t31.5 -18t20 -28t7 -36q0 -27 -16.5 -54.5t-48.5 -56.5l-63 -56v-2h125v-56h-203v53l88 84q14 13 23 23.5t15 19.5v0zM652 186
q8 5 11.5 13t3.5 18t-4.5 18t-13.5 14q-9 5 -21.5 8t-27.5 3h-28v52h26q30 0 45 10t15 30q0 18 -11.5 27.5t-34.5 9.5q-16 0 -31 -5t-30 -15v55q17 9 35.5 13t40.5 4q23 0 41.5 -5.5t31.5 -15.5q13 -11 20 -25t7 -31q0 -30 -15.5 -48.5t-46.5 -26.5v-1q17 -2 29.5 -8
t22.5 -16q9 -9 14 -21.5t5 -26.5q0 -21 -8 -38t-24 -30q-15 -12 -37 -18.5t-50 -6.5q-23 0 -42.5 4t-34.5 11v59q15 -11 33 -16.5t39 -5.5q13 0 23 2.5t17 8.5v0zM767 741q-30 0 -51 21t-21 51v75q0 30 21 51t51 21t51 -21t21 -51v-75q0 -30 -21 -51t-51 -21v0zM255 741
q-30 0 -51 21t-21 51v75q0 30 21 51t51 21t51 -21t21 -51v-75q0 -30 -21 -51t-51 -21v0z" />
    <glyph glyph-name="uniE90C" unicode="&#xe90c;" 
d="M907 491q-19 50 -49 94q-31 44 -71 78.5t-89 59.5t-104 37q28 41 72.5 65t97.5 24q43 0 81 -16t66 -44.5t45 -65.5q16 -38 16 -81q0 -45 -17.5 -84t-47.5 -67v0zM507 842v-131q75 -3 140 -33q66 -31 114.5 -81t76.5 -117q28 -66 28 -142q0 -63 -20 -120t-55 -104l86 -150
l-72 -41l-74 128q-48 -41 -109.5 -64t-129.5 -23t-129 23t-110 63l-76 -132l-72 42l89 153q-36 47 -56 104.5t-20 120.5q0 75 28 141q27 66 75 116.5t113 80.5q64 31 138 35v131q-15 5 -24.5 18t-9.5 30q0 22 15 37t37 15q21 0 36.5 -15t15.5 -37q0 -17 -10 -30t-25 -18v0z
M201 338q0 -60 23 -113t62.5 -92.5t92.5 -62.5t113 -23t113 23t92.5 62.5t62.5 92.5t23 113t-23 113t-62.5 92.5t-92.5 62.5t-113 23t-113 -23t-92.5 -62.5t-62.5 -92.5t-23 -113v0zM579 275h-104q-15 0 -25 10.5t-10 24.5v139q0 15 10 25t25 10q14 0 24 -10t10 -25v-104h70
q14 0 24.5 -10.5t10.5 -24.5t-10.5 -24.5t-24.5 -10.5v0zM82 491q-30 28 -47.5 67t-17.5 84q0 43 16 81q16 37 44.5 65.5t66.5 44.5q37 16 80 16q53 0 98 -24t73 -65q-55 -12 -104 -37t-89.5 -59.5t-70.5 -78.5q-31 -44 -49 -94v0z" />
    <glyph glyph-name="uniE90D" unicode="&#xe90d;" 
d="M306 627q29 0 42 -9.5t32 -6.5q20 2 9 29t-28 52q-17 24 -51 17t-63 -24q-15 -8 -55 -33l-82.5 -49.5t-75.5 -45.5l-33 -20h181l47 45t77 45v0zM0 513v-296q0 -19 13.5 -32t32.5 -13h30h81h117h137q26 0 50.5 53t50.5 53q23 0 42 -53t41 -53h146h122h84h31q19 0 32.5 13
t13.5 32v296h-1024v0zM410 308q0 -28 -20 -48t-49 -20h-204q-29 0 -49 20t-20 48v68q0 29 20 49t49 20h204q29 0 49 -20t20 -49v-68zM956 308q0 -28 -20 -48t-49 -20h-204q-29 0 -49 20t-20 48v68q0 29 20 49t49 20h204q29 0 49 -20t20 -49v-68v0zM644 611q19 -3 32 6.5
t42 9.5q30 0 77 -45l47 -45h181l-33 20t-75.5 45.5l-82.5 49.5q-40 25 -55 33q-29 17 -63 24t-51 -17q-17 -25 -28 -52t9 -29v0z" />
    <glyph glyph-name="uniE90E" unicode="&#xe90e;" 
d="M512 960q-106 0 -199 -40q-94 -40 -163.5 -109.5t-109.5 -163.5q-40 -93 -40 -199t40 -199q40 -94 109.5 -163.5t163.5 -109.5q93 -40 199 -40t199 40q94 40 163.5 109.5t109.5 163.5q40 93 40 199t-40 199q-40 94 -109.5 163.5t-163.5 109.5q-93 40 -199 40zM576 70v122
q0 13 -9.5 22.5t-22.5 9.5h-64q-13 0 -22.5 -9.5t-9.5 -22.5v-122q-60 10 -113 38q-53 27 -94.5 68.5t-69.5 94.5q-27 53 -37 113h122q13 0 22.5 9.5t9.5 22.5v64q0 13 -9.5 22.5t-22.5 9.5h-122q10 60 38 113q27 53 68.5 94.5t94.5 69.5q53 27 113 37v-122q0 -13 9.5 -22.5
t22.5 -9.5h64q13 0 22.5 9.5t9.5 22.5v122q60 -10 113 -37q53 -28 94.5 -69.5t68.5 -94.5q28 -53 38 -113h-122q-13 0 -22.5 -9.5t-9.5 -22.5v-64q0 -13 9.5 -22.5t22.5 -9.5h122q-10 -60 -37 -113q-28 -53 -69.5 -94.5t-94.5 -68.5q-53 -28 -113 -38z" />
    <glyph glyph-name="uniE90F" unicode="&#xe90f;" 
d="M577 513h185q-18 68 -67.5 117.5t-117.5 67.5v-185v0zM577 383v-185q68 18 117.5 67.5t67.5 117.5h-185v0zM447 513v185q-68 -18 -118 -67.5t-67 -117.5h185zM447 383h-185q17 -68 67 -117.5t118 -67.5v185zM577 830q61 -10 114 -38t95 -70t70 -95t38 -114h130
q-11 88 -49 164q-39 77 -98 136t-136 98q-77 38 -164 49v-130zM130 513q10 61 38 114t70 95t95 70t114 38v130q-88 -11 -164 -49q-77 -39 -136 -98t-98 -136q-38 -76 -49 -164h130v0zM447 66q-61 10 -114 38t-95 70t-70 95t-38 114h-130q11 -88 49 -164q39 -77 98 -136
t136 -98q76 -38 164 -49v130zM894 383q-10 -61 -38 -114t-70 -95t-95 -70t-114 -38v-130q87 11 164 49q77 39 136 98t98 136q38 76 49 164h-130z" />
    <glyph glyph-name="uniE910" unicode="&#xe910;" 
d="M1024 704q0 53 -20 100q-20 46 -55 81t-81 55q-47 20 -100 20q-72 0 -130.5 -36t-91.5 -95v0v0q-9 1 -17.5 2.5t-17.5 1.5q-80 0 -150 -30q-69 -30 -121.5 -82.5t-82.5 -122.5q-30 -69 -30 -149q0 -61 18 -116t50 -102l-195 -295l297 194q46 -31 100.5 -48t113.5 -17
q80 0 149 30q70 30 122.5 82.5t82.5 122.5q30 69 30 149q0 8 -1 16l-2 16q59 33 95.5 92t36.5 131zM511 193q-53 0 -100 20q-46 20 -81 55t-55 81q-20 47 -20 100t20 100q20 46 55 81t81 55q47 20 100 20h0.5h0.5v0v1v-1.5v-0.5q0 -17 2.5 -33t6.5 -31l-102 -102
q-37 -37 -37 -90t37 -90q38 -38 91 -38t90 38l101 100q16 -4 32.5 -7t33.5 -3q0 -53 -21 -99q-20 -47 -54.5 -81.5t-81.5 -54.5q-46 -20 -99 -20v0zM768 576q-53 0 -90.5 37.5t-37.5 90.5t37.5 90.5t90.5 37.5t90.5 -37.5t37.5 -90.5t-37.5 -90.5t-90.5 -37.5z" />
    <glyph glyph-name="uniE911" unicode="&#xe911;" 
d="M922 -64h-820q-42 0 -72 30t-30 72v478q0 43 30 73t72 30h820q42 0 72 -30t30 -73v-478q0 -42 -30 -72t-72 -30v0zM173 432q-52 0 -89 -47.5t-37 -113.5q0 -68 37 -115.5t89 -47.5t89 47.5t37 115.5q0 66 -37 113.5t-89 47.5v0zM500 392q-2 9 -7 15.5t-11 10.5t-13.5 7.5
t-16.5 4.5q-6 2 -15.5 2.5t-21.5 0.5h-75v-320h43v94h34q26 0 44 10t28 21q10 12 14.5 50.5t4.5 56.5q0 9 -2 24t-6 23v0zM721 159h-128v93h125v43h-125v95h128v43h-168v-320h168v46v0zM972 433h-38v-245l-127 245h-44v-320h41v235l127 -235h41v320v0zM419 253h-36v137h34
q12 0 19 -1t11 -2q6 -1 11 -5.5t10 -9.5q4 -5 6 -12.5t2 -15.5q0 -11 -3.5 -41.5t-10.5 -37.5q-6 -7 -17 -9.5t-26 -2.5v0zM173 151q-35 0 -59.5 34t-24.5 81q0 48 24.5 82t59.5 34t59.5 -34t24.5 -82q0 -47 -24.5 -81t-59.5 -34zM819 619l-250 186q-9 -7 -19.5 -11.5
t-22.5 -4.5q-17 0 -31.5 8t-23.5 20l-267 -198h-34l290 222l-2 8t-1 9q0 28 20 48t49 20q28 0 48 -20t20 -48q0 -10 -2.5 -18.5t-6.5 -15.5l267 -205h-34v0z" />
    <glyph glyph-name="uniE912" unicode="&#xe912;" 
d="M922 -64h-820q-42 0 -72 30t-30 72v478q0 43 30 73t72 30h69l290 222l-2 8t-1 9q0 28 20 48t49 20q28 0 48 -20t20 -48q0 -10 -2.5 -18.5t-6.5 -15.5l267 -205h69q42 0 72 -30t30 -73v-478q0 -42 -30 -72t-72 -30v0zM571 118h174v40h-137v295h-37v-335v0zM322 118l31 102
h116l33 -102h42l-114 335h-41l-106 -335h39v0zM64 413q-6 -10 -8.5 -22.5t-2.5 -24.5t2.5 -22t6.5 -19q5 -11 12.5 -18.5t17.5 -13.5q8 -4 21 -9.5t32 -11.5q19 -5 32 -9.5t18 -5.5q9 -5 15 -10.5t10 -9.5q4 -6 6 -13t2 -15q0 -7 -2 -14.5t-6 -14.5t-10 -11.5t-14 -9.5
q-8 -3 -17.5 -5t-19.5 -2q-12 0 -22.5 2t-20.5 8q-9 5 -15.5 11.5t-11.5 14.5q-4 8 -7.5 18.5t-4.5 22.5l-34 -3q0 -17 4 -32t11 -29q6 -13 16.5 -23t22.5 -16q13 -6 29 -10t35 -4q15 0 28 4t25 10t21 15t15 21q7 12 10 24.5t3 25.5q0 14 -2.5 25.5t-8.5 22.5
q-7 10 -15.5 18.5t-20.5 16.5q-9 4 -24 9.5t-38 11.5t-36 12t-19 11q-5 6 -7.5 13.5t-2.5 16.5q0 11 3.5 19.5t11.5 15.5q7 8 19 11.5t29 3.5q16 0 28 -3.5t20 -12.5q9 -8 13 -20t7 -27l35 3q-1 15 -4 28t-10 25q-6 10 -15.5 19.5t-20.5 15.5q-12 6 -25.5 9t-29.5 3
q-13 0 -26 -3t-24 -9t-20 -14.5t-16 -19.5v0zM569 805q-9 -7 -19.5 -11.5t-22.5 -4.5q-17 0 -31.5 8t-23.5 20l-267 -198h614l-250 186v0zM996 158h-170v114h154v39h-154v102h164v40h-201v-335h207v40v0zM408 418l9 -31.5t12 -38.5l29 -93h-95l30 99q5 15 9 31t6 33v0z" />
    <glyph glyph-name="uniE913" unicode="&#xe913;" 
d="M1021 787l-93 -371q0 -3 -0.5 -6.5t-1.5 -5.5q-3 -6 -7.5 -10.5t-10.5 -7.5q-2 -1 -5.5 -1.5t-6.5 -0.5h-608l26 -128h550q13 0 22.5 -9.5t9.5 -22.5t-9.5 -22.5t-22.5 -9.5h-576q-13 0 -22.5 9.5t-9.5 22.5l-122 608h-102q-13 0 -22.5 9.5t-9.5 22.5t9.5 22.5t22.5 9.5
h128q13 0 22.5 -9.5t9.5 -22.5l6 -32h794q13 0 22.5 -9.5t9.5 -22.5q0 -3 -0.5 -6.5t-2.5 -6.5zM275 448h109v320h-173zM576 768h-160v-320h160v320zM768 768h-160v-320h160v320zM800 768v-320h72l81 320h-153zM352 128q40 0 68 -28t28 -68t-28 -68t-68 -28t-68 28t-28 68
t28 68t68 28zM352 0q13 0 22.5 9.5t9.5 22.5t-9.5 22.5t-22.5 9.5t-22.5 -9.5t-9.5 -22.5t9.5 -22.5t22.5 -9.5zM800 128q40 0 68 -28t28 -68t-28 -68t-68 -28t-68 28t-28 68t28 68t68 28zM800 0q13 0 22.5 9.5t9.5 22.5t-9.5 22.5t-22.5 9.5t-22.5 -9.5t-9.5 -22.5
t9.5 -22.5t22.5 -9.5z" />
    <glyph glyph-name="uniE914" unicode="&#xe914;" 
d="M538 233q-12 12 -26.5 21t-30.5 15l-45 174l531 148l57 -222l-486 -136v0zM369 703l354 99l57 -221l-354 -99l-57 221v0zM385 272q-7 -2 -14 -4.5t-14 -6.5l-156 608h-58q-5 -9 -13.5 -15.5t-19.5 -6.5h-73q-16 0 -26.5 11.5t-10.5 27.5q0 15 10.5 26.5t26.5 11.5h73
q9 0 16.5 -4.5t12.5 -12.5h113v-1h2l161 -629q-8 0 -15 -1.5t-15 -3.5v0zM395 235q51 15 97 -13t60 -81q14 -54 -13 -102t-78 -62t-97 13.5t-60 80.5q-14 54 13 102t78 62v0zM376 89q5 -23 25 -35t42 -6q22 7 33.5 27.5t5.5 43.5t-26 34.5t-42 5.5t-33 -26.5t-5 -43.5v0z
M1019 239l-427 -119q-1 8 -2 15.5t-3 15.5q-2 7 -4.5 14.5t-5.5 14.5l425 119l17 -60v0z" />
    <glyph glyph-name="uniE915" unicode="&#xe915;" 
d="M864 768h-512q-66 0 -113 -47t-47 -113v-512q0 -66 47 -113t113 -47h512q66 0 113 47t47 113v512q0 66 -47 113t-113 47zM416 64q-40 0 -68 28t-28 68t28 68t68 28t68 -28t28 -68t-28 -68t-68 -28zM416 448q-40 0 -68 28t-28 68t28 68t68 28t68 -28t28 -68t-28 -68
t-68 -28zM608 256q-40 0 -68 28t-28 68t28 68t68 28t68 -28t28 -68t-28 -68t-68 -28zM800 64q-40 0 -68 28t-28 68t28 68t68 28t68 -28t28 -68t-28 -68t-68 -28zM800 448q-40 0 -68 28t-28 68t28 68t68 28t68 -28t28 -68t-28 -68t-68 -28zM829 832q-11 55 -55 91.5
t-102 36.5h-512q-66 0 -113 -47t-47 -113v-512q0 -58 36.5 -102t91.5 -55v637q0 26 19 45t45 19h637z" />
    <glyph glyph-name="uniE916" unicode="&#xe916;" 
d="M491 941l-507 -218l508 -217l512 217l-513 218v0zM512 479v-524l493 234v499l-493 -209v0zM-19 189l495 -234v524l-495 209v-499v0z" />
    <glyph glyph-name="uniE917" unicode="&#xe917;" 
d="M62 390l380 -191l68 191l-380 182l-68 -182v0zM519 390l64 -190l394 192l-77 180zM0 725l131 -153l379 194l-123 157zM1024 722l-378 201l-129 -157l383 -194zM108 342l-1 -184l400 -185v346l-57 -150l-342 173v0zM521 319v-346l400 185v183l-347 -172l-53 150v0z" />
    <glyph glyph-name="uniE918" unicode="&#xe918;" 
d="M855 341q-3 24 -19.5 41t-40.5 23q-91 21 -122.5 69.5t-35.5 107.5q-16 3 -46 5.5t-79 2.5t-79 -2.5t-46 -5.5q-4 -59 -35.5 -107.5t-122.5 -69.5q-24 -6 -40.5 -23t-19.5 -41l-24 -163q-6 -43 21 -76t71 -33h550q43 0 70.5 33t21.5 76l-24 163v0zM512 188
q-50 0 -85 34.5t-35 83.5t35 84t85 35t85 -35t35 -84t-35.5 -83.5t-84.5 -34.5zM983 637q0 27 -33 60t-94.5 61.5t-148.5 48.5t-195 20t-195 -20t-148.5 -48.5t-94.5 -61.5t-33 -60q-1 -53 15 -106t105 -42q104 14 117.5 49t13.5 87q0 37 70 49t150 12t150 -12t70 -49
q0 -52 13.5 -87t117.5 -49q89 -11 105 42t15 106v0z" />
    <glyph glyph-name="uniE919" unicode="&#xe919;" 
d="M265 920q-51 10 -94.5 -18.5t-53.5 -79.5q-21 -99 -31 -191t-10 -183t10 -183t31 -191q9 -45 44 -73t79 -28q6 0 12.5 1t12.5 2q51 10 80.5 53t18.5 94q-17 88 -26 167q-9 80 -9 158t9 158q9 79 26 167q11 51 -18.5 94t-80.5 53v0zM851 835h-415q3 -17 3 -34.5t-4 -34.5
q-17 -86 -25 -164q-9 -78 -9 -154t9 -154q8 -78 25 -164q4 -17 4 -34.5t-3 -34.5h415q40 0 68.5 28.5t28.5 67.5v582q0 39 -28.5 67.5t-68.5 28.5v0zM609 230q-30 0 -51.5 21.5t-21.5 51.5t21.5 51t51.5 21t51 -21t21 -51t-21 -51.5t-51 -21.5zM851 496h-339v194h339v-194z
" />
    <glyph glyph-name="uniE91A" unicode="&#xe91a;" 
d="M881 197l22 18t49 54t49 90t22 126q0 106 -50 181q-50 74 -121.5 120t-151.5 66q-80 21 -141 20q-122 -2 -166.5 -24l-44.5 -22l-34.5 24.5t-78.5 49.5q-34 13 -48.5 15t-37.5 -5q-19 0 -13 -22.5t13 -34.5q8 -11 33 -54l25 -43l-51.5 -60.5t-56.5 -112.5q0 1 -27 1h-47
t-22 -14.5l-2 -14.5l1 -200l2 -14.5t20 -14.5h46h28l41 -54t75 -68q0 -1 -19.5 -53.5l-19.5 -52.5l-5 -18t20 -27l77.5 -31t81.5 -30q27 -8 34.5 3.5l7.5 11.5l37 79h242l37 -82l10 -16.5t47 -0.5q37 15 75.5 33t69.5 34t22.5 38.5l-8.5 22.5l-42 82v0zM228 543
q-17 0 -29 12t-12 29t12 29t29 12t29 -12t12 -29t-12 -29t-29 -12v0zM807 671q-10 -11 -17.5 -7t-15.5 6l-30.5 23t-79.5 38q-51 15 -95.5 12.5l-44.5 -2.5q-8 3 -15.5 5.5t-7.5 14.5q0 15 12.5 18l12.5 3l48.5 1.5t99.5 -13.5q49 -15 83 -38.5l34 -23.5l12 -11.5t4 -25.5v0
z" />
    <glyph glyph-name="uniE91B" unicode="&#xe91b;" 
d="M887 4l-68 2v-70h-102v68h-408l-2 -68h-102v66l-68 2q-29 0 -49 20t-20 49v819q0 28 20 48t49 20h750q29 0 49 -20t20 -48v-819q0 -29 -20 -49t-49 -20v0zM853 858h-682v-135h-34v-105h34v-270h-34v-105h34v-136h682v751zM819 141h-614v102h34v105h-34v271h34l1 103h-35
v101h614v-682v0zM463 634q-57 0 -97 -40t-40 -97q0 -56 40 -96t97 -40q56 0 96 40t40 96q0 57 -40 97t-96 40v0zM768 601q0 14 -10 24t-24 10t-24 -10t-10 -24q0 -9 4.5 -16.5t12.5 -12.5v-180q-8 -5 -12.5 -12.5t-4.5 -16.5q0 -14 10 -24t24 -10t24 10t10 24q0 10 -5.5 18
t-13.5 12v178q8 4 13.5 12t5.5 18v0zM461 439q-21 0 -36 15t-15 37q0 21 15 36t36 15t36 -15t15 -36q0 -22 -15 -37t-36 -15z" />
    <glyph glyph-name="uniE91C" unicode="&#xe91c;" 
d="M928 640h-832q-13 0 -22.5 -9.5t-9.5 -22.5v-288q0 -13 9.5 -22.5t22.5 -9.5h32v-320q0 -13 9.5 -22.5t22.5 -9.5h704q13 0 22.5 9.5t9.5 22.5v320h32q13 0 22.5 9.5t9.5 22.5v288q0 13 -9.5 22.5t-22.5 9.5zM448 32q0 -13 -9.5 -22.5t-22.5 -9.5h-192q-13 0 -22.5 9.5
t-9.5 22.5v256q0 13 9.5 22.5t22.5 9.5h192q13 0 22.5 -9.5t9.5 -22.5v-256zM448 416q0 -13 -9.5 -22.5t-22.5 -9.5h-256q-13 0 -22.5 9.5t-9.5 22.5v128q0 13 9.5 22.5t22.5 9.5h256q13 0 22.5 -9.5t9.5 -22.5v-128zM832 32q0 -13 -9.5 -22.5t-22.5 -9.5h-192
q-13 0 -22.5 9.5t-9.5 22.5v256q0 13 9.5 22.5t22.5 9.5h192q13 0 22.5 -9.5t9.5 -22.5v-256zM896 416q0 -13 -9.5 -22.5t-22.5 -9.5h-256q-13 0 -22.5 9.5t-9.5 22.5v128q0 13 9.5 22.5t22.5 9.5h256q13 0 22.5 -9.5t9.5 -22.5v-128zM370 640h294q38 27 69 61.5t35 72.5
q2 19 -5.5 44.5t-38.5 50.5q-17 14 -34.5 20.5t-34.5 6.5q-55 0 -87.5 -54.5t-49.5 -114.5q-10 38 -25 79q-14 41 -34.5 75.5t-47.5 56.5q-26 22 -59 22q-20 0 -39 -8.5t-38 -24.5q-37 -33 -45 -65t-4 -55q7 -50 51 -93t93 -74v0zM655 819q5 0 12 -3t14 -9q13 -10 14.5 -16
t1.5 -8q-3 -21 -37 -51t-80 -57q13 58 33.5 101t41.5 43v0zM321 868q6 5 14.5 10t16.5 5q29 0 57.5 -64.5t46.5 -140.5q-56 30 -105 69t-54 73q-1 4 1 16.5t23 31.5z" />
    <glyph glyph-name="uniE91D" unicode="&#xe91d;" 
d="M896 256h-64q-53 0 -90.5 37.5t-37.5 90.5t37.5 90.5t90.5 37.5h64q53 0 90.5 -37.5t37.5 -90.5t-37.5 -90.5t-90.5 -37.5zM896 448h-64q-26 0 -45 -19t-19 -45t19 -45t45 -19h64q26 0 45 19t19 45t-19 45t-45 19zM640 384q0 -2 0.5 -4t0.5 -4t-0.5 -4t-0.5 -4
q0 -25 8.5 -47.5t22.5 -41.5q26 -39 68.5 -63t92.5 -24h128v-128q0 -26 -19 -45t-45 -19h-832q-26 0 -45 19t-19 45v720q0 38 22.5 67t56.5 40q4 2 8 3.5t9 1.5h832q13 0 22.5 -9.5t9.5 -22.5t-9.5 -22.5t-22.5 -9.5h-832q-13 0 -22.5 -9.5t-9.5 -22.5v-32h832q26 0 45 -19
t19 -45v-128h-128q-80 0 -136 -56t-56 -136zM80 64h800q7 0 11.5 4.5t4.5 11.5t-4.5 11.5t-11.5 4.5h-800q-7 0 -11.5 -4.5t-4.5 -11.5t4.5 -11.5t11.5 -4.5zM896 688q0 7 -4.5 11.5t-11.5 4.5h-800q-7 0 -11.5 -4.5t-4.5 -11.5t4.5 -11.5t11.5 -4.5h800q7 0 11.5 4.5
t4.5 11.5z" />
    <glyph glyph-name="uniE91E" unicode="&#xe91e;" 
d="M512 960q-106 0 -199 -40q-94 -40 -163.5 -109.5t-109.5 -163.5q-40 -93 -40 -199t40 -199q40 -94 109.5 -163.5t163.5 -109.5q93 -40 199 -40t199 40q94 40 163.5 109.5t109.5 163.5q40 93 40 199t-40 199q-40 94 -109.5 163.5t-163.5 109.5q-93 40 -199 40zM768 384
h-192v-192h-128v192h-192v128h192v192h128v-192h192v-128z" />
    <glyph glyph-name="uniE91F" unicode="&#xe91f;" 
d="M0 576h1024v-256h-1024v256z" />
    <glyph glyph-name="uniE920" unicode="&#xe920;" 
d="M883 773h-443q-15 0 -34.5 -7t-30.5 -17l-316 -277q-11 -10 -11 -24t11 -24l316 -276q11 -11 30.5 -18t34.5 -7h443q39 0 66 27.5t27 65.5v464q0 38 -27 65.5t-66 27.5v0zM753 262l-119 119l-118 -119l-67 67l118 119l-118 119l67 67l118 -119l119 119l67 -67l-119 -119
l119 -119l-67 -67v0z" />
    <glyph glyph-name="uniE921" unicode="&#xe921;" horiz-adv-x="1088" 
d="M1024 0v64h-64v384h64v64h-192v-64h64v-384h-192v384h64v64h-192v-64h64v-384h-192v384h64v64h-192v-64h64v-384h-192v384h64v64h-192v-64h64v-384h-64v-64h-64v-64h1088v64h-64zM512 960h64l512 -320v-64h-1088v64z" />
    <glyph glyph-name="uniE922" unicode="&#xe922;" 
d="M512 960q-106 0 -199 -40q-94 -40 -163.5 -109.5t-109.5 -163.5q-40 -93 -40 -199t40 -199q40 -94 109.5 -163.5t163.5 -109.5q93 -40 199 -40t199 40q94 40 163.5 109.5t109.5 163.5q40 93 40 199t-40 199q-40 94 -109.5 163.5t-163.5 109.5q-93 40 -199 40zM765 285
l-90 -90l-163 163l-163 -163l-90 90l163 163l-163 163l90 90l163 -163l163 163l90 -90l-163 -163l163 -163v0z" />
    <glyph glyph-name="uniE923" unicode="&#xe923;" 
d="M618 736h33q48 66 7.5 109t-7.5 115h-33q-29 -71 5 -113t-5 -111zM489 704h34q-34 72 7.5 131t-7.5 125h-34q40 -70 5.5 -127.5t-5.5 -128.5v0zM975 147q-5 18 -14 28t-35 12q-10 0 -19.5 1t-19.5 1v1.5t1 0.5h-102q-7 0 -12 5t-5 11q0 7 5 11.5t12 4.5h109q1 21 -1.5 43
t-9.5 35q-11 21 -21 38t-20 30q-16 21 -43.5 35t-50.5 22q-3 0 -6 1t-6 1q-2 -5 -6 -8.5t-10 -3.5h-97q-6 0 -11 4.5t-5 11.5q0 2 8.5 4.5t20.5 5.5q-15 34 -5.5 68l9.5 34q0 26 -32.5 61t-32.5 3t-76.5 -16l-76.5 16q-16 17 -28 40.5l-12 23.5l-29 -21t-34 -51
q-15 -9 -24.5 -23.5t-9.5 -32.5v-32q0 -12 2 -29t7 -35h72q6 0 11 -5t5 -11q0 -7 -5 -11.5t-11 -4.5h-97q-5 0 -9.5 3t-5.5 8q-16 3 -32.5 8t-32.5 11q-27 -1 -46 -19.5t-19 -44.5v-63q0 -9 2.5 -17.5t6.5 -15.5q2 1 3.5 1h3.5h129q7 0 11.5 -4.5t4.5 -11.5q0 -6 -4.5 -11
t-11.5 -5h-99q2 0 4.5 -1t4.5 -2q-13 1 -26.5 1h-27.5q-24 0 -51 -16.5t-38 -34.5q-16 -29 -25 -56.5t-12 -72.5q-1 -30 16 -83.5t39 -53.5h149h298.5t292.5 1h131l48.5 34t49.5 62q3 41 -20 63.5t-29 50.5v0zM371 768h34q-40 70 -5.5 95.5t5.5 96.5h-34q34 -72 -7 -99
t7 -93z" />
    <glyph glyph-name="uniE924" unicode="&#xe924;" 
d="M960 179l-269 269l269 269l-179 179l-269 -269l-269 269l-179 -179l269 -269l-269 -269l179 -179l269 269l269 -269z" />
    <glyph glyph-name="uniE925" unicode="&#xe925;" 
d="M512 960q-106 0 -199 -40q-94 -40 -163.5 -109.5t-109.5 -163.5q-40 -93 -40 -199t40 -199q40 -94 109.5 -163.5t163.5 -109.5q93 -40 199 -40t199 40q94 40 163.5 109.5t109.5 163.5q40 93 40 199t-40 199q-40 94 -109.5 163.5t-163.5 109.5q-93 40 -199 40zM433 212
l-236 235l91 91l145 -145l307 307l91 -90l-398 -398v0z" />
    <glyph glyph-name="uniE927" unicode="&#xe927;" 
d="M512 960q-106 0 -199 -40q-94 -40 -163.5 -109.5t-109.5 -163.5q-40 -93 -40 -199t40 -199q40 -94 109.5 -163.5t163.5 -109.5q93 -40 199 -40t199 40q94 40 163.5 109.5t109.5 163.5q40 93 40 199t-40 199q-40 94 -109.5 163.5t-163.5 109.5q-93 40 -199 40zM768 384
h-512v128h512v-128z" />
    <glyph glyph-name="uniE928" unicode="&#xe928;" 
d="M150 86q-75 75 -112 169q-38 95 -38 193t38 193q37 94 112 169t169 113q95 37 193 37t193 -37q94 -38 169 -113t113 -169q37 -95 37 -193t-37 -193q-38 -94 -113 -169t-169 -112q-95 -38 -193 -38t-193 38q-94 37 -169 112v0zM784 720l-544 -544q57 -56 128 -84
q70 -28 144 -28t145 28q70 28 127 84q56 57 84 128q28 70 28 144t-28 145q-28 70 -84 127z" />
    <glyph glyph-name="uniE929" unicode="&#xe929;" 
d="M512 960q-106 0 -199 -40q-94 -40 -163.5 -109.5t-109.5 -163.5q-40 -93 -40 -199t40 -199q40 -94 109.5 -163.5t163.5 -109.5q93 -40 199 -40t199 40q94 40 163.5 109.5t109.5 163.5q40 93 40 199t-40 199q-40 94 -109.5 163.5t-163.5 109.5q-93 40 -199 40zM704 320
q0 -26 -19 -45t-45 -19h-256q-26 0 -45 19t-19 45v256q0 26 19 45t45 19h256q26 0 45 -19t19 -45v-256z" />
    <glyph glyph-name="uniE92A" unicode="&#xe92a;" 
d="M512 -64q-106 0 -199 40q-94 40 -163.5 109.5t-109.5 163.5q-40 93 -40 199t40 199q40 94 109.5 163.5t163.5 109.5q93 40 199 40t199 -40q94 -40 163.5 -109.5t109.5 -163.5q40 -93 40 -199t-40 -199q-40 -94 -109.5 -163.5t-163.5 -109.5q-93 -40 -199 -40zM512 832
q-80 0 -149 -30q-70 -30 -122.5 -82.5t-82.5 -122.5q-30 -69 -30 -149t30 -149q30 -70 82.5 -122.5t122.5 -82.5q69 -30 149 -30t149 30q70 30 122.5 82.5t82.5 122.5q30 69 30 149t-30 149q-30 70 -82.5 122.5t-122.5 82.5q-69 30 -149 30zM448 320h128v-128h-128v128z
M448 704h128v-320h-128v320z" />
    <glyph glyph-name="uniE92B" unicode="&#xe92b;" 
d="M715 960h-422l-302 -301v-422l302 -301l422 3l300 298v422zM978 252l-278 -277l-392 -2l-281 279v392l281 279h392l278 -279v-392v0zM866 450q6 1 11.5 4t9.5 9q4 4 7 8.5t4 9.5q3 4 3.5 10t0.5 12q0 8 -1.5 14t-3.5 11l-6 10t-8 7q-5 4 -9.5 6t-10.5 3q-5 0 -11.5 1
t-15.5 1h-29v-110h24q10 0 18.5 0.5t16.5 3.5v0zM675 533q-5 7 -11.5 13t-13.5 8q-8 4 -16 6t-18 2q-8 0 -17 -2t-16 -4q-6 -4 -13 -9.5t-12 -13.5q-5 -7 -9.5 -16t-6.5 -19q-3 -12 -4.5 -23.5t-1.5 -26.5q0 -27 5.5 -48t16.5 -36q11 -14 25.5 -21.5t32.5 -7.5q19 0 34 7.5
t25 21.5q11 15 16.5 36t5.5 48q0 15 -1.5 27.5t-4.5 22.5t-6.5 19.5t-9.5 15.5v0zM315 905l-269 -269v-376l269 -269l378 2l267 267v376l-267 269h-378v0zM244 356q-4 -7 -8.5 -14t-9.5 -13q-6 -5 -13.5 -10t-15.5 -8t-18 -5t-22 -2q-15 0 -27 2t-22 5q-9 2 -19 6t-19 9v46
h2q9 -8 19 -15t21 -11q11 -5 21.5 -7t20.5 -2q15 0 26.5 3t18.5 9q8 6 11.5 14.5t3.5 19.5q0 9 -2.5 15.5t-6.5 11.5q-3 5 -9.5 9t-15.5 7q-6 1 -11.5 3t-10.5 2q-5 1 -11 3t-14 4q-7 2 -13.5 5t-11.5 5q-4 3 -9 7l-10 8q-4 5 -7 10t-6 12q-2 6 -3 13.5t-1 15.5
q0 17 6.5 30.5t18.5 25.5q13 12 29 18t35 6q11 0 21.5 -1.5t20.5 -4.5q10 -2 19 -5.5t18 -7.5v-44h-2q-8 6 -16 11.5t-17 9.5q-10 5 -20.5 7t-21.5 2q-12 0 -22 -2.5t-18 -9.5q-7 -6 -11 -14t-4 -17q0 -10 2.5 -17t6.5 -12q5 -5 11.5 -9t14.5 -7q5 -1 12 -2.5t16 -3.5
q8 -2 14.5 -4t12.5 -4q14 -4 23.5 -10.5t16.5 -16.5q6 -9 9 -19.5t3 -23.5q0 -9 -2 -17l-4 -16v0zM488 549h-85v-240h-44v240h-83v42h212v-42v0zM771 588h67q12 0 21.5 -1t18.5 -2q9 -3 16 -6.5t13 -7.5q7 -5 13.5 -12t9.5 -15q4 -8 6.5 -18t2.5 -21q0 -10 -2 -18.5
t-4 -16.5q-4 -9 -8.5 -15.5t-9.5 -11.5q-6 -8 -14 -13t-18 -9q-9 -4 -20.5 -5.5t-25.5 -1.5h-30v-105h-36v279v0zM733 448q0 -16 -2 -31.5t-6 -28.5q-4 -15 -10 -26t-13 -20q-9 -10 -18 -17.5t-21 -11.5q-10 -5 -22 -7t-25 -2t-25 2t-23 7q-10 4 -19.5 11.5t-17.5 17.5
q-8 9 -13.5 20t-9.5 26q-5 13 -6.5 28t-1.5 32q0 19 1.5 34.5t6.5 28.5q4 13 9.5 24.5t14.5 21.5q7 9 16.5 15.5t19.5 12.5q11 5 23 7.5t25 2.5q14 0 26.5 -2.5t22.5 -7.5q11 -6 20 -12.5t17 -15.5q7 -9 13 -21t10 -25q4 -14 6 -29t2 -34v0z" />
    <glyph glyph-name="uniE92C" unicode="&#xe92c;" 
d="M512 -64q-106 0 -199 40q-94 40 -163.5 109.5t-109.5 163.5q-40 93 -40 199t40 199q40 94 109.5 163.5t163.5 109.5q93 40 199 40t199 -40q94 -40 163.5 -109.5t109.5 -163.5q40 -93 40 -199t-40 -199q-40 -94 -109.5 -163.5t-163.5 -109.5q-93 -40 -199 -40zM512 832
q-80 0 -149 -30q-70 -30 -122.5 -82.5t-82.5 -122.5q-30 -69 -30 -149t30 -149q30 -70 82.5 -122.5t122.5 -82.5q69 -30 149 -30t149 30q70 30 122.5 82.5t82.5 122.5q30 69 30 149t-30 149q-30 70 -82.5 122.5t-122.5 82.5q-69 30 -149 30zM512 704q-80 0 -136 -56
t-56 -136h128q0 27 18.5 45.5t45.5 18.5t45.5 -18.5t18.5 -45.5t-18.5 -45.5t-45.5 -18.5h-9h-23q-13 0 -22.5 -9.5t-9.5 -22.5v-96h128v12q56 20 92 68.5t36 111.5q0 80 -56 136t-136 56zM512 256h-64v-64h128v64h-64z" />
    <glyph glyph-name="uniE92D" unicode="&#xe92d;" 
d="M512 960q-106 0 -199 -40q-94 -40 -163.5 -109.5t-109.5 -163.5q-40 -93 -40 -199t40 -199q40 -94 109.5 -163.5t163.5 -109.5q93 -40 199 -40t199 40q94 40 163.5 109.5t109.5 163.5q40 93 40 199t-40 199q-40 94 -109.5 163.5t-163.5 109.5q-93 40 -199 40zM512 832
q62 0 118.5 -19t103.5 -53l-534 -534q-34 47 -53 103.5t-19 118.5q0 79 30 149t82.5 122.5t122.5 82.5t149 30zM512 64q-62 0 -118.5 19t-103.5 53l534 534q34 -47 53 -103.5t19 -118.5q0 -79 -30 -149t-82.5 -122.5t-122.5 -82.5t-149 -30z" />
    <glyph glyph-name="uniE92E" unicode="&#xe92e;" 
d="M1024 640l-512 256l-512 -256l512 -256zM512 811l342 -171l-342 -171l-342 171zM921 499l103 -51l-512 -256l-512 256l103 51l409 -204zM921 307l103 -51l-512 -256l-512 256l103 51l409 -204z" />
    <glyph glyph-name="uniE92F" unicode="&#xe92f;" 
d="M512 960q-106 0 -199 -40q-94 -40 -163.5 -109.5t-109.5 -163.5q-40 -93 -40 -199t40 -199q40 -94 109.5 -163.5t163.5 -109.5q93 -40 199 -40t199 40q94 40 163.5 109.5t109.5 163.5q40 93 40 199t-40 199q-40 94 -109.5 163.5t-163.5 109.5q-93 40 -199 40zM512 768
q26 0 45 -19t19 -45t-19 -45t-45 -19t-45 19t-19 45t19 45t45 19zM352 192l96 64h64v256h-64l-32 64h160v-320h64l96 -64h-384z" />
    <glyph glyph-name="uniE930" unicode="&#xe930;" 
d="M1024 64l-448 448l192 192l-768 256l256 -768l192 192l448 -448z" />
    <glyph glyph-name="uniE932" unicode="&#xe932;" 
d="M448 832l128 -128h448v-704h-1024v832h448z" />
    <glyph glyph-name="uniE933" unicode="&#xe933;" 
d="M832 0l192 512h-832l-192 -512h832zM128 576l-128 -576v832h288l128 -128h416v-128h-704z" />
    <glyph glyph-name="uniE934" unicode="&#xe934;" 
d="M576 704l-128 128h-448v-832h1024v704h-448zM704 256h-128v-128h-128v128h-128v128h128v128h128v-128h128v-128z" />
    <glyph glyph-name="uniE935" unicode="&#xe935;" 
d="M576 704l-128 128h-448v-832h1024v704h-448zM704 256h-384v128h384v-128z" />
    <glyph glyph-name="uniE936" unicode="&#xe936;" 
d="M576 704l-128 128h-448v-832h1024v704h-448zM512 96l-224 224h160v256h128v-256h160z" />
    <glyph glyph-name="uniE937" unicode="&#xe937;" 
d="M0 832h128v-640h-128v640zM192 832h64v-640h-64v640zM320 832h64v-640h-64v640zM512 832h64v-640h-64v640zM768 832h64v-640h-64v640zM960 832h64v-640h-64v640zM640 832h32v-640h-32v640zM448 832h32v-640h-32v640zM864 832h32v-640h-32v640zM0 128h64v-64h-64v64z
M192 128h64v-64h-64v64zM320 128h64v-64h-64v64zM640 128h64v-64h-64v64zM960 128h64v-64h-64v64zM768 128h128v-64h-128v64zM448 128h128v-64h-128v64z" />
    <glyph glyph-name="uniE938" unicode="&#xe938;" 
d="M320 896h-256v-256h256v256zM384 960v0v-384h-384v384h384zM128 832h128v-128h-128v128zM960 896h-256v-256h256v256zM1024 960v0v-384h-384v384h384zM768 832h128v-128h-128v128zM320 256h-256v-256h256v256zM384 320v0v-384h-384v384h384zM128 192h128v-128h-128v128z
M448 960h64v-64h-64v64zM512 896h64v-64h-64v64zM448 832h64v-64h-64v64zM512 768h64v-64h-64v64zM448 704h64v-64h-64v64zM512 640h64v-64h-64v64zM448 576h64v-64h-64v64zM448 448h64v-64h-64v64zM512 384h64v-64h-64v64zM448 320h64v-64h-64v64zM512 256h64v-64h-64v64z
M448 192h64v-64h-64v64zM512 128h64v-64h-64v64zM448 64h64v-64h-64v64zM512 0h64v-64h-64v64zM960 448h64v-64h-64v64zM64 448h64v-64h-64v64zM128 512h64v-64h-64v64zM0 512h64v-64h-64v64zM256 512h64v-64h-64v64zM320 448h64v-64h-64v64zM384 512h64v-64h-64v64z
M576 448h64v-64h-64v64zM640 512h64v-64h-64v64zM704 448h64v-64h-64v64zM768 512h64v-64h-64v64zM832 448h64v-64h-64v64zM896 512h64v-64h-64v64zM960 320h64v-64h-64v64zM576 320h64v-64h-64v64zM640 384h64v-64h-64v64zM704 320h64v-64h-64v64zM832 320h64v-64h-64v64z
M896 384h64v-64h-64v64zM960 192h64v-64h-64v64zM576 192h64v-64h-64v64zM640 256h64v-64h-64v64zM768 256h64v-64h-64v64zM832 192h64v-64h-64v64zM896 256h64v-64h-64v64zM960 64h64v-64h-64v64zM640 128h64v-64h-64v64zM704 64h64v-64h-64v64zM768 128h64v-64h-64v64z
M832 64h64v-64h-64v64zM640 0h64v-64h-64v64zM768 0h64v-64h-64v64zM896 0h64v-64h-64v64z" />
    <glyph glyph-name="uniE939" unicode="&#xe939;" 
d="M576 704l-128 128h-448v-832h1024v704h-448zM512 480l224 -224h-160v-256h-128v256h-160z" />
    <glyph glyph-name="uniE93A" unicode="&#xe93a;" 
d="M918 731q-17 23 -39.5 48.5t-47.5 51.5q-26 25 -51.5 47.5t-48.5 39.5q-39 28 -59.5 35t-31.5 7h-496q-33 0 -56.5 -23.5t-23.5 -56.5v-864q0 -33 23.5 -56.5t56.5 -23.5h736q33 0 56.5 23.5t23.5 56.5v624q0 11 -7 31.5t-35 59.5v0zM785 785q23 -23 41.5 -43.5
t31.5 -37.5h-154v154q17 -13 37.5 -31.5t43.5 -41.5zM896 16q0 -7 -4.5 -11.5t-11.5 -4.5h-736q-7 0 -11.5 4.5t-4.5 11.5v864q0 7 4.5 11.5t11.5 4.5h77h171h170h78v-224q0 -13 9.5 -22.5t22.5 -9.5h224v-624z" />
    <glyph glyph-name="uniE93B" unicode="&#xe93b;" 
d="M480 896q-99 0 -187 -38q-87 -37 -152.5 -102.5t-102.5 -152.5q-38 -88 -38 -187t38 -187q37 -87 102.5 -152.5t152.5 -102.5q88 -38 187 -38t187 38q87 37 152.5 102.5t102.5 152.5q38 88 38 187t-38 187q-37 87 -102.5 152.5t-152.5 102.5q-88 38 -187 38zM480 32
q-80 0 -149 30q-70 30 -122.5 82.5t-82.5 122.5q-30 69 -30 149t30 149q30 70 82.5 122.5t122.5 82.5q69 30 149 30t149 -30q70 -30 122.5 -82.5t82.5 -122.5q30 -69 30 -149t-30 -149q-30 -70 -82.5 -122.5t-122.5 -82.5q-69 -30 -149 -30zM512 448v128h128v64h-128v64h-64
v-64h-128v-256h128v-128h-128v-64h128v-64h64v64h128v256h-128zM448 448h-64v128h64v-128zM576 256h-64v128h64v-128z" />
    <glyph glyph-name="uniE93C" unicode="&#xe93c;" 
d="M480 896q-99 0 -187 -38q-87 -37 -152.5 -102.5t-102.5 -152.5q-38 -88 -38 -187t38 -187q37 -87 102.5 -152.5t152.5 -102.5q88 -38 187 -38t187 38q87 37 152.5 102.5t102.5 152.5q38 88 38 187t-38 187q-37 87 -102.5 152.5t-152.5 102.5q-88 38 -187 38zM480 32
q-80 0 -149 30q-70 30 -122.5 82.5t-82.5 122.5q-30 69 -30 149t30 149q30 70 82.5 122.5t122.5 82.5q69 30 149 30t149 -30q70 -30 122.5 -82.5t82.5 -122.5q30 -69 30 -149t-30 -149q-30 -70 -82.5 -122.5t-122.5 -82.5q-69 -30 -149 -30zM671 316q-12 6 -24.5 3
t-19.5 -15q-13 -22 -35.5 -35t-47.5 -13h-128q-31 0 -56 18t-34 46h154q13 0 22.5 9.5t9.5 22.5t-9.5 22.5t-22.5 9.5h-160v64h160q13 0 22.5 9.5t9.5 22.5t-9.5 22.5t-22.5 9.5h-154q9 28 34 46t56 18h128q25 0 47.5 -13t35.5 -35q7 -12 19.5 -15t24.5 3q11 7 14.5 20
t-3.5 24q-21 37 -58 58.5t-80 21.5h-128q-58 0 -102 -36.5t-55 -91.5h-35q-13 0 -22.5 -9.5t-9.5 -22.5t9.5 -22.5t22.5 -9.5h32v-64h-32q-13 0 -22.5 -9.5t-9.5 -22.5t9.5 -22.5t22.5 -9.5h35q11 -55 55 -91.5t102 -36.5h128q43 0 80 21.5t58 58.5q7 11 3.5 24t-14.5 20v0z
" />
    <glyph glyph-name="uniE93D" unicode="&#xe93d;" 
d="M480 896q-99 0 -187 -38q-87 -37 -152.5 -102.5t-102.5 -152.5q-38 -88 -38 -187t38 -187q37 -87 102.5 -152.5t152.5 -102.5q88 -38 187 -38t187 38q87 37 152.5 102.5t102.5 152.5q38 88 38 187t-38 187q-37 87 -102.5 152.5t-152.5 102.5q-88 38 -187 38zM480 32
q-80 0 -149 30q-70 30 -122.5 82.5t-82.5 122.5q-30 69 -30 149t30 149q30 70 82.5 122.5t122.5 82.5q69 30 149 30t149 -30q70 -30 122.5 -82.5t82.5 -122.5q30 -69 30 -149t-30 -149q-30 -70 -82.5 -122.5t-122.5 -82.5q-69 -30 -149 -30zM608 256h-224v128h96
q13 0 22.5 9.5t9.5 22.5t-9.5 22.5t-22.5 9.5h-96v32q0 40 28 68t68 28q26 0 48 -13t35 -35q7 -12 19.5 -15t24.5 3q11 7 14.5 20t-2.5 24q-22 37 -59 58.5t-80 21.5q-66 0 -113 -47t-47 -113v-32h-32q-13 0 -22.5 -9.5t-9.5 -22.5t9.5 -22.5t22.5 -9.5h32v-192h288
q13 0 22.5 9.5t9.5 22.5t-9.5 22.5t-22.5 9.5v0z" />
    <glyph glyph-name="uniE93E" unicode="&#xe93e;" 
d="M480 896q-99 0 -187 -38q-87 -37 -152.5 -102.5t-102.5 -152.5q-38 -88 -38 -187t38 -187q37 -87 102.5 -152.5t152.5 -102.5q88 -38 187 -38t187 38q87 37 152.5 102.5t102.5 152.5q38 88 38 187t-38 187q-37 87 -102.5 152.5t-152.5 102.5q-88 38 -187 38zM480 32
q-80 0 -149 30q-70 30 -122.5 82.5t-82.5 122.5q-30 69 -30 149t30 149q30 70 82.5 122.5t122.5 82.5q69 30 149 30t149 -30q70 -30 122.5 -82.5t82.5 -122.5q30 -69 30 -149t-30 -149q-30 -70 -82.5 -122.5t-122.5 -82.5q-69 -30 -149 -30zM608 384q13 0 22.5 9.5t9.5 22.5
t-9.5 22.5t-22.5 9.5h-68l95 142q7 11 4.5 24t-13.5 21q-11 7 -24 4.5t-21 -13.5l-101 -152l-101 152q-8 11 -21 13.5t-24 -4.5q-11 -8 -13.5 -21t4.5 -24l95 -142h-68q-13 0 -22.5 -9.5t-9.5 -22.5t9.5 -22.5t22.5 -9.5h96v-64h-96q-13 0 -22.5 -9.5t-9.5 -22.5t9.5 -22.5
t22.5 -9.5h96v-96q0 -13 9.5 -22.5t22.5 -9.5t22.5 9.5t9.5 22.5v96h96q13 0 22.5 9.5t9.5 22.5t-9.5 22.5t-22.5 9.5h-96v64h96v0z" />
    <glyph glyph-name="uniE93F" unicode="&#xe93f;" 
d="M928 832h-832q-40 0 -68 -28t-28 -68v-576q0 -40 28 -68t68 -28h832q40 0 68 28t28 68v576q0 40 -28 68t-68 28zM96 768h832q13 0 22.5 -9.5t9.5 -22.5v-96h-896v96q0 13 9.5 22.5t22.5 9.5zM928 128h-832q-13 0 -22.5 9.5t-9.5 22.5v288h896v-288q0 -13 -9.5 -22.5
t-22.5 -9.5zM128 320h64v-128h-64v128zM256 320h64v-128h-64v128zM384 320h64v-128h-64v128z" />
    <glyph glyph-name="uniE940" unicode="&#xe940;" 
d="M384 896h-320q-26 0 -45 -19t-19 -45v-320q0 -26 19 -45t45 -19h320q26 0 45 19t19 45v320q0 26 -19 45t-45 19zM384 640h-320v64h320v-64zM896 896h-320q-26 0 -45 -19t-19 -45v-832q0 -26 19 -45t45 -19h320q26 0 45 19t19 45v832q0 26 -19 45t-45 19zM896 320h-320v64
h320v-64zM896 512h-320v64h320v-64zM384 384h-320q-26 0 -45 -19t-19 -45v-320q0 -26 19 -45t45 -19h320q26 0 45 19t19 45v320q0 26 -19 45t-45 19zM384 128h-128v-128h-64v128h-128v64h128v128h64v-128h128v-64z" />
    <glyph glyph-name="uniE941" unicode="&#xe941;" 
d="M512 960q-106 0 -199 -40q-94 -40 -163.5 -109.5t-109.5 -163.5q-40 -93 -40 -199t40 -199q40 -94 109.5 -163.5t163.5 -109.5q93 -40 199 -40t199 40q94 40 163.5 109.5t109.5 163.5q40 93 40 199t-40 199q-40 94 -109.5 163.5t-163.5 109.5q-93 40 -199 40zM320 448
q0 80 56 136t136 56t136 -56t56 -136t-56 -136t-136 -56t-136 56t-56 136zM926 277v0l-177 73q9 23 14 47.5t5 50.5t-5 50.5t-14 47.5l177 73q16 -39 25 -82t9 -89t-9 -89t-25 -82v0zM683 862v0v0l-73 -177q-23 9 -47.5 14t-50.5 5t-50.5 -5t-47.5 -14l-73 177q39 16 82 25
t89 9t89 -9t82 -25zM98 619l177 -73q-9 -23 -14 -47.5t-5 -50.5t5 -50.5t14 -47.5l-177 -73q-16 39 -25 82t-9 89t9 89t25 82v0zM341 34l73 177q23 -9 47.5 -14t50.5 -5t50.5 5t47.5 14l73 -177q-39 -16 -82 -25t-89 -9t-89 9t-82 25z" />
    <glyph glyph-name="uniE942" unicode="&#xe942;" 
d="M704 320q-48 -48 -64 -88t-64 -40t-96 40t-96 88t-88 96t-40 96t40 64t88 64q24 24 6 67t-54 85t-78 73t-66 31t-57 -30t-63 -66t-51 -66l-21 -30q0 -48 22 -116q23 -69 59.5 -141.5t81.5 -139.5q46 -68 93 -115t115 -93q67 -45 139.5 -81.5t141.5 -59.5q68 -22 116 -22
l30 21t66 51t66 63t30 57t-31 66t-73 78t-85 54t-67 -6z" />
    <glyph glyph-name="uniE943" unicode="&#xe943;" 
d="M1017 384q6 -42 6.5 -90.5t-17.5 -69.5q-16 -18 -65 -27q-49 -8 -101.5 -3.5t-94.5 23.5q-41 19 -41 55t16.5 64t-14.5 64q-31 35 -82 41.5t-112 6.5t-112 -6.5t-82 -41.5q-31 -36 -14.5 -64t16.5 -64t-41 -55q-42 -19 -94.5 -23.5t-101.5 3.5q-49 9 -65 27
q-18 21 -17.5 69.5t6.5 90.5q4 28 19 59t52 69v0v0q28 26 65 49q36 23 87 40.5t119 27.5q68 11 159 11v0h2h2h2h2v0q91 0 159 -11q68 -10 119 -27.5t87 -40.5q37 -23 65 -49v0v0q37 -38 52 -69t19 -59v0z" />
    <glyph glyph-name="uniE944" unicode="&#xe944;" 
d="M640 704v256h-448l-192 -192v-576h384v-256h640v768h-384zM192 869v-101h-101zM64 256v448h192v192h320v-192l-192 -192v-256h-320zM576 613v-101h-101zM960 0h-512v448h192v192h320v-640z" />
    <glyph glyph-name="uniE945" unicode="&#xe945;" 
d="M704 832h-128v64q0 26 -19 45t-45 19h-128q-26 0 -45 -19t-19 -45v-64h-128v-128h512v128zM512 832h-128v64v0v0h128v0v0v-64v0zM832 640v160q0 13 -9.5 22.5t-22.5 9.5h-64v-64h32v-128h-192l-192 -192v-256h-256v576h32v64h-64q-13 0 -22.5 -9.5t-9.5 -22.5v-640
q0 -13 9.5 -22.5t22.5 -9.5h288v-192h640v704h-192zM576 549v-101h-101zM960 0h-512v384h192v192h320v-576z" />
    <glyph glyph-name="uniE946" unicode="&#xe946;" 
d="M918 603q-17 23 -39.5 48.5t-47.5 51.5q-26 25 -51.5 47.5t-48.5 39.5q-39 28 -59.5 35t-31.5 7h-368q-33 0 -56.5 -23.5t-23.5 -56.5v-736q0 -33 23.5 -56.5t56.5 -23.5h608q33 0 56.5 23.5t23.5 56.5v496q0 11 -7 31.5t-35 59.5v0zM785 657q23 -23 41.5 -43.5
t31.5 -37.5h-154v154q17 -13 37.5 -31.5t43.5 -41.5v0zM896 16q0 -7 -4.5 -11.5t-11.5 -4.5h-608q-7 0 -11.5 4.5t-4.5 11.5v736q0 7 4.5 11.5t11.5 4.5h57h127h126h58v-224q0 -13 9.5 -22.5t22.5 -9.5h224v-496zM603 918q-39 28 -59.5 35t-31.5 7h-368q-33 0 -56.5 -23.5
t-23.5 -56.5v-736q0 -29 18.5 -51t45.5 -27v814q0 7 4.5 11.5t11.5 4.5h487q-7 6 -14 11.5t-14 10.5z" />
    <glyph glyph-name="uniE947" unicode="&#xe947;" 
d="M512 960q-66 0 -125 -25q-58 -25 -101.5 -68.5t-68.5 -101.5q-25 -59 -25 -125q0 -120 50 -245t110 -227t110 -167l50 -65l50 65t110 167t110 227t50 245q0 66 -25 125q-25 58 -68.5 101.5t-101.5 68.5q-59 25 -125 25zM512 448q-80 0 -136 56t-56 136t56 136t136 56
t136 -56t56 -136t-56 -136t-136 -56z" />
    <glyph glyph-name="uniE948" unicode="&#xe948;" 
d="M918 731q-17 23 -39.5 48.5t-47.5 51.5q-26 25 -51.5 47.5t-48.5 39.5q-39 28 -59.5 35t-31.5 7h-496q-33 0 -56.5 -23.5t-23.5 -56.5v-864q0 -33 23.5 -56.5t56.5 -23.5h736q33 0 56.5 23.5t23.5 56.5v624q0 11 -7 31.5t-35 59.5v0zM785 785q23 -23 41.5 -43.5
t31.5 -37.5h-154v154q17 -13 37.5 -31.5t43.5 -41.5zM896 16q0 -7 -4.5 -11.5t-11.5 -4.5h-736q-7 0 -11.5 4.5t-4.5 11.5v864q0 7 4.5 11.5t11.5 4.5h77h171h170h78v-224q0 -13 9.5 -22.5t22.5 -9.5h224v-624zM736 128h-448q-13 0 -22.5 9.5t-9.5 22.5t9.5 22.5t22.5 9.5
h448q13 0 22.5 -9.5t9.5 -22.5t-9.5 -22.5t-22.5 -9.5zM736 256h-448q-13 0 -22.5 9.5t-9.5 22.5t9.5 22.5t22.5 9.5h448q13 0 22.5 -9.5t9.5 -22.5t-9.5 -22.5t-22.5 -9.5zM736 384h-448q-13 0 -22.5 9.5t-9.5 22.5t9.5 22.5t22.5 9.5h448q13 0 22.5 -9.5t9.5 -22.5
t-9.5 -22.5t-22.5 -9.5z" />
    <glyph glyph-name="uniE949" unicode="&#xe949;" 
d="M864 960h-768q-40 0 -68 -28t-28 -68v-832q0 -40 28 -68t68 -28h768q40 0 68 28t28 68v832q0 40 -28 68t-68 28zM832 64h-704v768h704v-768zM256 512h448v-64h-448v64zM256 384h448v-64h-448v64zM256 256h448v-64h-448v64zM256 640h448v-64h-448v64z" />
    <glyph glyph-name="uniE94A" unicode="&#xe94a;" 
d="M512 960q-106 0 -199 -40q-94 -40 -163.5 -109.5t-109.5 -163.5q-40 -93 -40 -199t40 -199q40 -94 109.5 -163.5t163.5 -109.5q93 -40 199 -40t199 40q94 40 163.5 109.5t109.5 163.5q40 93 40 199t-40 199q-40 94 -109.5 163.5t-163.5 109.5q-93 40 -199 40zM96 448
q0 86 33 162q32 76 88.5 132.5t132.5 88.5q76 33 162 33q82 0 155 -30t129 -82l-412 -176l-176 -412q-52 56 -82 129t-30 155v0zM585 375l-256 -110l110 256zM512 32q-82 0 -155 30t-129 82l412 176l176 412q52 -56 82 -129t30 -155q0 -86 -33 -162q-32 -76 -88.5 -132.5
t-132.5 -88.5q-76 -33 -162 -33v0z" />
    <glyph glyph-name="uniE94B" unicode="&#xe94b;" 
d="M864 960h-768q-40 0 -68 -28t-28 -68v-832q0 -40 28 -68t68 -28h768q40 0 68 28t28 68v832q0 40 -28 68t-68 28zM832 64h-704v768h704v-768zM256 384h448v-64h-448v64zM256 256h448v-64h-448v64zM320 672q0 40 28 68t68 28t68 -28t28 -68t-28 -68t-68 -28t-68 28t-28 68z
M480 576h-128q-40 0 -68 -19t-28 -45v-64h320v64q0 26 -28 45t-68 19z" />
    <glyph glyph-name="uniE94C" unicode="&#xe94c;" 
d="M672 768l-320 128l-352 -128v-768l352 128l320 -128l352 128v768zM384 814l256 -102v-630l-256 102v630zM64 723l256 93v-632l-256 -93v632zM960 173l-256 -93v632l256 93v-632z" />
    <glyph glyph-name="uniE94D" unicode="&#xe94d;" horiz-adv-x="1088" 
d="M640 896q93 0 174 -35q82 -35 143 -96t96 -143q35 -81 35 -174t-35 -174q-35 -82 -96 -143t-143 -96q-81 -35 -174 -35v96q71 0 135 26.5t114 76.5t76.5 114t26.5 135t-26.5 135t-76.5 114t-114 76.5t-135 26.5t-135 -26.5t-114 -76.5q-38 -38 -63 -85.5t-34 -99.5h186
l-224 -256l-224 256h165q11 81 50 152q39 70 98 121.5t135 81.5q75 29 160 29zM832 512v-128h-256v320h128v-192h128z" />
    <glyph glyph-name="uniE94E" unicode="&#xe94e;" 
d="M659 211l-211 210v283h128v-229l173 -174zM512 960q-106 0 -199 -40q-94 -40 -163.5 -109.5t-109.5 -163.5q-40 -93 -40 -199t40 -199q40 -94 109.5 -163.5t163.5 -109.5q93 -40 199 -40t199 40q94 40 163.5 109.5t109.5 163.5q40 93 40 199t-40 199q-40 94 -109.5 163.5
t-163.5 109.5q-93 40 -199 40zM512 64q-80 0 -149 30q-70 30 -122.5 82.5t-82.5 122.5q-30 69 -30 149t30 149q30 70 82.5 122.5t122.5 82.5q69 30 149 30t149 -30q70 -30 122.5 -82.5t82.5 -122.5q30 -69 30 -149t-30 -149q-30 -70 -82.5 -122.5t-122.5 -82.5
q-69 -30 -149 -30z" />
    <glyph glyph-name="uniE94F" unicode="&#xe94f;" 
d="M512 960q-106 0 -199 -40q-94 -40 -163.5 -109.5t-109.5 -163.5q-40 -93 -40 -199t40 -199q40 -94 109.5 -163.5t163.5 -109.5q93 -40 199 -40t199 40q94 40 163.5 109.5t109.5 163.5q40 93 40 199t-40 199q-40 94 -109.5 163.5t-163.5 109.5q-93 40 -199 40zM659 211
l-211 210v283h128v-229l173 -174l-90 -90v0z" />
    <glyph glyph-name="uniE951" unicode="&#xe951;" 
d="M864 -64h-704q-13 0 -22.5 9.5t-9.5 22.5v672h288q13 0 22.5 9.5t9.5 22.5v288h416q13 0 22.5 -9.5t9.5 -22.5v-960q0 -13 -9.5 -22.5t-22.5 -9.5zM384 960v-256h-256z" />
    <glyph glyph-name="uniE952" unicode="&#xe952;" 
d="M512 767v65h128v64q0 27 -18.5 45.5t-45.5 18.5h-192q-27 0 -45.5 -18.5t-18.5 -45.5v-64h128v-65q-81 -6 -151 -41t-121.5 -90.5t-81.5 -128.5t-30 -155q0 -86 33 -162q32 -76 88.5 -132.5t132.5 -88.5q76 -33 162 -33t162 33q76 32 132.5 88.5t88.5 132.5q33 76 33 162
q0 82 -30 155t-81.5 128.5t-121.5 90.5t-151 41zM706 126q-45 -46 -103.5 -70t-122.5 -24t-122.5 24t-103.5 70q-46 45 -70 103.5t-24 122.5t24 122.5t70 103.5q43 44 99 68t117 26l-22 -314q-1 -20 8 -29t24 -9t24 9t8 29l-22 314q61 -2 117 -26t99 -68q46 -45 70 -103.5
t24 -122.5t-24 -122.5t-70 -103.5v0z" />
    <glyph glyph-name="uniE953" unicode="&#xe953;" 
d="M320 576h128v-128h-128v128zM512 576h128v-128h-128v128zM704 576h128v-128h-128v128zM128 192h128v-128h-128v128zM320 192h128v-128h-128v128zM512 192h128v-128h-128v128zM320 384h128v-128h-128v128zM512 384h128v-128h-128v128zM704 384h128v-128h-128v128zM128 384
h128v-128h-128v128zM832 960v-64h-128v64h-448v-64h-128v64h-128v-1024h960v1024h-128zM896 0h-832v704h832v-704z" />
    <glyph glyph-name="uniE954" unicode="&#xe954;" 
d="M256 896h512v-128h-512v128zM960 704h-896q-26 0 -45 -19t-19 -45v-320q0 -26 19 -45t45 -19h192v-256h512v256h192q26 0 45 19t19 45v320q0 26 -19 45t-45 19zM128 512q-27 0 -45.5 18.5t-18.5 45.5t18.5 45.5t45.5 18.5t45.5 -18.5t18.5 -45.5t-18.5 -45.5t-45.5 -18.5
zM704 64h-384v320h384v-320z" />
    <glyph glyph-name="uniE955" unicode="&#xe955;" horiz-adv-x="1152" 
d="M1088 832h-1024q-26 0 -45 -19t-19 -45v-640q0 -26 19 -45t45 -19h1024q26 0 45 19t19 45v640q0 26 -19 45t-45 19zM640 704h128v-128h-128v128zM832 512v-128h-128v128h128zM448 704h128v-128h-128v128zM640 512v-128h-128v128h128zM256 704h128v-128h-128v128zM448 512
v-128h-128v128h128zM128 704h64v-128h-64v128zM128 512h128v-128h-128v128zM192 192h-64v128h64v-128zM768 192h-512v128h512v-128zM1024 192h-192v128h192v-128zM1024 384h-128v128h128v-128zM1024 576h-192v128h192v-128z" />
    <glyph glyph-name="uniE956" unicode="&#xe956;" 
d="M832 64h-640v128l192 320l263 -320l185 128v-256zM832 480q0 -40 -28 -68t-68 -28t-68 28t-28 68t28 68t68 28t68 -28t28 -68zM918 731q-17 23 -39.5 48.5t-47.5 51.5q-26 25 -51.5 47.5t-48.5 39.5q-39 28 -59.5 35t-31.5 7h-496q-33 0 -56.5 -23.5t-23.5 -56.5v-864
q0 -33 23.5 -56.5t56.5 -23.5h736q33 0 56.5 23.5t23.5 56.5v624q0 11 -7 31.5t-35 59.5v0zM785 785q23 -23 41.5 -43.5t31.5 -37.5h-154v154q17 -13 37.5 -31.5t43.5 -41.5zM896 16q0 -7 -4.5 -11.5t-11.5 -4.5h-736q-7 0 -11.5 4.5t-4.5 11.5v864q0 7 4.5 11.5t11.5 4.5
h77h171h170h78v-224q0 -13 9.5 -22.5t22.5 -9.5h224v-624z" />
    <glyph glyph-name="uniE957" unicode="&#xe957;" 
d="M918 731q-17 23 -39.5 48.5t-47.5 51.5q-26 25 -51.5 47.5t-48.5 39.5q-39 28 -59.5 35t-31.5 7h-496q-33 0 -56.5 -23.5t-23.5 -56.5v-864q0 -33 23.5 -56.5t56.5 -23.5h736q33 0 56.5 23.5t23.5 56.5v624q0 11 -7 31.5t-35 59.5v0v0zM785 785q23 -23 41.5 -43.5
t31.5 -37.5h-154v154q17 -13 37.5 -31.5t43.5 -41.5v0zM896 16q0 -7 -4.5 -11.5t-11.5 -4.5h-736q-7 0 -11.5 4.5t-4.5 11.5v864q0 7 4.5 11.5t11.5 4.5h77h171h170h78v-224q0 -13 9.5 -22.5t22.5 -9.5h224v-624zM756 569q-5 4 -12 6t-14 0l-320 -64q-11 -2 -18.5 -11
t-7.5 -20v-237q-14 6 -30.5 9.5t-33.5 3.5q-53 0 -90.5 -28t-37.5 -68t37.5 -68t90.5 -28t90.5 28t37.5 68v230l256 51v-134q-14 6 -30.5 9.5t-33.5 3.5q-53 0 -90.5 -28t-37.5 -68t37.5 -68t90.5 -28t90.5 28t37.5 68v320q0 7 -3 13.5t-9 11.5v0z" />
    <glyph glyph-name="uniE958" unicode="&#xe958;" 
d="M384 576l320 -224l-320 -224v448zM918 731q-17 23 -39.5 48.5t-47.5 51.5q-26 25 -51.5 47.5t-48.5 39.5q-39 28 -59.5 35t-31.5 7h-496q-33 0 -56.5 -23.5t-23.5 -56.5v-864q0 -33 23.5 -56.5t56.5 -23.5h736q33 0 56.5 23.5t23.5 56.5v624q0 11 -7 31.5t-35 59.5v0z
M785 785q23 -23 41.5 -43.5t31.5 -37.5h-154v154q17 -13 37.5 -31.5t43.5 -41.5zM896 16q0 -7 -4.5 -11.5t-11.5 -4.5h-736q-7 0 -11.5 4.5t-4.5 11.5v864q0 7 4.5 11.5t11.5 4.5h77h171h170h78v-224q0 -13 9.5 -22.5t22.5 -9.5h224v-624z" />
    <glyph glyph-name="uniE959" unicode="&#xe959;" 
d="M918 731q-17 23 -39.5 48.5t-47.5 51.5q-26 25 -51.5 47.5t-48.5 39.5q-39 28 -59.5 35t-31.5 7h-496q-33 0 -56.5 -23.5t-23.5 -56.5v-864q0 -33 23.5 -56.5t56.5 -23.5h736q33 0 56.5 23.5t23.5 56.5v624q0 11 -7 31.5t-35 59.5v0v0v0zM785 785q23 -23 41.5 -43.5
t31.5 -37.5h-154v154q17 -13 37.5 -31.5t43.5 -41.5v0v0zM896 16q0 -7 -4.5 -11.5t-11.5 -4.5h-736q-7 0 -11.5 4.5t-4.5 11.5v864q0 7 4.5 11.5t11.5 4.5h77h171h170h78v-224q0 -13 9.5 -22.5t22.5 -9.5h224v-624zM256 448h320v-320h-320v320zM576 320l192 128v-320
l-192 128v64z" />
    <glyph glyph-name="uniE95A" unicode="&#xe95a;" 
d="M918 731q-17 23 -39.5 48.5t-47.5 51.5q-26 25 -51.5 47.5t-48.5 39.5q-39 28 -59.5 35t-31.5 7h-496q-33 0 -56.5 -23.5t-23.5 -56.5v-864q0 -33 23.5 -56.5t56.5 -23.5h736q33 0 56.5 23.5t23.5 56.5v624q0 11 -7 31.5t-35 59.5v0v0v0zM785 785q23 -23 41.5 -43.5
t31.5 -37.5h-154v154q17 -13 37.5 -31.5t43.5 -41.5v0v0zM896 16q0 -7 -4.5 -11.5t-11.5 -4.5h-736q-7 0 -11.5 4.5t-4.5 11.5v864q0 7 4.5 11.5t11.5 4.5h77h171h170h78v-224q0 -13 9.5 -22.5t22.5 -9.5h224v-624zM256 896h128v-64h-128v64zM384 832h128v-64h-128v64z
M256 768h128v-64h-128v64zM384 704h128v-64h-128v64zM256 640h128v-64h-128v64zM384 576h128v-64h-128v64zM256 512h128v-64h-128v64zM384 448h128v-64h-128v64zM256 112q0 -20 14 -34t34 -14h160q20 0 34 14t14 34v160q0 20 -14 34t-34 14h-80v64h-128v-272zM448 192v-64
h-128v64h128z" />
    <glyph glyph-name="uniE95B" unicode="&#xe95b;" 
d="M705 960h-705v-1022l258 210l256 -212l257 212l253 -211v703zM897 194l-127 103l-256 -211l-255 211l-131 -103v88v200v216v136h70h97h110h107v-384h385v-77v-84v-67v-28v0zM641 578v51v70.5v73.5v61q19 -19 54 -55l73.5 -73.5l73.5 -73.5t55 -54h-61h-73.5h-70.5h-51z
" />
    <glyph glyph-name="uniE95C" unicode="&#xe95c;" 
d="M1017 308l-256 320q-5 6 -11.5 9t-13.5 3h-448q-7 0 -13.5 -3t-11.5 -9l-256 -320q-3 -4 -5 -9.5t-2 -10.5v-288q0 -27 18.5 -45.5t45.5 -18.5h896q27 0 45.5 18.5t18.5 45.5v288q0 5 -2 10.5t-5 9.5zM960 256h-224l-128 -128h-192l-128 128h-224v21l239 299h418
l239 -299v-21zM736 448h-448q-13 0 -22.5 9.5t-9.5 22.5t9.5 22.5t22.5 9.5h448q13 0 22.5 -9.5t9.5 -22.5t-9.5 -22.5t-22.5 -9.5zM800 320h-576q-13 0 -22.5 9.5t-9.5 22.5t9.5 22.5t22.5 9.5h576q13 0 22.5 -9.5t9.5 -22.5t-9.5 -22.5t-22.5 -9.5z" />
    <glyph glyph-name="uniE95D" unicode="&#xe95d;" 
d="M1017 308l-256 320q-5 6 -11.5 9t-13.5 3h-448q-7 0 -13.5 -3t-11.5 -9l-256 -320q-3 -4 -5 -9.5t-2 -10.5v-288q0 -27 18.5 -45.5t45.5 -18.5h896q27 0 45.5 18.5t18.5 45.5v288q0 5 -2 10.5t-5 9.5zM960 256h-224l-128 -128h-192l-128 128h-224v21l239 299h418
l239 -299v-21z" />
    <glyph glyph-name="uniE95E" unicode="&#xe95e;" 
d="M832 896h-640l-192 -192v-672q0 -13 9.5 -22.5t22.5 -9.5h960q13 0 22.5 9.5t9.5 22.5v672zM512 128l-320 256h192v192h256v-192h192zM155 768l64 64h586l64 -64h-714z" />
    <glyph glyph-name="uniE95F" unicode="&#xe95f;" 
d="M832 896h-640l-192 -192v-672q0 -13 9.5 -22.5t22.5 -9.5h960q13 0 22.5 9.5t9.5 22.5v672zM640 320v-192h-256v192h-192l320 256l320 -256h-192zM155 768l64 64h586l64 -64h-714z" />
    <glyph glyph-name="uniE960" unicode="&#xe960;" 
d="M512 384l256 256h-192v256h-128v-256h-192zM745 489l-72 -72l260 -97l-421 -157l-421 157l260 97l-72 72l-279 -105v-256l512 -192l512 192v256z" />
    <glyph glyph-name="uniE961" unicode="&#xe961;" 
d="M448 384h128v256h192l-256 256l-256 -256h192v-256zM640 528v-99l293 -109l-421 -157l-421 157l293 109v99l-384 -144v-256l512 -192l512 192v256z" />
    <glyph glyph-name="uniE962" unicode="&#xe962;" 
d="M691 960h-691v-1024l255 213l257 -213l256 212l256 -212v694zM576 512v320l320 -320h-320z" />
    <glyph glyph-name="uniE963" unicode="&#xe963;" 
d="M192 64h640q80 0 136 56t56 136h-1024q0 -80 56 -136t136 -56zM832 192h64v-64h-64v64zM960 832h-896l-64 -512h1024z" />
    <glyph glyph-name="uniE964" unicode="&#xe964;" 
d="M512 960q-106 0 -199 -13q-94 -12 -163.5 -34t-109.5 -51t-40 -62v-128q0 -33 40 -62t109.5 -51t163.5 -34q93 -13 199 -13t199 13q94 12 163.5 34t109.5 51t40 62v128q0 33 -40 62t-109.5 51t-163.5 34q-93 13 -199 13zM512 416q-106 0 -199 13q-94 12 -163.5 34
t-109.5 51t-40 62v-192q0 -33 40 -62t109.5 -51t163.5 -34q93 -13 199 -13t199 13q94 12 163.5 34t109.5 51t40 62v192q0 -33 -40 -62t-109.5 -51t-163.5 -34q-93 -13 -199 -13zM512 128q-106 0 -199 13q-94 12 -163.5 34t-109.5 51t-40 62v-192q0 -33 40 -62t109.5 -51
t163.5 -34q93 -13 199 -13t199 13q94 12 163.5 34t109.5 51t40 62v192q0 -33 -40 -62t-109.5 -51t-163.5 -34q-93 -13 -199 -13z" />
    <glyph glyph-name="uniE965" unicode="&#xe965;" 
d="M1024 960h-768v-256h-79h-84h-66h-27v-768h768v256h256v768zM640 64h-512v384h128v-256h384v-85.5v-42.5zM896 320h-512v384h512v-384z" />
    <glyph glyph-name="uniE966" unicode="&#xe966;" 
d="M896 704v128h-896v-704q0 -27 18.5 -45.5t45.5 -18.5h864q40 0 68 28t28 68v544h-128zM832 128h-768v640h768v-640zM128 640h640v-64h-640v64zM512 512h256v-64h-256v64zM512 384h256v-64h-256v64zM512 256h192v-64h-192v64zM128 512h320v-320h-320v320z" />
    <glyph glyph-name="uniE967" unicode="&#xe967;" 
d="M960 832v0v0v-768v0v0h-896v0v0v768v0v0h896v0zM960 896h-896q-26 0 -45 -19t-19 -45v-768q0 -26 19 -45t45 -19h896q26 0 45 19t19 45v768q0 26 -19 45t-45 19v0zM832 672q0 -40 -28 -68t-68 -28t-68 28t-28 68t28 68t68 28t68 -28t28 -68zM896 128h-768v128l224 384
l256 -320h64l224 192v-384z" />
    <glyph glyph-name="uniE968" unicode="&#xe968;" horiz-adv-x="1152" 
d="M1088 832h-64v64q0 26 -19 45t-45 19h-896q-26 0 -45 -19t-19 -45v-768q0 -26 19 -45t45 -19h64v-64q0 -26 19 -45t45 -19h896q26 0 45 19t19 45v768q0 26 -19 45t-45 19zM128 768v-640h-64v0v0v768v0v0h896v0v0v-64h-768q-26 0 -45 -19t-19 -45v0zM1088 0v0v0h-896v0v0
v768v0v0h896v0v0v-768zM960 608q0 -40 -28 -68t-68 -28t-68 28t-28 68t28 68t68 28t68 -28t28 -68zM1024 64h-768v128l224 384l256 -320h64l224 192v-384z" />
    <glyph glyph-name="uniE969" unicode="&#xe969;" horiz-adv-x="1040" 
d="M851 14l-84 23v232l80 -23l116 432l-586 157l-39 -144h-66l60 222l709 -190l-190 -709v0zM737 -63h-736v734h736v-734zM673 607h-608v-447h608v447v0zM252 288l73 118l72 -73l101 151l105 -260h-465l59 119l55 -55v0zM208 413q-20 0 -34 14t-14 34t14 34t34 14t34 -14
t14 -34t-14 -34t-34 -14z" />
    <glyph glyph-name="uniE96A" unicode="&#xe96a;" 
d="M0 832v-768h1024v768h-1024zM192 128h-128v128h128v-128zM192 384h-128v128h128v-128zM192 640h-128v128h128v-128zM768 128h-512v640h512v-640zM960 128h-128v128h128v-128zM960 384h-128v128h128v-128zM960 640h-128v128h128v-128zM384 640v-384l256 192z" />
    <glyph glyph-name="uniE96B" unicode="&#xe96b;" 
d="M1024 256q0 -26 -19 -45t-45 -19v-70q28 -10 46 -34.5t18 -55.5q0 -40 -28 -68t-68 -28q-31 0 -55.5 18t-34.5 46h-70q0 -26 -19 -45t-45 -19t-45 19t-19 45h-64q0 -26 -19 -45t-45 -19t-45 19t-19 45h-64q0 -26 -19 -45t-45 -19t-45 19t-19 45h-70q-10 -28 -34.5 -46
t-55.5 -18q-40 0 -68 28t-28 68q0 31 18 55.5t46 34.5v70q-26 0 -45 19t-19 45t19 45t45 19v64q-26 0 -45 19t-19 45t19 45t45 19v64q-26 0 -45 19t-19 45t19 45t45 19v70q-28 10 -46 34.5t-18 55.5q0 40 28 68t68 28q31 0 55.5 -18t34.5 -46h70q0 26 19 45t45 19t45 -19
t19 -45h64q0 26 19 45t45 19t45 -19t19 -45h64q0 26 19 45t45 19t45 -19t19 -45h70q10 28 34.5 46t55.5 18q40 0 68 -28t28 -68q0 -31 -18 -55.5t-46 -34.5v-70q26 0 45 -19t19 -45t-19 -45t-45 -19v-64q26 0 45 -19t19 -45t-19 -45t-45 -19v-64q26 0 45 -19t19 -45z
M832 736q0 13 -9.5 22.5t-22.5 9.5h-576q-13 0 -22.5 -9.5t-9.5 -22.5v-576q0 -13 9.5 -22.5t22.5 -9.5h576q13 0 22.5 9.5t9.5 22.5v576z" />
    <glyph glyph-name="uniE96C" unicode="&#xe96c;" 
d="M928 960h-832q-13 0 -22.5 -9.5t-9.5 -22.5v-960q0 -13 9.5 -22.5t22.5 -9.5h832q13 0 22.5 9.5t9.5 22.5v960q0 13 -9.5 22.5t-22.5 9.5zM160 64q-13 0 -22.5 9.5t-9.5 22.5t9.5 22.5t22.5 9.5t22.5 -9.5t9.5 -22.5t-9.5 -22.5t-22.5 -9.5zM160 192q-13 0 -22.5 9.5
t-9.5 22.5t9.5 22.5t22.5 9.5t22.5 -9.5t9.5 -22.5t-9.5 -22.5t-22.5 -9.5zM160 320q-13 0 -22.5 9.5t-9.5 22.5t9.5 22.5t22.5 9.5t22.5 -9.5t9.5 -22.5t-9.5 -22.5t-22.5 -9.5zM160 448q-13 0 -22.5 9.5t-9.5 22.5t9.5 22.5t22.5 9.5t22.5 -9.5t9.5 -22.5t-9.5 -22.5
t-22.5 -9.5zM160 576q-13 0 -22.5 9.5t-9.5 22.5t9.5 22.5t22.5 9.5t22.5 -9.5t9.5 -22.5t-9.5 -22.5t-22.5 -9.5zM160 704q-13 0 -22.5 9.5t-9.5 22.5t9.5 22.5t22.5 9.5t22.5 -9.5t9.5 -22.5t-9.5 -22.5t-22.5 -9.5zM160 832q-13 0 -22.5 9.5t-9.5 22.5t9.5 22.5t22.5 9.5
t22.5 -9.5t9.5 -22.5t-9.5 -22.5t-22.5 -9.5zM768 32q0 -13 -9.5 -22.5t-22.5 -9.5h-448q-13 0 -22.5 9.5t-9.5 22.5v320q0 13 9.5 22.5t22.5 9.5h448q13 0 22.5 -9.5t9.5 -22.5v-320zM768 480q0 -13 -9.5 -22.5t-22.5 -9.5h-448q-13 0 -22.5 9.5t-9.5 22.5v384
q0 13 9.5 22.5t22.5 9.5h448q13 0 22.5 -9.5t9.5 -22.5v-384zM864 64q-13 0 -22.5 9.5t-9.5 22.5t9.5 22.5t22.5 9.5t22.5 -9.5t9.5 -22.5t-9.5 -22.5t-22.5 -9.5zM864 192q-13 0 -22.5 9.5t-9.5 22.5t9.5 22.5t22.5 9.5t22.5 -9.5t9.5 -22.5t-9.5 -22.5t-22.5 -9.5z
M864 320q-13 0 -22.5 9.5t-9.5 22.5t9.5 22.5t22.5 9.5t22.5 -9.5t9.5 -22.5t-9.5 -22.5t-22.5 -9.5zM864 448q-13 0 -22.5 9.5t-9.5 22.5t9.5 22.5t22.5 9.5t22.5 -9.5t9.5 -22.5t-9.5 -22.5t-22.5 -9.5zM864 576q-13 0 -22.5 9.5t-9.5 22.5t9.5 22.5t22.5 9.5t22.5 -9.5
t9.5 -22.5t-9.5 -22.5t-22.5 -9.5zM864 704q-13 0 -22.5 9.5t-9.5 22.5t9.5 22.5t22.5 9.5t22.5 -9.5t9.5 -22.5t-9.5 -22.5t-22.5 -9.5zM864 832q-13 0 -22.5 9.5t-9.5 22.5t9.5 22.5t22.5 9.5t22.5 -9.5t9.5 -22.5t-9.5 -22.5t-22.5 -9.5z" />
    <glyph glyph-name="uniE96D" unicode="&#xe96d;" 
d="M304 352q0 -43 16 -81q17 -38 45 -66t66 -45q38 -16 81 -16t81 16q38 17 66 45t45 66q16 38 16 81t-16 81q-17 38 -45 66t-66 45q-38 16 -81 16t-81 -16q-38 -17 -66 -45t-45 -66q-16 -38 -16 -81zM960 704h-224q-12 48 -30 88t-66 40h-256q-48 0 -66 -40t-30 -88h-224
q-26 0 -45 -19t-19 -45v-576q0 -26 19 -45t45 -19h896q26 0 45 19t19 45v576q0 26 -19 45t-45 19zM512 68q-59 0 -111 22q-51 23 -89.5 61.5t-61.5 89.5q-22 52 -22 111t22 111q23 51 61.5 89.5t89.5 61.5q52 22 111 22t111 -22q51 -23 89.5 -61.5t61.5 -89.5
q22 -52 22 -111t-22 -111q-23 -51 -61.5 -89.5t-89.5 -61.5q-52 -22 -111 -22zM960 512h-128v64h128v-64z" />
    <glyph glyph-name="uniE96E" unicode="&#xe96e;" 
d="M678 513l182 309q-35 32 -74 57q-40 26 -84 44t-92 27q-47 10 -98 10q-24 0 -47 -2.5t-46 -6.5zM638 320h368q8 31 13 63t5 65q0 46 -8 91q-9 44 -24.5 85t-37.5 78t-49 71l-267 -453v0zM528 640l-173 293q-54 -18 -102 -46q-49 -28 -89.5 -65.5t-72.5 -83.5t-53 -98h490
zM500 256l173 -292q53 18 101 46q48 29 88 66t71 83q32 45 53 97h-486v0zM387 576h-369q-8 -31 -13 -63t-5 -65q0 -47 8 -91q9 -44 24.5 -85t37.5 -79t50 -71zM349 385l-183 -312q34 -32 73 -57q40 -25 84 -43t91 -27q48 -10 98 -10q25 0 49.5 2.5t47.5 7.5l-260 439v0z" />
    <glyph glyph-name="uniE96F" unicode="&#xe96f;" 
d="M895 704h-126l127 127l-126 129h-178l128 -127l-131 -129h-151l130 127l-129 129h-181l128 -127l-131 -129h-128l130 127l-128 129h-129v-1024h1024v1024h-126l126 -128zM896 64h-768v128h768v-128zM896 320h-768v128h768v-128z" />
    <glyph glyph-name="uniE970" unicode="&#xe970;" 
d="M898 411l-175 71v140l175 71q15 0 25 -10.5t10 -25.5v-211q0 -14 -10 -24.5t-25 -10.5v0zM565 658q-66 0 -112 46t-46 112q0 65 46 111.5t112 46.5q65 0 111.5 -46.5t46.5 -111.5q0 -66 -46.5 -112t-111.5 -46v0zM249 658q-66 0 -112 46t-46 112q0 65 46 111.5t112 46.5
q65 0 111.5 -46.5t46.5 -111.5q0 -66 -46.5 -112t-111.5 -46zM688 658v-317h-196q-2 -22 -11 -40t-23 -29h20l140 -316h-35l-47 106h-93v-176h-35v176h-95l-48 -106h-34l142 316h13q-14 11 -23 29t-11 40h-226v317h562v0zM408 261q-1 1 -2 1.5t-2 0.5l-75 -166h79v164v0z
M443 264v-167h78l-75 168q-1 0 -1.5 -0.5t-1.5 -0.5v0z" />
    <glyph glyph-name="uniE971" unicode="&#xe971;" 
d="M981 800q-54 8 -110 14q-57 6 -116 10t-119 6q-61 2 -124 2t-124 -2q-60 -2 -119 -6t-116 -10q-56 -6 -110 -14q-11 -41 -18 -83q-8 -42 -13.5 -86.5t-8.5 -89.5q-3 -46 -3 -93t3 -93q3 -45 8.5 -89.5t13.5 -86.5q7 -42 18 -83q54 -8 110 -14q57 -6 116 -10t119 -6
q61 -2 124 -2t124 2q60 2 119 6t116 10q56 6 110 14q11 41 18 83q8 42 13.5 86.5t8.5 89.5q3 46 3 93t-3 93q-3 45 -8.5 89.5t-13.5 86.5q-7 42 -18 83v0zM384 256v384l320 -192l-320 -192v0z" />
    <glyph glyph-name="uniE973" unicode="&#xe973;" horiz-adv-x="896" 
d="M128 960q-53 0 -90.5 -37.5t-37.5 -90.5v-768q0 -53 37.5 -90.5t90.5 -37.5h768v1024h-768zM768 64h-512v768h128v-256l128 128l128 -128v256h128v-768z" />
    <glyph glyph-name="uniE974" unicode="&#xe974;" 
d="M128 704h64v64h-64v-64zM896 896h-768q-53 0 -90.5 -37.5t-37.5 -90.5v-768h1024v768q0 53 -37.5 90.5t-90.5 37.5zM960 64h-896v512h896v-512zM960 640h-896v128q0 26 19 45t45 19h768q26 0 45 -19t19 -45v-128zM864 768h-448q-13 0 -22.5 -9.5t-9.5 -22.5t9.5 -22.5
t22.5 -9.5h448q13 0 22.5 9.5t9.5 22.5t-9.5 22.5t-22.5 9.5zM256 704h64v64h-64v-64z" />
    <glyph glyph-name="uniE975" unicode="&#xe975;" 
d="M512 804l74 -120h-148zM859 241h-147l73 119l74 -119v0zM165 241l74 119l73 -119h-147v0zM354 172l158 -256l158 256h315l-158 256l158 256h-315l-158 256l-158 -256h-315l158 -256l-158 -256h315v0zM859 616l-74 -120l-73 120h147zM512 53l-74 119h148l-74 -119v0z
M281 428l115 188h232l115 -188l-116 -187h-231zM165 616h147l-73 -120l-74 120v0z" />
    <glyph glyph-name="uniE976" unicode="&#xe976;" 
d="M84 663v-215h301v-512h215v512h297v215h-297v297h-215v-297h-301v0z" />
    <glyph glyph-name="uniE977" unicode="&#xe977;" 
d="M649 4q-91 0 -171 35q-80 36 -140 96t-95 141t-35 172q0 92 34 173q35 81 95 141t141 95q82 35 176 35q64 0 117.5 -17.5l53.5 -17.5q-36 26 -74 45q-37 19 -75 32t-77 20q-39 6 -79 6q-54 0 -103 -9q-50 -10 -96 -28.5t-87 -46.5q-42 -28 -80 -65q-37 -37 -65 -79
q-29 -41 -47.5 -86.5t-28.5 -94.5q-9 -50 -9 -103t9 -102q10 -49 28.5 -94.5t46.5 -86.5q28 -42 66 -79q37 -38 79 -66q41 -28 86.5 -46.5t94.5 -28.5q49 -9 102 -9q69 0 124 15t94.5 33.5t62.5 35.5q23 16 28 20l-56 -18t-120 -18v0zM750 420l-45 -142l120 87l120 -87
l-45 142l120 86h-149l-46 142l-46 -142h-149l120 -86v0z" />
    <glyph glyph-name="uniE978" unicode="&#xe978;" 
d="M974 418q18 -128 -18 -201q-36 -74 -90 -113t-107 -52t-69 -21q-71 -24 -121 -59.5l-50 -35.5l-42.5 32t-112.5 63q-16 7 -74 21q-58 13 -117.5 52t-100.5 113t-22 201q7 37 37 74t30 99t-35 120l-35 58l199 191l42.5 -24.5t88.5 -24.5q47 0 94.5 24.5l47.5 24.5
l47.5 -24.5t91.5 -24.5q45 0 88.5 24.5l43.5 24.5l185 -188l-34.5 -59.5t-34.5 -121.5t29.5 -98t38.5 -75v0zM516 790q-65 0 -123 -27q-57 -26 -100 -71.5t-68 -104.5q-24 -60 -24 -125q0 -66 24 -121q25 -55 68 -95.5t100 -63.5q58 -23 123 -23q66 0 123 23t100 63.5
t68 95.5t25 121q0 65 -25 125q-25 59 -68 104.5t-100 71.5q-57 27 -123 27zM518 178q-61 0 -115 23q-53 23 -93 63t-63 94q-24 53 -24 114t24 115q23 53 63 93t93 63q54 24 115 24t115 -23q53 -24 93 -64t63 -93q23 -54 23 -115t-23 -114q-23 -54 -63 -94t-93 -63
q-54 -23 -115 -23zM695 605q-12 0 -21 -9t-9 -21h-84l-45 76q7 5 11 11.5t4 14.5q0 13 -9 22t-22 9t-22 -9t-9 -22q0 -9 4.5 -16t11.5 -11l-43 -75h-87q0 12 -9 21t-22 9q-12 0 -21 -9t-9 -22q0 -12 9 -21t21 -9q5 0 8.5 1t6.5 3l44 -75l-44 -77q-4 2 -7.5 3t-7.5 1
q-12 0 -21 -9t-9 -22q0 -12 9 -21t21 -9q13 0 22 9t9 21v1v0h87l44 -76q-7 -4 -12 -11t-5 -16q0 -13 9 -22t22 -9t22 9t9 22q0 8 -4.5 15t-10.5 11l45 77h83h-0.5t-0.5 -1q0 -12 9 -21t22 -9t22 9t9 21q0 13 -9 22t-22 9q-3 0 -6 -0.5t-5 -1.5l-43 74l43 75q2 -2 5.5 -2.5
t6.5 -0.5q13 0 22 9t9 21q0 13 -9 22t-22 9v0z" />
    <glyph glyph-name="uniE979" unicode="&#xe979;" 
d="M729 448q52 33 94 80q43 47 73.5 104.5t46.5 124.5q17 67 17 139q0 16 -1 32l-2 32h-890l-2 -32t-1 -32q0 -72 17 -139q16 -67 46.5 -124.5t73.5 -104.5q42 -47 94 -80q-52 -33 -94 -80q-43 -47 -73.5 -104.5t-46.5 -124.5q-17 -67 -17 -139q0 -16 1 -32l2 -32h890l2 32
t1 32q0 72 -17 139q-16 67 -46.5 124.5t-73.5 104.5q-42 47 -94 80v0zM160 0q0 70 15 134q15 63 43.5 115t69.5 91q42 38 96 58v100q-54 20 -96 58q-41 39 -69.5 91t-43.5 115q-15 64 -15 134v0h704q0 -70 -15 -134q-15 -63 -43.5 -115t-69.5 -91q-42 -38 -96 -58v-100
q54 -20 96 -58q41 -39 69.5 -91t43.5 -115q15 -64 15 -134h-704zM620 290q-54 31 -65 66.5t-11 59.5v64q0 24 11 59.5t65 66.5q29 16 53.5 41.5t43.5 56.5h-410q19 -32 43.5 -57t53.5 -41q54 -31 65 -66.5t11 -59.5v-64q0 -24 -11 -59.5t-65 -66.5t-92.5 -91t-50.5 -135h502
q-12 76 -50.5 135.5t-92.5 90.5z" />
    <glyph glyph-name="uniE97A" unicode="&#xe97a;" 
d="M0 -64v96q0 54 32 92t88 63.5t133 40.5t166 24q-39 24 -69 82.5t-46 113.5v0v0q-2 0 -25 37.5t-23 90.5q0 47 2.5 82t29.5 43v1.5v1.5q0 59 28 108.5t74 78.5q12 30 45.5 49.5t76.5 19.5t76.5 -19.5t45.5 -49.5q46 -29 74 -78.5t28 -108.5v-1.5v-1.5q27 -8 29.5 -43
t2.5 -82q0 -53 -25 -90.5t-23 -37.5v0v0q-16 -55 -46 -113.5t-69 -82.5q89 -9 166 -23q77 -15 133 -40.5t88 -63.5t32 -93v-96h-1024z" />
    <glyph glyph-name="uniE97B" unicode="&#xe97b;" 
d="M576 253v53q53 30 90.5 97t37.5 141q0 60 -3 112q-3 53 -21 92t-57 61q-39 23 -111 23t-111 -23q-39 -22 -57 -61t-21 -92q-3 -52 -3 -112q0 -74 37.5 -141t90.5 -97v-53q-81 -6 -152 -29q-70 -22 -121.5 -55.5t-81.5 -76.5q-29 -44 -29 -92h896q0 48 -29 92
q-30 43 -81.5 76.5t-121.5 55.5q-71 23 -152 29z" />
    <glyph glyph-name="uniE97C" unicode="&#xe97c;" 
d="M384 224q0 57 17 108q17 52 47.5 95t72.5 76q43 33 93 51q12 28 19 58t7 60q0 60 -3 112q-3 53 -21 92t-57 61q-39 23 -111 23t-111 -23q-39 -22 -57 -61t-21 -92q-3 -52 -3 -112q0 -74 37.5 -141t90.5 -97v-53q-81 -6 -152 -29q-70 -22 -121.5 -55.5t-81.5 -76.5
q-29 -44 -29 -92h397q-6 23 -9.5 47t-3.5 49zM736 512q-60 0 -112 -23q-53 -22 -92 -61t-61 -92q-23 -52 -23 -112t23 -112q22 -53 61 -92t92 -61q52 -23 112 -23t112 23q53 22 92 61t61 92q23 52 23 112t-23 112q-22 53 -61 92t-92 61q-52 23 -112 23zM896 192h-128v-128
h-64v128h-128v64h128v128h64v-128h128v-64z" />
    <glyph glyph-name="uniE97D" unicode="&#xe97d;" 
d="M384 224q0 57 17 108q17 52 47.5 95t72.5 76q43 33 93 51q12 28 19 58t7 60q0 60 -3 112q-3 53 -21 92t-57 61q-39 23 -111 23t-111 -23q-39 -22 -57 -61t-21 -92q-3 -52 -3 -112q0 -74 37.5 -141t90.5 -97v-53q-81 -6 -152 -29q-70 -22 -121.5 -55.5t-81.5 -76.5
q-29 -44 -29 -92h397q-6 23 -9.5 47t-3.5 49zM736 512q-60 0 -112 -23q-53 -22 -92 -61t-61 -92q-23 -52 -23 -112t23 -112q22 -53 61 -92t92 -61q52 -23 112 -23t112 23q53 22 92 61t61 92q23 52 23 112t-23 112q-22 53 -61 92t-92 61q-52 23 -112 23zM896 192h-320v64h320
v-64z" />
    <glyph glyph-name="uniE97E" unicode="&#xe97e;" 
d="M960 352l-288 -288l-96 96l-64 -64l160 -160l352 352zM448 192h320v115q-50 30 -115.5 49t-140.5 25v53q53 30 90.5 97t37.5 141q0 60 -3 112q-3 53 -21 92t-57 61q-39 23 -111 23t-111 -23q-39 -22 -57 -61t-21 -92q-3 -52 -3 -112q0 -74 37.5 -141t90.5 -97v-53
q-81 -6 -152 -29q-70 -22 -121.5 -55.5t-81.5 -76.5q-29 -44 -29 -92h448v64z" />
    <glyph glyph-name="uniE97F" unicode="&#xe97f;" horiz-adv-x="1152" 
d="M768 189v53q53 30 90.5 97t37.5 141q0 60 -3 112q-3 53 -21 92t-57 61q-39 23 -111 23t-111 -23q-39 -22 -57 -61t-21 -92q-3 -52 -3 -112q0 -74 37.5 -141t90.5 -97v-53q-81 -6 -152 -29q-70 -22 -121.5 -55.5t-81.5 -76.5q-29 -44 -29 -92h896q0 48 -29 92
q-30 43 -81.5 76.5t-121.5 55.5q-71 23 -152 29zM327 165q42 27 92.5 47.5t107.5 32.5q-11 13 -21.5 28t-19.5 31q-22 42 -34 86.5t-12 89.5q0 65 4 124.5t27 109.5q22 48 62 78t97 41q-13 58 -52.5 92.5t-129.5 34.5q-72 0 -111 -23q-39 -22 -57 -61t-21 -92
q-3 -52 -3 -112q0 -74 37.5 -141t90.5 -97v-53q-81 -6 -152 -29q-70 -22 -121.5 -55.5t-81.5 -76.5q-29 -44 -29 -92h279q11 10 23 19t25 18v0z" />
    <glyph glyph-name="uniE980" unicode="&#xe980;" 
d="M768 648q0 15 -10.5 26t-26.5 11h-109l0.5 30t0.5 78q0 44 -32.5 78.5t-78.5 34.5t-77.5 -33.5t-31.5 -79.5q0 -45 -0.5 -76.5l-0.5 -31.5h-109q-16 0 -26.5 -11t-10.5 -26v-43v-28h512v28v43v0zM512 723q-15 0 -26 11t-11 26t11 26t26 11t26 -11t11 -26t-11 -26t-26 -11
zM951 648l-146 2v-113h-586v109l-146 2q-30 0 -51.5 -21.5t-21.5 -51.5v-512q0 -30 21.5 -51.5t51.5 -21.5h878q30 0 51.5 21.5t21.5 51.5v512q0 30 -21.5 51.5t-51.5 21.5v0zM293 435q33 0 56.5 -30.5t23.5 -74.5q0 -43 -23.5 -74t-56.5 -31q-34 0 -57 31t-23 74
q0 44 23 74.5t57 30.5zM134 101l7 36.5t21 46.5q15 10 46 16l31 6l20.5 -19.5t31.5 -19.5q12 0 32.5 19.5l20.5 19.5l30.5 -6t45.5 -16q18 -12 23.5 -47.5l5.5 -35.5h-315v0zM878 136h-329v37h329v-37v0zM878 209h-329v37h329v-37v0zM878 282h-329v37h329v-37v0zM878 355
h-329v37h329v-37v0z" />
    <glyph glyph-name="uniE982" unicode="&#xe982;" 
d="M192 960v-1024h768v1024h-768zM576 704q53 0 90.5 -37.5t37.5 -90.5t-37.5 -90.5t-90.5 -37.5t-90.5 37.5t-37.5 90.5t37.5 90.5t90.5 37.5v0zM768 192h-384v64q0 53 37.5 90.5t90.5 37.5v0h128q53 0 90.5 -37.5t37.5 -90.5v-64zM64 896h96v-192h-96v192zM64 640h96v-192
h-96v192zM64 384h96v-192h-96v192zM64 128h96v-192h-96v192z" />
    <glyph glyph-name="uniE983" unicode="&#xe983;" 
d="M512 768q-41 0 -80.5 -6.5t-77.5 -19.5q-35 -12 -66 -29t-57 -38q-50 -41 -76.5 -91t-26.5 -104q0 -30 8.5 -59.5t24.5 -56.5q17 -29 42.5 -54.5t56.5 -45.5q23 -15 37.5 -38t18.5 -50q2 -9 2.5 -18t1.5 -18q5 4 10.5 9t11.5 11q18 18 41.5 27.5t48.5 9.5h8t8 -1
q16 -2 32 -3t32 -1q41 0 80.5 6.5t77.5 19.5q35 12 66 29t57 38q50 41 76.5 91t26.5 104t-26.5 104t-76.5 91q-26 21 -57 38t-66 29q-38 13 -77.5 19.5t-80.5 6.5v0zM512 896v0q106 0 199 -33q94 -32 163.5 -88.5t109.5 -132.5t40 -162t-40 -162t-109.5 -132.5t-163.5 -88.5
q-93 -33 -199 -33q-20 0 -40 1.5t-40 3.5q-41 -41 -86 -67q-45 -25 -91.5 -39.5t-94.5 -19.5t-96 -7v27q51 26 89.5 69.5t38.5 95.5q0 7 -0.5 14.5t-1.5 14.5q-44 28 -79 64t-59.5 77t-38.5 87q-13 46 -13 95q0 86 40 162t109.5 132.5t163.5 88.5q93 33 199 33z" />
    <glyph glyph-name="uniE985" unicode="&#xe985;" 
d="M64 960h384v-64h-384v64zM576 960h384v-64h-384v64zM952 640h-56v256h-256v-256h-256v256h-256v-256h-56q-30 0 -51 -21t-21 -51v-560q0 -30 21 -51t51 -21h304q30 0 51 21t21 51v376h128v-376q0 -30 21 -51t51 -21h304q30 0 51 21t21 51v560q0 30 -21 51t-51 21zM348 0
h-248q-15 0 -25.5 9.5t-10.5 22.5t10.5 22.5t25.5 9.5h248q15 0 25.5 -9.5t10.5 -22.5t-10.5 -22.5t-25.5 -9.5zM544 448h-64q-13 0 -22.5 9.5t-9.5 22.5t9.5 22.5t22.5 9.5h64q13 0 22.5 -9.5t9.5 -22.5t-9.5 -22.5t-22.5 -9.5zM924 0h-248q-15 0 -25.5 9.5t-10.5 22.5
t10.5 22.5t25.5 9.5h248q15 0 25.5 -9.5t10.5 -22.5t-10.5 -22.5t-25.5 -9.5z" />
    <glyph glyph-name="uniE986" unicode="&#xe986;" 
d="M992 89l-242 206q-19 17 -38.5 25t-35.5 7q43 50 67.5 114t24.5 135q0 80 -30 149q-30 70 -82.5 122.5t-122.5 82.5q-69 30 -149 30t-149 -30q-70 -30 -122.5 -82.5t-82.5 -122.5q-30 -69 -30 -149t30 -149q30 -70 82.5 -122.5t122.5 -82.5q69 -30 149 -30q71 0 135 24.5
t114 67.5q-1 -16 7 -35.5t25 -38.5l206 -242q27 -30 64.5 -32t64.5 24q26 27 24 64.5t-32 64.5zM384 320q-53 0 -100 20q-46 20 -81 55t-55 81q-20 47 -20 100t20 100q20 46 55 81t81 55q47 20 100 20t100 -20q46 -20 81 -55t55 -81q20 -47 20 -100t-20 -100
q-20 -46 -55 -81t-81 -55q-47 -20 -100 -20z" />
    <glyph glyph-name="uniE987" unicode="&#xe987;" 
d="M992 89l-242 206q-19 17 -38.5 25t-35.5 7q43 50 67.5 114t24.5 135q0 80 -30 149q-30 70 -82.5 122.5t-122.5 82.5q-69 30 -149 30t-149 -30q-70 -30 -122.5 -82.5t-82.5 -122.5q-30 -69 -30 -149t30 -149q30 -70 82.5 -122.5t122.5 -82.5q69 -30 149 -30q71 0 135 24.5
t114 67.5q-1 -16 7 -35.5t25 -38.5l206 -242q27 -30 64.5 -32t64.5 24q26 27 24 64.5t-32 64.5zM384 320q-53 0 -100 20q-46 20 -81 55t-55 81q-20 47 -20 100t20 100q20 46 55 81t81 55q47 20 100 20t100 -20q46 -20 81 -55t55 -81q20 -47 20 -100t-20 -100
q-20 -46 -55 -81t-81 -55q-47 -20 -100 -20zM448 768h-128v-128h-128v-128h128v-128h128v128h128v128h-128v128z" />
    <glyph glyph-name="uniE988" unicode="&#xe988;" 
d="M992 89l-242 206q-19 17 -38.5 25t-35.5 7q43 50 67.5 114t24.5 135q0 80 -30 149q-30 70 -82.5 122.5t-122.5 82.5q-69 30 -149 30t-149 -30q-70 -30 -122.5 -82.5t-82.5 -122.5q-30 -69 -30 -149t30 -149q30 -70 82.5 -122.5t122.5 -82.5q69 -30 149 -30q71 0 135 24.5
t114 67.5q-1 -16 7 -35.5t25 -38.5l206 -242q27 -30 64.5 -32t64.5 24q26 27 24 64.5t-32 64.5zM384 320q-53 0 -100 20q-46 20 -81 55t-55 81q-20 47 -20 100t20 100q20 46 55 81t81 55q47 20 100 20t100 -20q46 -20 81 -55t55 -81q20 -47 20 -100t-20 -100
q-20 -46 -55 -81t-81 -55q-47 -20 -100 -20zM192 640h384v-128h-384v128z" />
    </font>
</defs>
</svg>
